<?xml version="1.0" encoding="UTF-8"?>
<svg width="229px" height="43px" viewBox="0 0 229 43" version="1.1" xmlns="http://www.w3.org/2000/svg" xmlns:xlink="http://www.w3.org/1999/xlink">
    <title>Artboard</title>
    <defs>
        <polygon id="path-1" points="0 60.4 217.871 60.4 217.871 0 0 0"></polygon>
    </defs>
    <g id="Artboard" stroke="none" stroke-width="1" fill="none" fill-rule="evenodd">
        <g id="Group-37" transform="translate(0.000000, 2.000000)">
            <g id="Group-36">
                <path d="M40.25,38 L33.12,38 C32.883,38.007 32.653,37.921 32.48,37.76 C29.836,35.414 26.518,33.965 23,33.62 C21.314,33.438 19.61,33.522 17.95,33.87 L17.78,33.87 L17.78,33.59 L17.78,28.439 C17.78,28.13 17.88,28.03 18.19,27.99 C21.762,27.511 25.396,27.877 28.8,29.06 L29.24,29.2 C26.54,22.35 23.86,15.58 21.15,8.73 C21.077,8.843 21.011,8.96 20.95,9.08 L13.77,24.45 C11.69,28.883 9.617,33.316 7.55,37.75 C7.48,37.89 7.42,38 7.22,38 L0.06,38 L0,38 C0.017,37.932 0.041,37.864 0.07,37.8 L17.17,1.18 C17.33,0.85 17.47,0.52 17.65,0.18 C17.715,0.08 17.821,0.014 17.94,0 L24.94,0 C25.21,0 25.24,0.16 25.31,0.34 L30.03,12.26 L40,37.399 C40.07,37.58 40.14,37.76 40.22,37.99" id="Fill-1" fill="#000000"></path>
                <path d="M97.5801,17.8198 L97.5801,13.4298 L99.7901,13.4298 L99.7901,25.9098 L98.1201,25.9098 C98.0601,25.9098 97.9701,25.7998 97.9501,25.7198 C97.9301,25.6398 97.8501,25.2698 97.7901,24.9898 L97.5201,25.2198 C96.2431,26.4818 94.1851,26.4688 92.9241,25.1918 C92.5311,24.7928 92.2471,24.2998 92.1001,23.7598 C91.5701,22.3548 91.5701,20.8048 92.1001,19.3998 C92.5301,18.1118 93.6551,17.1818 95.0001,16.9998 C95.8271,16.8528 96.6761,17.0888 97.3101,17.6398 L97.5901,17.8598 M97.5701,21.4098 L97.5701,19.7198 C97.5691,19.6028 97.5341,19.4878 97.4701,19.3898 C96.7811,18.6428 95.6171,18.5968 94.8701,19.2858 C94.7051,19.4378 94.5701,19.6188 94.4701,19.8198 C93.9751,20.9238 93.9751,22.1868 94.4701,23.2898 C94.7141,23.9338 95.3671,24.3258 96.0501,24.2398 C96.5841,24.2188 97.0821,23.9628 97.4101,23.5398 C97.5141,23.4158 97.5741,23.2618 97.5801,23.0998 L97.5801,21.4098" id="Fill-3" fill="#000000"></path>
                <path d="M140.4902,24.9697 C139.9802,25.5047 139.3282,25.8837 138.6102,26.0597 C137.3462,26.3487 136.0362,25.8317 135.3092,24.7597 C134.0952,22.7167 134.1852,20.1527 135.5402,18.1997 C136.5852,16.8027 138.5652,16.5167 139.9632,17.5617 C140.0382,17.6177 140.1102,17.6777 140.1792,17.7397 C140.2072,17.7617 140.2372,17.7787 140.2692,17.7897 L140.2692,13.4297 L142.5102,13.4297 L142.5102,25.9097 L140.8302,25.9097 C140.7602,25.9097 140.6702,25.7897 140.6392,25.6997 C140.6102,25.6097 140.5502,25.2597 140.4902,24.9797 M140.2602,21.3997 L140.2602,19.7097 C140.2562,19.5707 140.1982,19.4387 140.0992,19.3397 C139.3982,18.6127 138.2392,18.5927 137.5122,19.2947 C137.2672,19.5307 137.0942,19.8297 137.0102,20.1597 C136.6822,21.1357 136.7002,22.1957 137.0592,23.1597 C137.3192,23.9747 138.1762,24.4387 139.0002,24.2097 C139.4262,24.1297 139.8072,23.8947 140.0702,23.5497 C140.1832,23.4087 140.2532,23.2397 140.2692,23.0597 L140.2692,21.3997" id="Fill-5" fill="#000000"></path>
                <path d="M113.6699,25.9101 C113.6699,25.7601 113.7309,25.6601 113.7599,25.5501 C114.9199,21.9101 116.0759,18.2701 117.2309,14.6301 C117.2609,14.4111 117.4619,14.2581 117.6809,14.2881 C117.6839,14.2891 117.6879,14.2891 117.6909,14.2901 L119.7999,14.2901 C119.9809,14.2901 120.0699,14.2901 120.1299,14.5201 L123.7099,25.7501 C123.7139,25.7971 123.7139,25.8431 123.7099,25.8891 L123.4299,25.8891 L121.7499,25.8891 C121.4299,25.8891 121.2899,25.8191 121.2099,25.4901 C121.0299,24.7291 120.7999,23.9791 120.5999,23.2201 C120.5499,22.9901 120.4599,22.8991 120.2099,22.8991 L117.0799,22.8991 C116.8899,22.8661 116.7079,22.9921 116.6739,23.1821 C116.6719,23.1911 116.6709,23.2011 116.6699,23.2101 C116.4699,24.0101 116.2309,24.8091 116.0299,25.6091 C116.0159,25.7801 115.8659,25.9071 115.6949,25.8921 C115.6869,25.8921 115.6789,25.8911 115.6699,25.8891 L113.6699,25.8891 M118.6909,16.0901 L118.6199,16.0901 L117.2999,21.0901 L119.9999,21.0901 L118.6699,16.0901" id="Fill-7" fill="#000000"></path>
                <path d="M80.27,19.5996 C80.01,19.1096 79.74,18.5996 79.47,18.1196 C80.834,17.1846 82.512,16.8256 84.14,17.1196 C85.235,17.3406 86.084,18.2096 86.28,19.3096 C86.39,19.7626 86.45,20.2246 86.46,20.6896 L86.46,25.7596 L86.46,25.9996 L84.73,25.9996 C84.73,25.9996 84.59,25.8796 84.57,25.7996 C84.55,25.7196 84.49,25.3496 84.44,25.0496 C84.31,25.1496 84.21,25.2096 84.13,25.2806 C83.558,25.7616 82.867,26.0826 82.13,26.2096 C80.945,26.4136 79.781,25.7516 79.35,24.6296 C78.859,23.4706 79.283,22.1266 80.35,21.4596 C81.229,20.9456 82.207,20.6246 83.22,20.5196 L84.15,20.3796 C84.252,19.7316 83.859,19.1076 83.23,18.9196 C82.725,18.7836 82.188,18.8116 81.7,18.9996 C81.22,19.1796 80.77,19.3996 80.27,19.6196 M84.19,21.7806 C83.407,21.8016 82.639,22.0066 81.95,22.3796 C81.822,22.4656 81.705,22.5666 81.6,22.6796 C81.218,23.0786 81.232,23.7116 81.63,24.0936 C81.779,24.2356 81.967,24.3286 82.17,24.3596 C82.93,24.4726 83.692,24.1716 84.17,23.5696 C84.201,23.5396 84.222,23.5016 84.23,23.4596 L84.23,21.7806" id="Fill-9" fill="#000000"></path>
                <path d="M149.5996,20.27 C149.7046,19.554 149.2096,18.889 148.4946,18.784 C148.4296,18.774 148.3656,18.77 148.2996,18.77 C147.6806,18.749 147.0676,18.891 146.5196,19.18 C146.2596,19.3 146.0096,19.43 145.7496,19.57 C145.7116,19.523 145.6786,19.473 145.6506,19.42 C145.4106,18.99 145.1696,18.55 144.9196,18.08 L145.3706,17.81 C146.3286,17.253 147.4116,16.947 148.5196,16.92 C150.1686,16.759 151.6366,17.965 151.7966,19.614 C151.8096,19.742 151.8146,19.871 151.8096,20 C151.9006,21.74 151.8606,23.49 151.8796,25.24 L151.8796,25.92 L150.1296,25.92 C150.0706,25.92 149.9996,25.79 149.9806,25.71 C149.9596,25.63 149.8896,25.26 149.8396,24.97 L149.4196,25.29 C148.6596,25.945 147.6556,26.244 146.6606,26.109 C145.6586,25.971 144.8556,25.212 144.6606,24.22 C144.3756,23.184 144.7766,22.081 145.6606,21.47 C146.3146,21.037 147.0486,20.741 147.8206,20.6 C148.4106,20.48 149.0096,20.39 149.5996,20.29 M149.5896,21.729 C148.8326,21.758 148.0926,21.952 147.4196,22.3 C147.2336,22.41 147.0706,22.557 146.9406,22.729 C146.6096,23.172 146.7006,23.799 147.1426,24.13 C147.2636,24.22 147.4026,24.281 147.5496,24.31 C148.3096,24.421 149.0716,24.12 149.5496,23.52 C149.5806,23.487 149.5986,23.444 149.5996,23.399 L149.5996,21.729" id="Fill-11" fill="#000000"></path>
                <path d="M53.3701,17.1899 L55.6101,17.1899 L55.6101,17.5899 L55.6101,22.2399 C55.6091,22.6369 55.6521,23.0319 55.7401,23.4199 C55.8411,23.8889 56.2601,24.2209 56.7401,24.2099 C57.4821,24.2059 58.1641,23.8059 58.5301,23.1599 C58.5771,23.0499 58.5951,22.9289 58.5801,22.8099 L58.5801,17.2099 L60.8401,17.2099 L60.8401,25.9999 L59.1301,25.9999 C59.0701,25.9999 58.9801,25.8499 58.9701,25.7699 C58.9101,25.4499 58.8701,25.1199 58.8201,24.6999 L58.3801,25.1699 C57.6411,25.9669 56.5531,26.3429 55.4801,26.1699 C54.5941,26.0969 53.8461,25.4829 53.6001,24.6299 C53.4241,24.1309 53.3261,23.6079 53.3101,23.0799 L53.3101,17.4399 L53.3101,17.2199" id="Fill-13" fill="#000000"></path>
                <path d="M159.0703,17.1596 L161.3303,17.1596 L161.3303,17.5396 L161.3303,22.4506 C161.3143,22.6566 161.3143,22.8636 161.3303,23.0696 C161.3393,23.7046 161.8603,24.2126 162.4953,24.2036 C162.6193,24.2026 162.7433,24.1806 162.8603,24.1396 C163.4293,24.0026 163.9193,23.6426 164.2193,23.1396 C164.2763,23.0326 164.2983,22.9096 164.2803,22.7896 L164.2803,17.1696 L166.5403,17.1696 L166.5403,25.9096 L164.8493,25.9096 C164.7803,25.9096 164.6903,25.7806 164.6703,25.6896 C164.6103,25.3696 164.5803,25.0396 164.5303,24.6896 L164.4203,24.6096 C164.3303,24.7296 164.2403,24.8796 164.1393,24.9906 C163.3993,25.8526 162.2603,26.2626 161.1393,26.0696 C160.2233,25.9746 159.4633,25.3216 159.2303,24.4296 C159.0823,23.9526 158.9983,23.4586 158.9803,22.9596 L158.9803,17.3196 C158.9763,17.2596 158.9763,17.1996 158.9803,17.1396" id="Fill-15" fill="#000000"></path>
                <path d="M65.6602,25.9394 L63.4002,25.9394 L63.4002,17.1894 L65.2302,17.1894 L65.4202,18.3494 C65.5302,18.2594 65.6102,18.1994 65.6802,18.1294 C66.1742,17.6654 66.7702,17.3224 67.4202,17.1294 C68.7442,16.6204 70.2322,17.2804 70.7422,18.6054 C70.8392,18.8594 70.8962,19.1274 70.9102,19.3994 C70.9582,19.7484 70.9882,20.0984 71.0002,20.4494 L71.0002,25.6604 L71.0002,25.9394 L68.7102,25.9394 L68.7102,25.5804 L68.7102,20.9094 C68.7072,20.5134 68.6642,20.1174 68.5802,19.7304 C68.4832,19.2564 68.0632,18.9194 67.5802,18.9294 C66.8332,18.9464 66.1392,19.3184 65.7102,19.9294 C65.6782,20.0444 65.6782,20.1654 65.7102,20.2794 L65.7102,25.5494 L65.6602,25.9394 Z" id="Fill-17" fill="#000000"></path>
                <path d="M125,17.1596 L126.83,17.1596 C126.89,17.5296 126.95,17.8896 127.01,18.3096 L127.55,17.8496 C128.315,17.1486 129.351,16.8196 130.38,16.9496 C131.209,17.0156 131.924,17.5586 132.21,18.3396 C132.406,18.8176 132.521,19.3246 132.55,19.8396 L132.55,25.7496 C132.553,25.7966 132.553,25.8426 132.55,25.8896 L130.31,25.8896 L130.31,25.5396 L130.31,20.7896 C130.312,20.4376 130.278,20.0856 130.21,19.7396 C130.133,19.2226 129.671,18.8526 129.15,18.8896 C128.436,18.9026 127.767,19.2466 127.34,19.8196 C127.278,19.9366 127.254,20.0686 127.27,20.1996 L127.27,25.4696 L127.27,25.8896 L125,25.8896 L125,17.1596 Z" id="Fill-19" fill="#000000"></path>
                <path d="M109.3799,22.1601 L103.9999,22.1601 C104.0079,22.8521 104.3409,23.5011 104.8999,23.9101 C105.9749,24.5791 107.3489,24.5271 108.3699,23.7801 L109.1099,25.1091 L109.1099,25.1891 C107.2379,26.5931 104.6249,26.4321 102.9399,24.8091 C102.0149,23.7361 101.6059,22.3101 101.8199,20.9101 C101.8989,19.7021 102.4789,18.5811 103.4199,17.8201 C104.4629,16.9131 105.9199,16.6561 107.2099,17.1501 C108.2389,17.5171 109.0129,18.3781 109.2699,19.4401 C109.5289,20.3231 109.5729,21.2561 109.3999,22.1601 M103.9999,20.6101 L107.4999,20.6101 C107.6669,19.7361 107.0939,18.8931 106.2209,18.7261 C106.1479,18.7121 106.0739,18.7031 105.9999,18.7001 C104.9519,18.6441 104.0579,19.4491 104.0029,20.4971 C104.0009,20.5351 103.9999,20.5721 103.9999,20.6101" id="Fill-21" fill="#000000"></path>
                <path d="M43.71,24.1298 L45.24,22.9998 C45.33,23.1198 45.4,23.2398 45.48,23.3498 C45.863,23.9518 46.564,24.2738 47.27,24.1698 C47.775,24.1448 48.207,23.7978 48.34,23.3098 C48.455,22.8858 48.515,22.4488 48.52,22.0098 L48.52,14.8398 L48.52,14.3898 L50.82,14.3898 L50.82,14.7298 L50.82,22.0298 C50.827,22.5478 50.773,23.0648 50.66,23.5688 C50.391,25.0688 49.093,26.1648 47.57,26.1798 C45.991,26.3908 44.448,25.5918 43.71,24.1798" id="Fill-23" fill="#000000"></path>
                <path d="M76,17.1699 L78.15,17.1699 L78.15,18.9999 L76,18.9999 L76,22.7799 C75.996,22.8539 75.996,22.9269 76,22.9999 C76,24.0799 76.65,24.5299 77.69,24.2599 L78,24.1999 C78.12,24.7199 78.23,25.1999 78.33,25.6999 C78.319,25.7849 78.267,25.8599 78.19,25.8989 C77.325,26.2089 76.386,26.2439 75.5,25.9999 C74.462,25.6929 73.758,24.7319 73.78,23.6489 C73.69,22.2699 73.72,20.8699 73.7,19.4799 L73.7,18.9999 L72.48,18.9999 L72.48,17.4699 C72.48,17.3999 72.6,17.2999 72.68,17.2899 C72.906,17.2399 73.138,17.2199 73.37,17.2299 C73.72,17.2299 73.86,17.0899 73.88,16.7299 C73.88,16.1699 73.99,15.6099 74.07,15.0499 C74.07,14.9699 74.2,14.8299 74.26,14.8299 L75.97,14.8299 L76,17.1699 Z" id="Fill-25" fill="#000000"></path>
                <path d="M174.75,23.58 L175.66,25.059 C175.061,25.602 174.312,25.951 173.51,26.059 C171.286,26.515 169.114,25.081 168.659,22.857 C168.616,22.643 168.59,22.428 168.58,22.21 C168.31,20.618 168.881,18.999 170.09,17.93 C171.538,16.699 173.628,16.576 175.21,17.63 C175.32,17.7 175.42,17.79 175.54,17.88 L174.45,19.35 C173.67,18.567 172.404,18.565 171.621,19.345 C171.389,19.578 171.216,19.865 171.12,20.18 C170.802,20.953 170.77,21.815 171.03,22.609 C171.266,23.734 172.367,24.455 173.492,24.22 C173.771,24.161 174.037,24.045 174.27,23.88 L174.75,23.569" id="Fill-27" fill="#000000"></path>
                <path d="M154.25,13.4199 L156.51,13.4199 L156.51,23.4199 C156.51,24.0689 156.63,24.1999 157.28,24.2399 C157.36,24.7299 157.45,25.2399 157.52,25.7299 C157.508,25.8259 157.448,25.9089 157.36,25.9499 C156.732,26.1699 156.048,26.1699 155.42,25.9499 C154.918,25.7709 154.542,25.3489 154.42,24.8299 C154.303,24.3929 154.238,23.9419 154.23,23.4899 L154.23,13.6699 L154.23,13.4099" id="Fill-29" fill="#000000"></path>
                <path d="M188.9199,25.9101 L187.2799,25.9101 C187.1779,25.8851 187.0949,25.8091 187.0599,25.7101 C186.9969,25.4671 186.9499,25.2201 186.9199,24.9701 L186.6099,25.1891 C185.9349,25.7851 185.0699,26.1221 184.1699,26.1391 C183.0749,26.1671 182.0959,25.4651 181.7699,24.4201 C181.3719,23.3081 181.7849,22.0691 182.7699,21.4201 C183.4919,20.9661 184.2979,20.6631 185.1399,20.5301 C185.5599,20.4501 185.9809,20.3801 186.4099,20.3401 C186.6799,20.3401 186.7199,20.2001 186.6799,19.9501 C186.6029,19.2571 186.0069,18.7401 185.3099,18.7601 C184.5589,18.7791 183.8239,18.9931 183.1799,19.3801 L182.7999,19.5791 L181.9809,18.0791 C183.3599,17.1201 185.0689,16.7601 186.7199,17.0791 C187.6179,17.2651 188.3469,17.9181 188.6299,18.7901 C188.8199,19.2961 188.9289,19.8291 188.9499,20.3691 L188.9499,25.7401 L188.9499,25.9391 M186.6599,21.7001 C185.8409,21.7491 185.0439,21.9841 184.3299,22.3891 C184.2199,22.4641 184.1209,22.5551 184.0399,22.6601 C183.6739,23.0731 183.7129,23.7051 184.1259,24.0711 C184.2689,24.1971 184.4429,24.2791 184.6299,24.3091 C185.3909,24.4251 186.1529,24.1231 186.6299,23.5191 C186.6619,23.4921 186.6809,23.4521 186.6799,23.4101 L186.6799,21.7001" id="Fill-31" fill="#000000"></path>
                <mask id="mask-2" fill="white">
                    <use xlink:href="#path-1"></use>
                </mask>
                <g id="Clip-34"></g>
                <polygon id="Fill-33" fill="#000000" mask="url(#mask-2)" points="177.33 25.899 179.59 25.899 179.59 17.17 177.33 17.17"></polygon>
                <polyline id="Fill-35" fill="#000000" mask="url(#mask-2)" points="181.5098 13.0498 178.5598 15.6798 177.4808 14.4998 179.9998 11.4298 181.4698 13.0498"></polyline>
            </g>
            <text id="Consejería-de-educación-y-deporte" font-family="ArialMT, Arial" font-size="11" font-weight="normal" letter-spacing="-0.121" fill="#000000">
                <tspan x="44.2847" y="36.9947219">Consejería de educación y deporte</tspan>
            </text>
        </g>
    </g>
</svg>