<svg width="90" height="44" viewBox="0 0 90 44" fill="none" xmlns="http://www.w3.org/2000/svg">
<path d="M10.8088 11.0884H2.55884V20.6305H10.8088V11.0884Z" fill="#5D5C5C"/>
<path d="M19.2354 11.0884H10.9854V20.6305H19.2354V11.0884Z" fill="white"/>
<path d="M10.9854 20.8076V31.3659C12.2648 31.3659 13.5001 31.2333 14.6912 31.0124C17.2501 30.5265 19.1912 28.2735 19.1912 25.5345V20.8076" fill="#5D5C5C"/>
<path d="M10.8088 31.41V20.8076H2.55884V25.5345C2.55884 28.2293 4.50001 30.5265 7.05884 31.0124C8.29413 31.2775 9.52943 31.41 10.8088 31.41Z" fill="white"/>
<path fill-rule="evenodd" clip-rule="evenodd" d="M5.20596 28.2734C5.25008 28.2734 5.33831 28.2734 5.38243 28.2734C5.38243 28.2734 4.94126 27.6107 5.42655 27.0806C5.42655 27.0806 5.77949 26.5063 6.39714 26.9039C6.39714 26.9039 6.66184 27.1689 6.70596 27.6107C6.70596 27.6107 6.3089 27.6107 6.08831 28.2734C6.00008 28.4942 5.95596 28.8035 5.95596 29.2452H5.69126C5.69126 29.2452 5.60302 29.0244 5.64714 28.8918C5.64714 28.8918 5.2942 28.936 5.20596 28.8918C5.20596 28.8918 5.11773 29.1127 5.20596 29.2452L4.94126 29.2011C4.94126 29.2011 4.85302 28.9802 4.89714 28.8477C4.89714 28.8477 4.76478 28.8477 4.67655 28.7593C4.67655 28.7593 4.5442 28.936 4.5442 29.0685L4.27949 28.936C4.27949 28.936 4.32361 28.7151 4.41184 28.671C4.41184 28.671 4.0589 28.5826 3.97067 28.5384L3.83831 28.2734L3.57361 26.9039C3.57361 26.9039 4.23537 26.683 4.50008 27.3898C4.50008 27.3898 4.5442 27.7432 4.50008 28.0967C4.50008 28.0967 4.5442 28.2734 4.94126 28.2734C5.02949 28.2734 5.11773 28.2734 5.20596 28.2734Z" fill="#575756"/>
<path fill-rule="evenodd" clip-rule="evenodd" d="M5.11764 26.5501C5.16176 26.4618 5.16176 26.3734 5.24999 26.3293C5.24999 26.3293 4.80882 26.2409 4.7647 26.1967L4.54411 26.506L4.23529 26.4176L4.36764 26.1967L3.88235 26.02L3.74999 26.2409L3.48529 26.1084L3.61764 25.8433L3.22058 25.7108V24.2088C3.22058 24.2088 3.97058 24.1204 3.92646 24.8714C3.92646 25.004 3.88235 25.1365 3.83823 25.3132C3.83823 25.3132 4.45588 25.4899 4.67646 25.3574C4.67646 25.3574 5.24999 26.1525 5.55882 26.2851C5.55882 26.2851 5.47058 26.4176 5.38235 26.5501C5.38235 26.5943 5.33823 26.5943 5.33823 26.6385H5.0294C5.07352 26.6385 5.11764 26.6385 5.11764 26.5501Z" fill="#575756"/>
<path fill-rule="evenodd" clip-rule="evenodd" d="M5.47058 24.8716C5.29411 24.9599 5.11764 25.0483 4.89705 25.0924L4.72058 24.8716C4.72058 24.8716 5.7794 24.6065 6.22058 23.988L6.57352 23.9438C6.61764 23.988 6.2647 24.474 5.47058 24.8716Z" fill="#575756"/>
<path fill-rule="evenodd" clip-rule="evenodd" d="M6.44126 24.8716C7.01479 24.4298 7.67655 23.723 7.85302 22.8395L7.67655 22.4419C7.67655 22.4419 7.63243 23.8114 5.86773 24.8716C5.64714 25.0041 5.38243 25.1809 5.07361 25.3134L5.2942 25.5343C5.2942 25.5343 5.82361 25.3134 6.44126 24.8716Z" fill="#575756"/>
<path fill-rule="evenodd" clip-rule="evenodd" d="M6.79416 24.8718C6.44122 25.181 6.00004 25.4903 5.42651 25.7111L5.6471 25.932C5.6471 25.932 6.44122 25.7111 7.19122 24.8718C7.54416 24.5184 7.8971 24.0324 8.16181 23.414L7.98534 23.0605C8.02945 23.0605 7.76475 23.9883 6.79416 24.8718Z" fill="#575756"/>
<path fill-rule="evenodd" clip-rule="evenodd" d="M7.45594 24.8715C7.05888 25.3133 6.52947 25.755 5.73535 26.0643L5.95594 26.241C5.95594 26.241 6.97065 25.7992 7.80888 24.8715C7.98535 24.6506 8.16182 24.4297 8.29417 24.2089L8.20594 23.7671C8.25006 23.7671 8.02947 24.253 7.45594 24.8715Z" fill="#575756"/>
<path fill-rule="evenodd" clip-rule="evenodd" d="M9.04408 23.8998C8.99996 23.3697 8.77937 23.0162 8.73526 22.7954C8.69114 22.707 8.6029 22.3978 8.73526 22.2211C8.95584 21.9118 9.30879 21.956 9.57349 22.4861H9.8382C9.8382 22.4861 9.74996 21.8235 9.13232 21.7793C9.13232 21.7793 8.38232 21.7793 8.42643 22.5303C8.42643 22.5303 8.51467 23.0162 8.73526 23.5905C8.73526 23.5905 8.95585 23.9881 8.69114 24.4741C8.69114 24.4741 8.55879 24.6508 8.51467 24.8717C8.47055 25.0042 8.42643 25.1367 8.42643 25.2693L8.69114 25.5343C8.64702 25.2251 8.77937 25.0042 8.82349 24.8717C8.77937 24.7833 9.0882 24.4299 9.04408 23.8998Z" fill="#575756"/>
<path fill-rule="evenodd" clip-rule="evenodd" d="M9.1324 25.8876L8.8677 25.7109C8.8677 25.7109 8.82358 25.2691 9.00005 24.9157C9.00005 24.9157 9.00005 24.8716 9.04417 24.8274C9.1324 24.6507 9.30887 24.2089 9.26475 23.9438L9.48534 24.2531C9.48534 24.2531 9.48534 24.5181 9.30887 24.8274C9.17652 25.0924 9.04417 25.6226 9.1324 25.8876Z" fill="#575756"/>
<path fill-rule="evenodd" clip-rule="evenodd" d="M9.04411 28.2734C9.08823 28.2734 9.13235 28.2734 9.17646 28.2734V28.4943C9.17646 28.4943 8.99999 28.4943 8.95587 28.4943C8.95587 28.4943 8.99999 28.7593 8.95587 28.8919C8.95587 28.8919 9.17646 28.936 9.22058 28.936V29.2453C9.22058 29.2453 8.99999 29.2011 8.95587 29.1569V29.422C8.95587 29.422 9.08823 29.5103 9.17646 29.4662V29.7312C9.17646 29.7312 8.91176 29.7312 8.86764 29.6429L8.7794 29.9963H7.14705C7.14705 29.9963 7.10293 28.7593 8.24999 29.422C8.24999 29.422 8.69117 29.2453 8.11764 28.2734C8.11764 28.2734 8.0294 28.2734 7.94117 28.2734C7.41176 28.2734 7.0147 27.92 6.83823 27.169C6.83823 27.169 6.74999 26.8156 6.5294 26.5947C6.44117 26.5063 6.35293 26.418 6.22058 26.418C6.22058 26.418 7.32352 25.8879 7.54411 25.5344C7.54411 25.5344 7.19117 26.1087 7.67646 26.418C7.67646 26.418 7.85293 26.5063 8.0294 26.5947C8.29411 26.7272 8.60293 26.9481 8.73529 27.2132C8.73529 27.2132 9.74999 27.434 9.70588 26.5947C9.70588 26.5505 9.61764 26.3296 9.48529 26.1087C9.39705 25.9762 9.2647 25.6228 9.48529 25.2252C9.48529 25.2252 9.57352 25.0485 9.61764 24.916C9.66176 24.8276 9.66176 24.7834 9.66176 24.7393L9.70588 24.916L9.79411 25.181C9.79411 25.181 9.57352 25.4019 9.61764 25.7995C9.66176 26.1087 9.92646 26.2854 9.97058 26.5947C10.0147 26.7714 9.97058 27.0364 9.83823 27.2132C9.74999 27.3457 9.35293 27.7433 8.69117 27.5224C8.69117 27.5224 8.55882 28.0083 8.91176 28.2734C8.91176 28.2292 8.99999 28.2734 9.04411 28.2734Z" fill="#575756"/>
<path fill-rule="evenodd" clip-rule="evenodd" d="M9.4853 22.6626H9.83824C9.83824 22.6626 10.2353 22.9277 9.83824 23.6787C9.83824 23.6787 9.79412 23.8554 9.83824 23.9879C9.83824 23.9879 9.13236 23.5903 9.4853 22.6626Z" fill="#575756"/>
<path fill-rule="evenodd" clip-rule="evenodd" d="M5.82351 24.0764C5.82351 24.0764 5.24998 24.5181 4.89704 24.5623C4.89704 24.5623 4.76468 24.6065 4.58821 24.739L4.36763 24.6065C4.36763 24.6065 4.36763 24.3856 4.58821 24.3414C4.58821 24.3414 4.19115 24.0322 4.14704 23.8997C4.14704 23.8997 3.97057 23.9438 3.92645 24.1205L3.70586 23.9438C3.70586 23.9438 3.83821 23.8113 3.97057 23.7229C3.97057 23.7229 3.66174 23.3254 3.66174 23.1928V21.8233C3.66174 21.8233 4.63233 21.735 4.19115 22.8836C4.19115 22.8836 4.76468 23.8113 5.82351 24.0764Z" fill="#575756"/>
<path fill-rule="evenodd" clip-rule="evenodd" d="M6.57353 23.3695C6.57353 23.3695 6.52941 23.2811 6.13235 23.4578C6.13235 23.4578 6 23.5904 5.82353 23.4137C5.82353 23.4137 5.60294 23.0602 5.25 23.2811C5.25 23.2811 5.47059 23.2811 5.60294 23.5462C5.60294 23.5462 5.77941 23.8996 6.17647 23.6787C6.17647 23.6345 6.39706 23.3695 6.57353 23.3695Z" fill="#575756"/>
<path fill-rule="evenodd" clip-rule="evenodd" d="M7.4118 22.0884H6.52945C6.52945 22.0884 5.86768 22.486 5.64709 22.9719L6.08827 23.3253C6.08827 23.3253 6.13239 22.8394 6.57357 22.9719C6.57357 22.9719 7.23533 23.4579 6.35298 23.6346C6.35298 23.6346 6.70592 24.0322 6.97062 23.502C6.97062 23.4579 7.45592 22.5743 7.4118 22.0884Z" fill="#575756"/>
<path fill-rule="evenodd" clip-rule="evenodd" d="M6.48535 21.8678V21.426L6.70594 21.6469L6.92653 21.3818L7.19123 21.6911L7.41182 21.3818L7.45594 21.8678" fill="#575756"/>
<path fill-rule="evenodd" clip-rule="evenodd" d="M6.26477 22.5305L6.52948 22.3096C6.52948 22.3096 6.44124 22.3979 6.52948 22.5305" fill="white"/>
<path fill-rule="evenodd" clip-rule="evenodd" d="M13.8088 18.3779C13.853 18.3779 13.9412 18.3779 13.9853 18.3779C13.9853 18.3779 13.5441 17.7152 14.0294 17.1851C14.0294 17.1851 14.3382 16.6108 15 17.0084C15 17.0084 15.2647 17.2734 15.3088 17.7152C15.3088 17.7152 14.9118 17.7594 14.6912 18.3779C14.603 18.5987 14.5588 18.908 14.5588 19.3497H14.2941C14.2941 19.3497 14.2059 19.1289 14.25 18.9963C14.25 18.9963 13.8971 19.0405 13.8088 18.9963C13.8088 18.9963 13.7206 19.2172 13.853 19.3497L13.5882 19.3056C13.5882 19.3056 13.5 19.0847 13.5441 18.9522C13.5441 18.9522 13.4118 18.9522 13.3235 18.8638C13.3235 18.8638 13.1912 19.0405 13.1912 19.173L12.9265 19.0405C12.9265 19.0405 12.9706 18.8196 13.0588 18.7754C13.0588 18.7754 12.7059 18.6871 12.6177 18.6429L12.5735 18.3337L12.3088 16.9642C12.3088 16.9642 12.9706 16.7433 13.2353 17.406C13.2353 17.406 13.2794 17.7594 13.2353 18.1128C13.2353 18.1128 13.2794 18.2895 13.6765 18.3337C13.5882 18.3779 13.6765 18.3779 13.8088 18.3779Z" fill="#575756"/>
<path fill-rule="evenodd" clip-rule="evenodd" d="M13.6765 16.6546C13.7206 16.5663 13.7206 16.4779 13.7647 16.4337C13.7647 16.4337 13.3677 16.3454 13.2794 16.3012L13.0588 16.6105L12.7941 16.5221L12.9265 16.3012L12.4412 16.1245L12.3088 16.3454L12.0441 16.2129L12.1765 15.9478L11.7794 15.8153V14.3133C11.7794 14.3133 12.5294 14.2249 12.4853 14.9759C12.4853 15.1084 12.4412 15.241 12.3971 15.4177C12.3971 15.4177 13.0147 15.5944 13.2353 15.4619C13.2353 15.4619 13.8088 16.257 14.1177 16.4337C14.1177 16.4337 14.0294 16.5663 13.9412 16.6988C13.9412 16.743 13.8971 16.743 13.8971 16.7872H13.6765C13.6765 16.743 13.6765 16.6988 13.6765 16.6546Z" fill="#575756"/>
<path d="M14.0736 14.9761C13.8971 15.0644 13.7207 15.1528 13.5001 15.1969L13.3236 14.9761C13.3236 14.9761 14.3824 14.711 14.8677 14.0925L15.2207 14.0483C15.2207 14.0925 14.8236 14.5785 14.0736 14.9761Z" fill="#575756"/>
<path fill-rule="evenodd" clip-rule="evenodd" d="M15 14.9758C15.6177 14.5341 16.2353 13.8273 16.4559 12.8995L16.2795 12.502C16.2795 12.502 16.2353 13.8714 14.4706 14.9317C14.25 15.0642 13.9853 15.2409 13.6765 15.3734L13.8971 15.5943C13.853 15.6385 14.3824 15.4176 15 14.9758Z" fill="#575756"/>
<path fill-rule="evenodd" clip-rule="evenodd" d="M15.353 14.9763C15.0001 15.2855 14.5589 15.5948 13.9854 15.8156L14.2059 16.0365C14.2059 16.0365 15.0001 15.8156 15.7942 14.9763C16.1471 14.6229 16.5001 14.1369 16.7648 13.5185L16.5883 13.165C16.5883 13.165 16.3677 14.0928 15.353 14.9763Z" fill="#575756"/>
<path fill-rule="evenodd" clip-rule="evenodd" d="M16.0588 14.9761C15.6618 15.3737 15.1324 15.8597 14.3383 16.1689L14.5588 16.3456C14.5588 16.3456 15.5736 15.9038 16.4118 14.9761C16.5883 14.7553 16.7647 14.5344 16.8971 14.3135L16.8088 13.8717C16.8088 13.8275 16.5883 14.3577 16.0588 14.9761Z" fill="#575756"/>
<path fill-rule="evenodd" clip-rule="evenodd" d="M17.603 14.0043C17.5589 13.4742 17.3383 13.1207 17.2941 12.8999C17.25 12.8115 17.1618 12.5023 17.2941 12.3697C17.5147 12.0605 17.8677 12.1047 18.0883 12.5906H18.353C18.353 12.5906 18.2647 11.928 17.6471 11.8838C17.6471 11.8838 16.8971 11.8838 16.9412 12.6348C16.9412 12.6348 17.0294 13.1207 17.25 13.695C17.25 13.695 17.4706 14.0926 17.2059 14.5786C17.2059 14.5786 17.0736 14.7553 17.0294 14.9762C16.9853 15.1087 16.9412 15.2412 16.9412 15.3737L17.2059 15.6388C17.1618 15.3296 17.2941 15.1087 17.3383 14.9762C17.3824 14.8878 17.6471 14.5344 17.603 14.0043Z" fill="#575756"/>
<path fill-rule="evenodd" clip-rule="evenodd" d="M17.7353 15.9921L17.4706 15.8154C17.4706 15.8154 17.4265 15.3736 17.603 15.0202C17.603 15.0202 17.603 14.9761 17.6471 14.9319C17.7353 14.7552 17.9118 14.3134 17.8677 14.0483L18.0882 14.3576C18.0882 14.3576 18.0882 14.6226 17.9118 14.9319C17.7794 15.1969 17.603 15.7271 17.7353 15.9921Z" fill="#575756"/>
<path fill-rule="evenodd" clip-rule="evenodd" d="M17.6471 18.3776C17.6913 18.3776 17.7354 18.3776 17.7795 18.3776V18.5985C17.7795 18.5985 17.603 18.5985 17.5589 18.5985C17.5589 18.5985 17.603 18.8636 17.5589 18.9961C17.5589 18.9961 17.7795 19.0403 17.8236 19.0403V19.3495C17.8236 19.3495 17.603 19.3053 17.5589 19.2612V19.482C17.5589 19.482 17.6913 19.5704 17.7795 19.5262V19.7913C17.7795 19.7913 17.5148 19.7913 17.4707 19.7029L17.3824 20.0563H15.7501C15.7501 20.0563 15.706 18.8194 16.853 19.482C16.853 19.482 17.2942 19.3053 16.7207 18.3335C16.7207 18.3335 16.6324 18.3335 16.5442 18.3335C16.0148 18.3335 15.6177 17.98 15.4413 17.229C15.4413 17.229 15.353 16.8756 15.1324 16.6547C15.0442 16.5664 14.956 16.478 14.8236 16.478C14.8236 16.478 15.9265 15.9479 16.1471 15.5945C16.1471 15.5945 15.7942 16.1688 16.2795 16.478C16.2795 16.478 16.456 16.5664 16.6324 16.6547C16.8971 16.7873 17.206 17.0082 17.3383 17.2732C17.3383 17.2732 18.353 17.4941 18.3089 16.6547C18.3089 16.6106 18.2648 16.3897 18.0883 16.1688C18.0001 16.0363 17.8677 15.6828 18.0883 15.2853C18.0883 15.2853 18.1765 15.1086 18.2207 14.976C18.2648 14.8877 18.2648 14.8435 18.2648 14.7993L18.3089 14.976L18.3971 15.2411C18.3971 15.2411 18.1324 15.462 18.2207 15.8596C18.2648 16.1688 18.5295 16.3455 18.5736 16.6547C18.6177 16.8314 18.5736 17.0965 18.4413 17.2732C18.353 17.4057 17.956 17.8033 17.2501 17.5824C17.2501 17.5824 17.1618 18.0684 17.4707 18.3335C17.4707 18.3335 17.5589 18.3776 17.6471 18.3776Z" fill="#575756"/>
<path fill-rule="evenodd" clip-rule="evenodd" d="M18.0882 12.7671H18.4412C18.4412 12.7671 18.8382 13.0321 18.4412 13.8273C18.4412 13.8273 18.397 14.004 18.4412 14.1366C18.397 14.0924 17.7353 13.6948 18.0882 12.7671Z" fill="#575756"/>
<path fill-rule="evenodd" clip-rule="evenodd" d="M14.3823 14.1809C14.3823 14.1809 13.8088 14.6226 13.4559 14.6226C13.4559 14.6226 13.3235 14.6668 13.1471 14.7993L12.9265 14.6668C12.9265 14.6668 12.9265 14.4459 13.1471 14.4017C13.1471 14.4017 12.7059 14.0925 12.7059 13.96C12.7059 13.96 12.5294 14.0041 12.4853 14.1809L12.2647 14.0041C12.2647 14.0041 12.3971 13.8716 12.5294 13.7833C12.5294 13.7833 12.2206 13.3857 12.2206 13.2531V11.9278C12.2206 11.9278 13.1912 11.8395 12.75 12.9881C12.7941 12.9881 13.3235 13.9158 14.3823 14.1809Z" fill="#575756"/>
<path fill-rule="evenodd" clip-rule="evenodd" d="M15.1764 13.474C15.1764 13.474 15.1323 13.3856 14.7353 13.5623C14.7353 13.5623 14.6029 13.6949 14.4264 13.5181C14.4264 13.5181 14.2058 13.1647 13.8529 13.3856C13.8529 13.3856 14.0735 13.3856 14.2058 13.6507C14.2058 13.6507 14.3823 14.0041 14.7794 13.7832C14.7353 13.739 14.9558 13.474 15.1764 13.474Z" fill="#575756"/>
<path fill-rule="evenodd" clip-rule="evenodd" d="M15.9706 12.1929H15.0883C15.0883 12.1929 14.4265 12.5905 14.2059 13.0764L14.6471 13.4298C14.6471 13.4298 14.6912 12.9881 15.1324 13.0764C15.1324 13.0764 15.7942 13.5623 14.9118 13.7391C14.9118 13.7391 15.2206 14.1366 15.5295 13.6065C15.5736 13.5623 16.0148 12.6788 15.9706 12.1929Z" fill="#575756"/>
<path fill-rule="evenodd" clip-rule="evenodd" d="M15.0883 11.9723L15.0442 11.5305L15.2648 11.7514L15.5295 11.4863L15.7501 11.7956L16.0148 11.4863V11.9723" fill="#575756"/>
<path fill-rule="evenodd" clip-rule="evenodd" d="M14.8677 12.6349L15.1324 12.4141C15.1324 12.4141 15.0441 12.5024 15.1324 12.6349" fill="white"/>
<path fill-rule="evenodd" clip-rule="evenodd" d="M13.1471 23.8554H14.2501V22.751L14.3824 22.6627V22.5743H13.8089V22.751H13.5883V22.5743H13.0148V22.6627L13.1471 22.751M13.853 23.2812C13.853 23.1928 13.7648 23.1044 13.6765 23.1044C13.5883 23.1044 13.5001 23.1928 13.5001 23.2812V23.6346H13.853V23.2812ZM12.8824 24.0322H13.6765V24.2972H14.1177V24.0763H14.8677V24.2972H15.3971V24.0763H16.2354V24.2972H16.6765V24.0322H17.5148V24.2972L17.2942 24.6065H13.0589L12.8824 24.2972V24.0322ZM14.5148 22.0884H15.0442V22.3534H15.2648V22.0884H15.7942V22.2209L15.6618 22.3093V23.8554H14.603V22.3093L14.4707 22.2209V22.0884H14.5148ZM15.353 23.0161C15.353 22.9277 15.2648 22.8394 15.1765 22.8394C15.0883 22.8394 15.0001 22.9277 15.0001 23.0161V23.5904H15.353V23.0161ZM16.2354 23.8554H17.3383V22.751L17.4707 22.6627V22.5743H16.8971V22.751H16.7207V22.5743H16.1471V22.6627L16.2795 22.751L16.2354 23.8554ZM16.9412 23.2812C16.9412 23.1928 16.853 23.1044 16.7648 23.1044C16.6765 23.1044 16.5883 23.1928 16.5883 23.2812V23.6346H16.9412V23.2812ZM15.8824 27.6546H17.7795L17.2942 24.8715H13.1471L12.6177 27.6105H14.5589L14.603 26.0643C14.603 25.8876 14.9118 25.755 15.2648 25.755C15.6177 25.755 15.9265 25.8876 15.9265 26.0643L15.8824 27.6546ZM12.5295 27.8314H14.5148V28.3615H12.0883V28.1848L12.5295 27.8314ZM17.8677 27.8755H15.8824V28.4056H18.0442L18.2207 28.1848L17.8677 27.8755ZM13.9412 25.9759C13.9412 25.8434 13.853 25.755 13.7207 25.755C13.5883 25.755 13.5001 25.8876 13.5001 25.9759V26.506H13.9854V25.9759H13.9412ZM16.8971 26.0201C16.8971 25.8876 16.8089 25.7992 16.6765 25.7992C16.5442 25.7992 16.456 25.8876 16.456 26.0201V26.5502H16.9412V26.0201H16.8971ZM17.3824 29.245L18.0001 28.6265H12.0442V29.245H17.3824Z" fill="#D1D1D1"/>
<path fill-rule="evenodd" clip-rule="evenodd" d="M4.54418 13.9599H5.64712V12.8555L5.73535 12.7672V12.6788H5.20594V12.8555H4.98535V12.6788H4.41182V12.7672L4.54418 12.8555M5.25006 13.3856C5.25006 13.2973 5.16182 13.2089 5.07359 13.2089C4.98535 13.2089 4.89712 13.2973 4.89712 13.3856V13.7391H5.25006V13.3856ZM4.32359 14.1366H5.1177V14.4017H5.55888V14.1808H6.30888V14.4017H6.83829V14.1808H7.67653V14.4017H8.1177V14.1366H8.95594V14.4017L8.73535 14.7109H4.54418L4.32359 14.4017V14.1366ZM5.95594 12.1929H6.48535V12.4579H6.70594V12.1929H7.23535V12.2812L7.103 12.3696V13.9599H6.04418V12.3696L5.91182 12.2812V12.1929H5.95594ZM6.79418 13.1206C6.79418 13.0322 6.70594 12.9439 6.6177 12.9439C6.52947 12.9439 6.44123 13.0322 6.44123 13.1206V13.6949H6.79418V13.1206ZM7.63241 14.0041H8.73535V12.8997L8.82359 12.8113V12.723H8.25006V12.8997H8.02947V12.723H7.50006V12.8113L7.63241 12.8997V14.0041ZM8.33829 13.4298C8.33829 13.3415 8.25006 13.2531 8.16182 13.2531C8.07359 13.2531 7.98535 13.3415 7.98535 13.4298V13.7832H8.33829V13.4298ZM7.32359 17.7591H9.22065L8.73535 14.976H4.58829L4.05888 17.715H6.00006L6.04418 16.1688C6.04418 15.9921 6.353 15.8595 6.70594 15.8595C7.05888 15.8595 7.36771 15.9921 7.36771 16.1688L7.32359 17.7591ZM3.97065 17.9358H5.95594V18.466H3.48535V18.2893L3.97065 17.9358ZM9.26476 17.98H7.27947V18.5101H9.70594V18.3334L9.26476 17.98ZM5.33829 16.0804C5.33829 15.9479 5.25006 15.8595 5.1177 15.8595C4.98535 15.8595 4.89712 15.9479 4.89712 16.0804V16.6105H5.38241L5.33829 16.0804ZM8.29418 16.0804C8.29418 15.9479 8.20594 15.8154 8.07359 15.8154C7.94123 15.8154 7.853 15.9479 7.853 16.0804V16.6105H8.33829L8.29418 16.0804ZM3.48535 18.731H9.70594V19.3495H3.48535V18.731Z" fill="#D1D1D1"/>
<path d="M14.7353 31.0564C13.5 31.2773 12.2647 31.4098 10.9853 31.4098V20.8074H19.2353V25.5343C19.2353 28.2733 17.2941 30.5705 14.7353 31.0564ZM2.55885 25.5785V20.8074H10.8088V31.3657C9.52943 31.3657 8.29414 31.2331 7.05885 31.0123C4.50002 30.5705 2.55885 28.2733 2.55885 25.5785ZM10.8088 11.0886V20.6307H2.55885V11.0886H10.8088ZM19.2353 11.0886V20.6307H10.9853V11.0886H19.2353ZM2.33826 10.8677V25.711C2.33826 28.4942 4.32355 30.7914 6.97061 31.3215C8.25002 31.5866 9.57355 31.6749 10.8971 31.6749C12.2206 31.6749 13.5441 31.5424 14.8236 31.3215C17.4706 30.8355 19.4559 28.4942 19.4559 25.711V10.8677H2.33826Z" fill="black"/>
<path d="M10.8971 8.70274C8.51471 8.70274 6.26471 9.10033 4.14706 9.76298L3.75 8.52604C6 7.77503 8.42647 7.37744 10.8971 7.37744C13.4118 7.37744 15.7941 7.77503 18.0441 8.52604L17.6471 9.76298C15.5294 9.10033 13.2794 8.70274 10.8971 8.70274Z" fill="#C5C5C5"/>
<path d="M18.8383 6.18504C18.5736 6.98022 17.8236 7.59869 16.8971 7.59869C15.7941 7.59869 14.8677 6.67098 14.8677 5.56656C14.8677 5.47821 14.8677 5.34568 14.9118 5.25732L15.3971 5.34568C15.3971 5.43403 15.3971 5.47821 15.3971 5.56656C15.3971 6.40592 16.0589 7.06857 16.8971 7.06857C17.5589 7.06857 18.1324 6.6268 18.3089 6.00833" fill="#C5C5C5"/>
<path d="M14.9118 5.25699C14.7794 6.22888 13.9412 6.97988 12.9265 6.97988C11.8236 6.97988 10.8971 6.05217 10.8971 4.94775H11.4265C11.4265 5.78711 12.0883 6.44976 12.9265 6.44976C13.6765 6.44976 14.2942 5.87546 14.4265 5.16864L14.9118 5.25699Z" fill="#C5C5C5"/>
<path d="M6.88232 5.25699C7.01468 6.22888 7.85291 6.97988 8.86762 6.97988C9.97056 6.97988 10.897 6.05217 10.897 4.94775H10.3676C10.3676 5.78711 9.70585 6.44976 8.86762 6.44976C8.11762 6.44976 7.49997 5.87546 7.36762 5.16864L6.88232 5.25699Z" fill="#C5C5C5"/>
<path d="M2.95593 6.18504C3.22064 6.98022 3.97064 7.59869 4.89711 7.59869C6.00005 7.59869 6.92652 6.67098 6.92652 5.56656C6.92652 5.47821 6.92652 5.34568 6.8824 5.25732L6.39711 5.34568C6.39711 5.43403 6.39711 5.47821 6.39711 5.56656C6.39711 6.40592 5.73534 7.06857 4.89711 7.06857C4.23534 7.06857 3.66182 6.6268 3.48534 6.00833" fill="#C5C5C5"/>
<path d="M11.0294 4.10873L11.5147 3.57861H12.5735L12.0441 4.10873L12.5735 4.59468H11.5147" fill="#C5C5C5"/>
<path d="M19.1912 5.12454L18.8383 4.50607L19.1471 3.53418L19.5 4.15265" fill="#C5C5C5"/>
<path d="M18.9706 5.34542L18.6617 4.68277L17.6911 4.37354L18 5.03619L17.3823 5.3896L18.3529 5.69884" fill="#C5C5C5"/>
<path d="M14.9559 4.418L14.3383 4.81559L13.3677 4.68306L13.9412 4.24129L13.5 3.66699L14.5147 3.79952" fill="#C5C5C5"/>
<path d="M15.1765 4.41761L15.75 4.02002L16.7647 4.15255L16.1912 4.59432L16.5883 5.16861L15.5736 5.03608" fill="#C5C5C5"/>
<path d="M15.0883 4.15286L14.6471 3.57856L14.8236 2.5625L15.2647 3.1368L15.8383 2.73921L15.6618 3.75527" fill="#C5C5C5"/>
<path d="M10.897 3.84355L10.4117 3.31343V2.29736L10.897 2.82748L11.4264 2.29736V3.31343" fill="#C5C5C5"/>
<path d="M10.8089 4.10873L10.2795 3.57861H9.26477L9.75006 4.10873L9.26477 4.59468H10.2795" fill="#C5C5C5"/>
<path d="M2.64708 5.12454L2.9559 4.50607L2.64708 3.53418L2.33826 4.15265" fill="#C5C5C5"/>
<path d="M2.82361 5.34542L3.13243 4.68277L4.14714 4.37354L3.7942 5.03619L4.45596 5.3896L3.48537 5.69884" fill="#C5C5C5"/>
<path d="M6.88232 4.418L7.45585 4.81559L8.47056 4.68306L7.89703 4.24129L8.29409 3.66699L7.27938 3.79952" fill="#C5C5C5"/>
<path d="M6.66177 4.41761L6.04412 4.02002L5.02942 4.15255L5.64707 4.59432L5.20589 5.16861L6.2206 5.03608" fill="#C5C5C5"/>
<path d="M6.70593 4.15286L7.14711 3.57856L6.97064 2.5625L6.57358 3.1368L5.95593 2.73921L6.1324 3.75527" fill="#C5C5C5"/>
<path d="M27.75 29.4218C27.6617 29.7752 27.6176 30.1728 27.5735 30.5704C26.9117 30.7029 26.3382 30.7471 25.8529 30.7471C24.8823 30.7471 24.0882 30.5262 23.4705 30.0403C22.7205 29.466 22.3235 28.6266 22.3235 27.5664C22.3235 26.8154 22.5 26.1969 22.8088 25.6668C23.1617 25.0925 23.6911 24.6507 24.397 24.3415C24.9264 24.1206 25.5 24.0322 26.1176 24.0322C26.6029 24.0322 27.1764 24.0764 27.7941 24.2089C27.7941 24.474 27.8382 24.8716 27.8382 25.3134C27.2205 25.1366 26.6911 25.0483 26.2941 25.0483C25.5 25.0483 24.8382 25.3134 24.3529 25.7993C23.9558 26.2411 23.7353 26.8154 23.7353 27.5222C23.7353 28.229 23.9558 28.8033 24.4411 29.2009C24.8382 29.5101 25.3676 29.6868 25.9853 29.6868C26.5147 29.6868 27.0882 29.5985 27.75 29.4218Z" fill="black"/>
<path d="M29.0293 26.8151C29.0734 26.5942 29.1176 26.285 29.1617 25.9316C29.9558 25.7549 30.6617 25.6665 31.2352 25.6665C31.897 25.6665 32.3823 25.7549 32.6911 25.9757C32.9999 26.1966 33.1764 26.5059 33.1764 26.9476C33.1764 27.2127 33.1323 27.6545 33.0881 28.2729C33.044 28.9798 32.9999 29.7749 32.9999 30.6143C32.7793 30.6143 32.5587 30.6143 32.3381 30.6143C32.1176 30.6143 31.897 30.6143 31.6323 30.6143C31.6764 30.1725 31.7205 29.4215 31.7646 28.4496L31.8087 28.0962C31.6323 28.1846 31.4999 28.2729 31.4117 28.3171C31.3234 28.3613 31.0587 28.4496 30.7058 28.538C30.3087 28.6263 30.044 28.7589 29.8676 28.8914C29.6911 29.0239 29.647 29.2006 29.647 29.3773C29.647 29.5541 29.7352 29.7308 29.8676 29.8191C29.9999 29.9075 30.2205 29.9516 30.4852 29.9516C30.7058 29.9516 30.9705 29.9075 31.2793 29.8191C31.1911 29.9958 31.147 30.2609 31.0587 30.6143C30.7058 30.6585 30.397 30.7026 30.1323 30.7026C29.5146 30.7026 29.0734 30.5701 28.8087 30.3051C28.6764 30.1725 28.5881 30.04 28.4999 29.8633C28.4117 29.6866 28.3676 29.5099 28.3676 29.289C28.3676 28.8472 28.5881 28.4938 29.0293 28.1846C29.3381 27.9637 29.9117 27.787 30.7499 27.6103C31.1911 27.5219 31.4999 27.4336 31.6323 27.301C31.7646 27.1685 31.8087 27.036 31.8087 26.9035C31.8087 26.7267 31.7205 26.5942 31.5881 26.5059C31.4558 26.4175 31.2352 26.3733 30.9264 26.3733C30.397 26.3733 29.7352 26.55 29.0293 26.8151Z" fill="black"/>
<path d="M34.1029 30.5259C34.1029 30.4376 34.0588 30.2609 34.0588 29.9958C34.0588 29.8191 34.0146 29.6424 34.0146 29.5099C34.5882 29.7308 35.0294 29.8633 35.3823 29.8633C35.647 29.8633 35.8235 29.8191 35.9999 29.7308C36.1323 29.6424 36.2205 29.5099 36.2205 29.3332C36.2205 29.2006 36.1323 29.0239 35.9558 28.8472C35.9117 28.8031 35.7352 28.6705 35.3823 28.4055C35.1176 28.1846 34.9411 28.052 34.8088 27.9195C34.4999 27.6103 34.3676 27.301 34.3676 26.9476C34.3676 26.7709 34.4117 26.55 34.4999 26.4175C34.5882 26.2408 34.7205 26.1083 34.8529 25.9757C35.1617 25.799 35.6029 25.6665 36.1323 25.6665C36.5294 25.6665 36.9705 25.7107 37.5441 25.799V25.9316C37.5441 26.1966 37.5882 26.4617 37.5882 26.7709C37.1911 26.6384 36.8382 26.55 36.5294 26.55C35.9558 26.55 35.647 26.7267 35.647 27.036C35.647 27.1685 35.7352 27.3452 35.8676 27.4777C35.9117 27.5219 36.0882 27.6545 36.4411 27.9195C36.7058 28.0962 36.8823 28.2729 37.0146 28.3613C37.3235 28.6705 37.4999 29.0239 37.4999 29.3773C37.4999 29.8191 37.3235 30.1284 36.9705 30.3492C36.6176 30.5701 36.1764 30.7026 35.6029 30.7026C35.2058 30.7026 34.6764 30.6585 34.1029 30.5259Z" fill="black"/>
<path d="M41.4264 29.5984C41.3823 29.8193 41.3382 30.0844 41.2499 30.3936L41.2058 30.5703C40.8088 30.6587 40.4558 30.7028 40.147 30.7028C39.6617 30.7028 39.3088 30.6145 39.0882 30.4378C38.8676 30.2611 38.7794 29.9518 38.7794 29.5542C38.7794 29.4659 38.8235 29.0241 38.8676 28.1848C38.9117 27.5663 38.9558 27.0803 38.9558 26.7269H38.2941C38.2941 26.506 38.3382 26.241 38.3382 25.9759V25.7992H39.0441C39.0441 25.5783 39.0882 25.2691 39.0882 24.8715L39.3088 24.8273C39.6617 24.739 40.0147 24.6948 40.3676 24.6064C40.3676 25.0482 40.3235 25.4458 40.3235 25.7992H41.5147C41.5147 26.241 41.4705 26.5502 41.4705 26.7269H40.2794V26.992L40.2352 27.6988C40.1911 28.4056 40.1911 28.8032 40.1911 28.9358C40.1911 29.2008 40.2352 29.3775 40.3235 29.5101C40.4117 29.6426 40.5882 29.7309 40.8088 29.7309C40.897 29.7309 41.1176 29.6868 41.4264 29.5984Z" fill="black"/>
<path d="M42.3528 24.9155C42.3528 24.5621 42.397 24.297 42.397 24.1645C42.397 24.1203 42.397 24.0761 42.397 23.9878C42.7058 23.9878 42.9705 23.9878 43.147 23.9878C43.3234 23.9878 43.544 23.9878 43.8087 23.9878C43.8087 24.0761 43.8087 24.2087 43.7646 24.4296C43.7646 24.6504 43.7646 24.783 43.7646 24.8713C43.4999 24.8713 43.2352 24.8713 43.1028 24.8713C42.9264 24.9155 42.6617 24.9155 42.3528 24.9155ZM42.0881 30.6143C42.2205 29.4215 42.3087 27.787 42.3087 25.7549C42.6175 25.7549 42.8381 25.7549 43.0146 25.7549C43.1911 25.7549 43.4117 25.7549 43.7205 25.7549C43.5881 27.0802 43.544 28.6705 43.544 30.6143C43.2352 30.6143 43.0146 30.6143 42.8381 30.6143C42.7058 30.5701 42.4411 30.5701 42.0881 30.6143Z" fill="black"/>
<path d="M44.6912 30.6146C44.7794 29.8194 44.8235 28.7592 44.8676 27.5222C44.9117 26.2853 44.9559 25.1367 45 24.1206C45.3529 24.1206 45.5735 24.1206 45.7059 24.1206C45.8823 24.1206 46.0588 24.1206 46.3676 24.1206C46.2794 24.96 46.2353 25.976 46.1912 27.2572C46.147 28.4941 46.1029 29.6427 46.0588 30.6588C45.7941 30.6588 45.5735 30.6588 45.397 30.6588C45.397 30.5704 45.1323 30.6146 44.6912 30.6146Z" fill="black"/>
<path d="M47.2941 30.6146C47.3823 29.8194 47.4264 28.7592 47.4705 27.5222C47.5147 26.2853 47.5588 25.1367 47.6029 24.1206C47.9558 24.1206 48.1764 24.1206 48.3088 24.1206C48.4852 24.1206 48.6617 24.1206 48.9705 24.1206C48.9264 24.96 48.8382 25.976 48.7941 27.2572C48.75 28.4941 48.7058 29.6427 48.6617 30.6588C48.397 30.6588 48.1764 30.6588 48 30.6588C47.9558 30.5704 47.7352 30.6146 47.2941 30.6146Z" fill="black"/>
<path d="M50.2058 26.8151C50.2499 26.5942 50.2941 26.285 50.3382 25.9316C51.1323 25.7549 51.8382 25.6665 52.4117 25.6665C53.0735 25.6665 53.5147 25.7549 53.8676 25.9757C54.1764 26.1966 54.3529 26.5059 54.3529 26.9476C54.3529 27.2127 54.3088 27.6545 54.2647 28.2729C54.2205 28.9798 54.1764 29.7749 54.1764 30.6143C53.9558 30.6143 53.7352 30.6143 53.5147 30.6143C53.2941 30.6143 53.0735 30.6143 52.8088 30.6143C52.8529 30.1725 52.897 29.4215 52.9411 28.4496V28.0962C52.7647 28.1846 52.6764 28.2729 52.5441 28.3171C52.4558 28.3613 52.2352 28.4496 51.8382 28.538C51.4411 28.6263 51.1764 28.7589 50.9999 28.8914C50.8235 29.0239 50.7794 29.2006 50.7794 29.3773C50.7794 29.5541 50.8676 29.7308 50.9999 29.8191C51.1323 29.9075 51.3529 29.9516 51.6176 29.9516C51.8382 29.9516 52.1029 29.9075 52.4117 29.8191C52.3235 29.9958 52.2794 30.2609 52.1911 30.6143C51.8382 30.6585 51.5294 30.7026 51.2647 30.7026C50.647 30.7026 50.2058 30.5701 49.9411 30.3051C49.8088 30.1725 49.7205 30.04 49.6323 29.8633C49.5441 29.6866 49.5441 29.5099 49.5441 29.289C49.5441 28.8472 49.7647 28.4938 50.2058 28.1846C50.5147 27.9637 51.0882 27.787 51.9264 27.6103C52.3676 27.5219 52.6764 27.4336 52.8088 27.301C52.9411 27.1685 53.0294 27.036 53.0294 26.9035C53.0294 26.7267 52.9411 26.5942 52.8088 26.5059C52.6764 26.4175 52.4558 26.3733 52.147 26.3733C51.5735 26.3733 50.9558 26.55 50.2058 26.8151Z" fill="black"/>
<path d="M57.2205 32.7792C57.1764 32.3374 57.1323 31.984 57.0881 31.7631C57.397 31.8957 57.7058 31.984 57.9264 31.984C58.1028 31.984 58.2352 31.9399 58.3676 31.8957C58.4999 31.8073 58.5881 31.719 58.7205 31.5423C58.897 31.2772 59.0293 31.0121 59.1617 30.7029L59.0734 30.3937C58.4999 28.7591 58.0146 27.3455 57.5734 26.1085L57.4411 25.7109C57.794 25.7109 58.0587 25.7109 58.147 25.7109C58.2793 25.7109 58.4999 25.7109 58.8087 25.7109C58.897 26.0202 59.0293 26.5061 59.2499 27.2129C59.6028 28.3174 59.8234 29.1125 59.9117 29.5543C60.044 29.1125 60.3528 28.2732 60.8381 27.1688C61.1028 26.4619 61.3234 25.976 61.4117 25.7109C61.7205 25.7109 61.9411 25.7109 62.0734 25.7109C62.2058 25.7109 62.4264 25.7109 62.7352 25.7109C62.647 25.9318 62.3823 26.5503 61.9411 27.5222C61.4117 28.6708 60.8823 29.9077 60.3087 31.2772C60.1323 31.6306 60.044 31.8957 59.9117 32.0724C59.7793 32.2491 59.647 32.3816 59.5146 32.5141C59.2058 32.7792 58.7646 32.8676 58.2793 32.8676C57.8823 32.9117 57.5734 32.8676 57.2205 32.7792Z" fill="black"/>
<path d="M65.7352 30.6146C65.9558 28.6708 66.0441 26.5061 66.0441 24.1206C66.397 24.1206 66.6617 24.1206 66.7941 24.1206C66.9705 24.1206 67.1911 24.1206 67.5441 24.1206C67.4117 26.1969 67.3235 28.0082 67.2793 29.5985C67.7646 29.5985 68.1617 29.5985 68.4705 29.5985C69.2205 29.5985 69.8382 29.5985 70.3235 29.5543C70.2793 29.8636 70.2793 30.1728 70.2793 30.4379V30.5704C69.4411 30.5704 68.7352 30.5704 68.1176 30.5704C67.4558 30.5704 66.7058 30.6146 65.7352 30.6146Z" fill="black"/>
<path d="M72.1765 27.5663H74.4265C74.4265 27.3455 74.4265 27.1687 74.3823 27.0362C74.25 26.5944 73.9412 26.3736 73.4559 26.3736C72.75 26.4177 72.3088 26.8153 72.1765 27.5663ZM75.2206 29.5101C75.1765 29.6868 75.1323 30.0402 75.0441 30.5262C74.4265 30.6587 73.9412 30.7029 73.4559 30.7029C72.8382 30.7029 72.3529 30.6145 71.9559 30.4378C71.5147 30.2169 71.2059 29.9077 70.9853 29.4659C70.8088 29.1125 70.7206 28.7149 70.7206 28.2732C70.7206 27.6989 70.8529 27.2129 71.1176 26.7712C71.5588 26.0201 72.3088 25.6226 73.3676 25.6226C74.1618 25.6226 74.7794 25.8434 75.1323 26.2852C75.4412 26.6386 75.6176 27.1246 75.6176 27.6547C75.6176 27.7872 75.6176 27.9639 75.5735 28.1406H72.0882C72.0882 28.2732 72.0882 28.3615 72.0882 28.4057C72.0882 28.8475 72.2206 29.1567 72.4853 29.4218C72.75 29.6868 73.1471 29.8193 73.5882 29.8193C74.0294 29.8193 74.5588 29.731 75.2206 29.5101Z" fill="black"/>
<path d="M78.4411 25.0924C78.75 24.3414 78.8823 23.9438 78.8823 23.9438C79.147 23.9438 79.4117 23.9438 79.5882 23.9438C79.7647 23.9438 79.9853 23.9438 80.3382 23.9438C80.1176 24.2089 79.8529 24.6065 79.4558 25.0924C79.2794 25.0924 79.1029 25.0924 78.9705 25.0924C78.7941 25.0924 78.6176 25.0924 78.4411 25.0924ZM79.0147 26.6386C78.5294 26.6386 78.1764 26.8153 77.9117 27.1687C77.6911 27.478 77.6029 27.8314 77.6029 28.2732C77.6029 28.7591 77.7352 29.1125 77.9558 29.3776C78.1764 29.6426 78.4853 29.7752 78.8823 29.7752C79.4117 29.7752 79.8088 29.5543 80.0294 29.1125C80.2058 28.8475 80.25 28.494 80.25 28.0523C80.25 27.5663 80.1617 27.2129 79.9411 26.992C79.6764 26.7712 79.4117 26.6386 79.0147 26.6386ZM78.9705 25.6226C79.8529 25.6226 80.5147 25.8876 81 26.4177C81.397 26.8153 81.5735 27.3896 81.5735 28.0523C81.5735 28.494 81.4853 28.9358 81.3088 29.3334C80.8676 30.2611 80.0294 30.7029 78.8382 30.7029C78.397 30.7029 77.9558 30.6145 77.5588 30.4378C77.1176 30.2169 76.8088 29.9077 76.5882 29.4659C76.4117 29.0683 76.3235 28.6708 76.3235 28.1848C76.3235 27.6989 76.4558 27.2129 76.7205 26.8153C76.9411 26.4177 77.2941 26.1527 77.6911 25.976C78 25.7551 78.4853 25.6226 78.9705 25.6226Z" fill="black"/>
<path d="M82.3676 30.6145C82.544 29.0683 82.6323 27.4338 82.6323 25.7551C82.897 25.7551 83.1617 25.7551 83.3381 25.7551C83.5587 25.7551 83.7793 25.7551 83.9999 25.7551L83.9558 26.5503C84.1764 26.241 84.397 26.0201 84.6176 25.8876C84.9264 25.7109 85.3676 25.6226 85.8529 25.6226C87.044 25.6226 87.6617 26.1527 87.6617 27.1687C87.6617 27.3455 87.6617 27.6989 87.6176 28.1406C87.5734 29.2892 87.5293 30.1286 87.5293 30.6145C87.2646 30.6145 87.044 30.6145 86.8676 30.6145C86.6911 30.6145 86.4705 30.6145 86.1617 30.6145C86.2058 30.2169 86.2058 29.6868 86.2499 29.0683C86.294 28.4499 86.294 28.0081 86.294 27.7872C86.294 27.478 86.2058 27.2129 86.0734 27.0362C85.897 26.8153 85.6323 26.6828 85.2793 26.6828C84.8381 26.6828 84.5293 26.8595 84.2646 27.2129C84.0881 27.4338 83.9999 27.743 83.9558 28.1848C83.9117 28.6266 83.8676 29.4218 83.8234 30.6145C83.5587 30.6145 83.3381 30.6145 83.1617 30.6145C82.9411 30.5704 82.6764 30.5704 82.3676 30.6145Z" fill="black"/>
<path d="M22.3677 20.9401C22.3677 20.5866 22.3235 20.1891 22.2794 19.7915C22.8971 19.9682 23.3382 20.1007 23.6471 20.1007C24.2206 20.1007 24.5735 19.924 24.75 19.5264C24.8382 19.3497 24.8824 19.1288 24.9265 18.8196C24.9706 18.5103 24.9706 17.7152 25.0147 16.4782C25.0147 16.0806 25.0147 15.418 25.0588 14.5786C25.4559 14.5786 25.6765 14.5786 25.8088 14.5786C25.8971 14.5786 26.1618 14.5786 26.5588 14.5786C26.4706 16.0806 26.3824 17.5385 26.3382 19.0405C26.3382 19.5264 26.25 19.8798 26.1618 20.1449C26.0735 20.4099 25.9412 20.5866 25.7206 20.7634C25.3235 21.0726 24.75 21.2051 24.0882 21.2051C23.6029 21.1168 23.0294 21.0726 22.3677 20.9401Z" fill="black"/>
<path d="M32.4265 21.0284C32.1618 21.0284 31.9412 21.0284 31.7647 21.0284C31.5883 21.0284 31.3677 21.0284 31.1471 21.0284V20.2332C30.9706 20.5424 30.75 20.7191 30.5736 20.8517C30.2647 21.0284 29.8677 21.1167 29.3824 21.1167C28.8089 21.1167 28.3677 20.9842 28.0589 20.7191C27.75 20.4541 27.6177 20.1006 27.6177 19.5705C27.6177 19.438 27.6177 19.1288 27.6618 18.687C27.75 17.45 27.7941 16.6107 27.75 16.1247C28.0589 16.1247 28.2794 16.1247 28.4559 16.1247C28.6324 16.1247 28.853 16.1247 29.1177 16.1247C28.9853 17.6268 28.9412 18.5986 28.9412 18.9521C28.9412 19.6589 29.25 19.9681 29.9559 19.9681C30.3971 19.9681 30.7059 19.7914 30.9706 19.4822C31.103 19.3055 31.1471 19.1288 31.1912 18.9521C31.2353 18.7312 31.2794 18.4219 31.2794 17.9802C31.3236 17.4059 31.3236 16.7432 31.3677 16.0806C31.6765 16.0806 31.8971 16.0806 32.0736 16.0806C32.2941 16.0806 32.4706 16.0806 32.6912 16.0806C32.5147 17.936 32.4265 19.5705 32.4265 21.0284Z" fill="black"/>
<path d="M33.5735 21.0284C33.75 19.4822 33.8382 17.8476 33.8382 16.1689C34.1029 16.1689 34.3676 16.1689 34.5441 16.1689C34.7647 16.1689 34.9411 16.1689 35.2058 16.1689L35.1617 16.9641C35.3823 16.6549 35.6029 16.434 35.8235 16.3456C36.1323 16.1689 36.5735 16.0806 37.0588 16.0806C38.25 16.0806 38.8676 16.6107 38.8676 17.6268C38.8676 17.8035 38.8676 18.1569 38.8235 18.5986C38.7353 19.7472 38.7353 20.5866 38.7353 21.0725C38.4705 21.0725 38.25 21.0725 38.0735 21.0725C37.897 21.0725 37.6764 21.0725 37.3676 21.0725C37.4117 20.6749 37.4558 20.1448 37.4558 19.5263C37.5 18.9079 37.5 18.4661 37.5 18.2452C37.5 17.936 37.4117 17.6709 37.2794 17.4942C37.1029 17.2733 36.8382 17.1408 36.4853 17.1408C36.0441 17.1408 35.7353 17.3175 35.4705 17.6268C35.2941 17.8476 35.2058 18.1569 35.1176 18.5986C35.0735 19.0404 35.0294 19.8356 34.9853 21.0284C34.7205 21.0284 34.5 21.0284 34.3235 21.0284C34.1029 21.0284 33.8823 21.0284 33.5735 21.0284Z" fill="black"/>
<path d="M42.7941 20.0125C42.75 20.2334 42.7059 20.4984 42.6177 20.8077L42.5736 20.9844C42.1765 21.0727 41.8236 21.1169 41.5147 21.1169C41.0294 21.1169 40.6765 21.0285 40.4559 20.8518C40.2353 20.6751 40.1471 20.3659 40.1471 19.9683C40.1471 19.8799 40.1912 19.394 40.2353 18.5988C40.2794 17.9803 40.2794 17.4944 40.3236 17.141H39.6177C39.6177 16.9201 39.6618 16.655 39.6618 16.39V16.2133H40.3677C40.4118 15.9924 40.4118 15.6832 40.4118 15.2856L40.6324 15.2414C40.9853 15.153 41.3383 15.1089 41.6912 15.0205C41.6471 15.4623 41.6471 15.8599 41.6471 16.2133H42.8383C42.8383 16.655 42.7941 16.9643 42.7941 17.141H41.603V17.4061L41.5588 18.1129C41.5147 18.8197 41.5147 19.2173 41.5147 19.3498C41.5147 19.6149 41.5589 19.7916 41.6471 19.9241C41.7353 20.0567 41.9118 20.145 42.1324 20.145C42.2647 20.145 42.4853 20.1008 42.7941 20.0125Z" fill="black"/>
<path d="M43.9412 17.2292C43.9853 17.0083 44.0294 16.699 44.0735 16.3456C44.8677 16.1689 45.5735 16.0806 46.1471 16.0806C46.8088 16.0806 47.25 16.1689 47.603 16.3898C47.9118 16.6107 48.0882 16.9199 48.0882 17.3617C48.0882 17.6268 48.0441 18.0685 48 18.687C47.9559 19.3938 47.9118 20.189 47.9118 21.0284C47.6912 21.0284 47.4706 21.0284 47.25 21.0284C47.0294 21.0284 46.8088 21.0284 46.5441 21.0284C46.5882 20.5866 46.6324 19.8356 46.6765 18.8637V18.5103C46.5 18.5986 46.4118 18.687 46.2794 18.7312C46.1912 18.7753 45.9706 18.8637 45.5735 18.9521C45.1765 19.0404 44.9118 19.1729 44.7353 19.3055C44.5588 19.438 44.5147 19.6147 44.5147 19.7914C44.5147 19.9681 44.6029 20.1448 44.7353 20.2332C44.8677 20.3215 45.0882 20.4099 45.353 20.4099C45.5735 20.4099 45.8382 20.3657 46.1471 20.2774C46.0588 20.4541 46.0147 20.7191 45.9265 21.0725C45.5735 21.1167 45.2647 21.1609 45 21.1609C44.3824 21.1609 43.9412 21.0284 43.6765 20.7633C43.5441 20.6308 43.4559 20.4982 43.3677 20.3215C43.2794 20.1448 43.2794 19.9681 43.2794 19.7472C43.2794 19.3055 43.5 18.9521 43.9412 18.6428C44.25 18.4219 44.8235 18.2452 45.6618 18.0685C46.1029 17.9802 46.4118 17.8918 46.5441 17.7593C46.6765 17.6268 46.7647 17.4942 46.7647 17.3617C46.7647 17.185 46.6765 17.0525 46.5441 16.9641C46.4118 16.8757 46.1912 16.8316 45.8824 16.8316C45.3088 16.8316 44.6471 16.9641 43.9412 17.2292Z" fill="black"/>
<path d="M55.2794 17.0525C55.0147 17.0083 54.7942 16.9642 54.5736 16.9642C53.9559 16.9642 53.4706 17.1409 53.1618 17.5385C53.0294 17.7152 52.9412 17.8919 52.853 18.1128C52.7647 18.3336 52.7206 18.5987 52.7206 18.8196C52.7206 19.173 52.8089 19.4822 52.9853 19.7473C53.2059 20.0123 53.5147 20.1449 53.8677 20.1449C54.353 20.1449 54.7059 19.924 54.9265 19.4822C55.0589 19.2613 55.1471 18.9963 55.1471 18.687C55.2353 18.422 55.2794 17.8919 55.2794 17.0525ZM56.4706 21.0284C56.2059 21.0284 56.0294 21.0284 55.853 21.0284C55.6765 21.0284 55.4559 21.0284 55.1912 21.0284L55.2353 20.1891C55.0147 20.4541 54.8383 20.675 54.6618 20.8075C54.353 21.0284 53.9559 21.1609 53.5147 21.1609C52.8971 21.1609 52.3677 20.9401 51.9706 20.5425C51.6177 20.1449 51.3971 19.6148 51.3971 18.9521C51.3971 18.3778 51.5294 17.8477 51.7942 17.3617C52.2794 16.5224 53.1177 16.0806 54.3089 16.0806C54.5736 16.0806 54.9265 16.1248 55.2794 16.169C55.3236 15.7272 55.3236 15.2854 55.3236 14.8437C55.3236 14.7995 55.3236 14.7111 55.3236 14.5786C55.6765 14.5786 55.8971 14.5786 56.0294 14.5786C56.1618 14.5786 56.3824 14.5786 56.6912 14.5786C56.603 15.5063 56.5589 16.6107 56.4706 17.8919C56.5147 19.1288 56.4706 20.1891 56.4706 21.0284Z" fill="black"/>
<path d="M58.8971 18.0246H61.1471C61.1471 17.8037 61.1471 17.627 61.103 17.4945C60.9706 17.0527 60.6618 16.8318 60.1765 16.8318C59.4706 16.876 59.0736 17.2294 58.8971 18.0246ZM61.9854 19.9242C61.9412 20.1009 61.8971 20.4543 61.8089 20.9402C61.1912 21.0728 60.6618 21.1169 60.2206 21.1169C59.603 21.1169 59.1177 21.0286 58.7206 20.8519C58.2795 20.631 57.9706 20.3218 57.7501 19.88C57.5736 19.5266 57.4854 19.129 57.4854 18.6872C57.4854 18.1129 57.6177 17.627 57.8824 17.1852C58.3236 16.4342 59.0736 16.0366 60.1324 16.0366C60.9265 16.0366 61.5442 16.2575 61.8971 16.6993C62.2059 17.0527 62.3824 17.5386 62.3824 18.0688C62.3824 18.2013 62.3824 18.378 62.3383 18.5547H58.853C58.853 18.643 58.853 18.7756 58.853 18.8198C58.853 19.2615 58.9854 19.5708 59.2501 19.8358C59.5148 20.1009 59.9118 20.2334 60.353 20.2334C60.7501 20.2334 61.3236 20.1451 61.9854 19.9242Z" fill="black"/>
<path d="M25.4117 36.3134L25.1912 36.7993C25.0147 36.6668 24.7059 36.5785 24.3088 36.5785C23.9117 36.5785 23.647 36.7552 23.3823 37.0644C23.1617 37.3736 23.0294 37.8154 23.0294 38.3455C23.0294 38.8315 23.1617 39.2291 23.3823 39.5383C23.6029 39.8475 23.9117 39.9801 24.3088 39.9801C24.7059 39.9801 25.0147 39.8475 25.2353 39.5383L25.5441 39.9801C25.1912 40.3335 24.75 40.466 24.2206 40.466C23.647 40.466 23.2059 40.2451 22.897 39.8475C22.5882 39.4499 22.4117 38.9198 22.4117 38.2572C22.4117 37.5945 22.5882 37.0644 22.9412 36.6668C23.2941 36.225 23.7353 36.0483 24.2647 36.0483C24.7941 36.0925 25.1912 36.1809 25.4117 36.3134Z" fill="black"/>
<path d="M26.6029 38.8757C26.6029 39.6709 26.8677 40.0685 27.4412 40.0685C27.7059 40.0685 27.9265 39.9802 28.0588 39.7593C28.1912 39.5384 28.2794 39.2733 28.2794 38.8757C28.2794 38.0806 28.0147 37.683 27.4412 37.683C27.1765 37.683 27 37.7713 26.8235 37.9922C26.6912 38.2573 26.6029 38.5223 26.6029 38.8757ZM26.0294 38.8757C26.0294 38.3898 26.1618 37.9922 26.4265 37.683C26.6912 37.3737 27.0441 37.2412 27.4412 37.2412C27.8824 37.2412 28.2353 37.3737 28.5 37.683C28.7647 37.9922 28.8529 38.3898 28.8529 38.8757C28.8529 39.3617 28.7206 39.7593 28.4559 40.0685C28.1912 40.3778 27.8382 40.5103 27.3971 40.5103C26.9559 40.5103 26.6029 40.3778 26.3382 40.0685C26.1618 39.8035 26.0294 39.4059 26.0294 38.8757Z" fill="black"/>
<path d="M31.3676 40.4661V38.6549C31.3676 38.3015 31.3235 38.0806 31.2352 37.9481C31.147 37.8155 30.9705 37.7714 30.7058 37.7714C30.5735 37.7714 30.4411 37.8155 30.3087 37.9039C30.1764 37.9922 30.0882 38.0806 29.9999 38.1689V40.5103H29.4264V37.3738H29.8235L29.9999 37.7714C30.1764 37.4621 30.4852 37.3296 30.8823 37.3296C31.5882 37.3296 31.897 37.7272 31.897 38.5665V40.5103" fill="black"/>
<path d="M32.5146 40.2894L32.7352 39.7593C33.0441 39.9802 33.3088 40.0685 33.4852 40.0685C33.8382 40.0685 34.0146 39.936 34.0146 39.6268C34.0146 39.4059 33.8382 39.2292 33.5294 39.0966C33.2646 38.9641 33.0882 38.8757 32.9999 38.8316C32.9117 38.7874 32.8235 38.699 32.7794 38.6107C32.6911 38.5223 32.647 38.434 32.647 38.3456C32.6029 38.2573 32.6029 38.1689 32.6029 38.0806C32.6029 37.8155 32.6911 37.6388 32.8676 37.4621C33.0441 37.3296 33.3088 37.2412 33.6176 37.2412C33.8382 37.2412 34.147 37.3296 34.4999 37.4621L34.2794 37.9922C34.0588 37.8155 33.8382 37.7272 33.6176 37.7272C33.4852 37.7272 33.397 37.7713 33.2647 37.8155C33.1764 37.8597 33.1323 37.948 33.1323 38.0364C33.1323 38.2573 33.2647 38.3898 33.4852 38.4782L33.8823 38.6549C34.1029 38.7874 34.3235 38.8757 34.4117 39.0525C34.5441 39.185 34.5882 39.3617 34.5882 39.5826C34.5882 39.8476 34.4999 40.0685 34.2794 40.2452C34.0588 40.4219 33.7941 40.4661 33.4411 40.4661C33.1323 40.5103 32.8235 40.4219 32.5146 40.2894Z" fill="black"/>
<path d="M36.4412 37.7269C36.1765 37.7269 36 37.8153 35.8235 37.9478C35.647 38.0803 35.5588 38.3012 35.5588 38.5221H37.2794C37.2794 38.3012 37.1912 38.1245 37.0588 37.9478C36.9265 37.8153 36.7059 37.7269 36.4412 37.7269ZM37.8088 38.9639H35.5588C35.5588 39.3173 35.647 39.6265 35.8676 39.8032C36.0441 39.9799 36.2647 40.0683 36.5294 40.0683C36.8382 40.0683 37.1029 39.9799 37.3235 39.8032L37.5441 40.2008C37.4559 40.2892 37.3235 40.3775 37.147 40.4217C36.9265 40.5101 36.6618 40.5542 36.397 40.5542C36 40.5542 35.6912 40.4217 35.3823 40.1566C35.0735 39.8474 34.9412 39.4498 34.9412 38.9639C34.9412 38.4337 35.1176 38.0362 35.4265 37.7269C35.6912 37.4619 36.0441 37.2852 36.4412 37.2852C36.8823 37.2852 37.2353 37.4177 37.5 37.6827C37.7647 37.9478 37.8529 38.257 37.8529 38.6546C37.8529 38.743 37.8088 38.8313 37.8088 38.9639Z" fill="black"/>
<path d="M39.2647 36.1367C39.3529 36.1367 39.4411 36.1809 39.5294 36.2251C39.6176 36.3134 39.6176 36.3576 39.6176 36.446C39.6176 36.5343 39.5735 36.6227 39.5294 36.711C39.4411 36.7994 39.397 36.7994 39.2647 36.7994C39.1764 36.7994 39.0882 36.7552 39.0441 36.711C38.9558 36.6227 38.9558 36.5785 38.9558 36.446C38.9558 36.3576 39 36.2692 39.0441 36.1809C39.0882 36.1367 39.1764 36.1367 39.2647 36.1367ZM38.0735 41.703V41.217C38.4705 41.217 38.7352 41.1729 38.8676 41.0403C39 40.9078 39.0882 40.7311 39.0882 40.466V37.8154H38.4705V37.3295H39.6617V40.466C39.6617 40.9078 39.5294 41.217 39.2647 41.4379C39 41.6146 38.6029 41.703 38.0735 41.703Z" fill="black"/>
<path d="M41.9117 37.7269C41.647 37.7269 41.4706 37.8153 41.2941 37.9478C41.1176 38.0803 41.0294 38.3012 41.0294 38.5221H42.7941C42.7941 38.3012 42.7059 38.1245 42.5735 37.9478C42.397 37.8153 42.1764 37.7269 41.9117 37.7269ZM43.2794 38.9639H41.0294C41.0294 39.3173 41.1176 39.6265 41.3382 39.8032C41.5147 39.9799 41.7353 40.0683 42.0441 40.0683C42.3529 40.0683 42.6176 39.9799 42.8382 39.8032L43.0588 40.2008C42.9706 40.2892 42.8382 40.3775 42.6617 40.4217C42.4412 40.5101 42.1764 40.5542 41.9117 40.5542C41.5147 40.5542 41.2059 40.4217 40.897 40.1566C40.5882 39.8474 40.4117 39.4498 40.4117 38.9639C40.4117 38.4337 40.5882 38.0362 40.897 37.7269C41.1617 37.4619 41.5147 37.2852 41.9117 37.2852C42.3529 37.2852 42.7059 37.4177 42.9706 37.6827C43.2353 37.9478 43.3235 38.257 43.3235 38.6546C43.3235 38.743 43.2794 38.8313 43.2794 38.9639Z" fill="black"/>
<path d="M45.6176 37.8597C45.4853 37.7713 45.397 37.7272 45.2647 37.7272C45.0441 37.7272 44.9118 37.8155 44.7353 37.9922C44.6029 38.1689 44.5147 38.3898 44.5147 38.6549V40.4661H43.9412V37.3296H44.5147V37.8155C44.7353 37.4621 45.0441 37.2412 45.4412 37.2412C45.5294 37.2412 45.6618 37.2412 45.8823 37.2854" fill="black"/>
<path d="M47.4265 35.6948L46.7647 36.6667H46.3677L46.853 35.6948M46.5 40.4659V37.7711H46.0588V37.2852H47.0735V40.4217H46.5V40.4659Z" fill="black"/>
<path d="M49.6765 38.9197C49.5 38.8755 49.3677 38.8755 49.3235 38.8755C49.0588 38.8755 48.7941 38.9639 48.6177 39.0964C48.4412 39.229 48.3529 39.4057 48.3529 39.6265C48.3529 39.9358 48.5735 40.1125 48.9265 40.1125C49.1912 40.1125 49.4559 39.98 49.6765 39.7149M49.7206 40.1125C49.5 40.3776 49.1471 40.5543 48.7059 40.5543C48.4412 40.5543 48.2206 40.4659 48.0441 40.2892C47.8677 40.1125 47.7794 39.8916 47.7794 39.6265C47.7794 39.3173 47.9118 39.0523 48.1765 38.8314C48.4412 38.6105 48.8382 38.5221 49.2353 38.5221C49.3677 38.5221 49.5 38.5663 49.6324 38.6105C49.6324 38.1245 49.4118 37.8595 48.9706 37.8595C48.6177 37.8595 48.3529 37.9478 48.1765 38.1245L47.9559 37.6828C48.0882 37.5944 48.2206 37.5061 48.3971 37.4619C48.5735 37.4177 48.75 37.3735 48.9265 37.3735C49.3677 37.3735 49.7206 37.4619 49.8971 37.6828C50.1177 37.9037 50.2059 38.2129 50.2059 38.6547V39.7591C50.2059 40.0241 50.2941 40.2008 50.4706 40.2892V40.5543C50.25 40.5543 50.0735 40.5101 49.9412 40.4659C49.8529 40.3776 49.7647 40.245 49.7206 40.1125Z" fill="black"/>
<path d="M54.8823 38.0363C54.75 37.8154 54.5294 37.7271 54.3088 37.7271C54 37.7271 53.7794 37.8596 53.6029 38.0805C53.4265 38.3014 53.3382 38.5664 53.3382 38.9198C53.3382 39.6708 53.6912 40.0684 54.3529 40.0684C54.4412 40.0684 54.5735 40.0242 54.6618 39.9801C54.7941 39.9359 54.8823 39.8475 54.8823 39.8034M54.8823 40.466V40.2451C54.7059 40.4218 54.3971 40.5102 54.0441 40.5102C53.6471 40.5102 53.3382 40.3777 53.0735 40.0684C52.8088 39.8034 52.7206 39.4058 52.7206 38.964C52.7206 38.4781 52.8529 38.0805 53.1618 37.7712C53.4265 37.4178 53.7794 37.2853 54.1765 37.2853C54.4853 37.2853 54.75 37.3736 54.9265 37.5062V36.0483H55.5V40.466H54.8823Z" fill="black"/>
<path d="M57.5294 37.7269C57.2647 37.7269 57.0882 37.8153 56.9118 37.9478C56.7353 38.0803 56.6471 38.3012 56.6471 38.5221H58.3677C58.3677 38.3012 58.2794 38.1245 58.1471 37.9478C58.0147 37.8153 57.7941 37.7269 57.5294 37.7269ZM58.8971 38.9639H56.6471C56.6471 39.3173 56.7353 39.6265 56.9559 39.8032C57.1324 39.9799 57.353 40.0683 57.6177 40.0683C57.9265 40.0683 58.1912 39.9799 58.4118 39.8032L58.6324 40.2008C58.5441 40.2892 58.4118 40.3775 58.2353 40.4217C58.0147 40.5101 57.75 40.5542 57.4853 40.5542C57.0882 40.5542 56.7353 40.4217 56.4706 40.1566C56.1618 39.8474 56.0294 39.4498 56.0294 38.9639C56.0294 38.4337 56.2059 38.0362 56.5147 37.7269C56.7794 37.4619 57.1324 37.2852 57.5294 37.2852C57.9706 37.2852 58.3235 37.4177 58.5882 37.6827C58.8088 37.9478 58.9412 38.257 58.9412 38.6546C58.9412 38.743 58.8971 38.8313 58.8971 38.9639Z" fill="black"/>
<path d="M61.9412 36.7108V37.9036H63.353V38.3895H61.9412V39.9357H63.8824V40.4658H61.3677V36.1807H63.8824V36.7108" fill="black"/>
<path d="M66.5294 38.0363C66.3971 37.8154 66.2206 37.7271 65.9559 37.7271C65.6471 37.7271 65.4265 37.8596 65.25 38.0805C65.0736 38.3014 64.9853 38.5664 64.9853 38.9198C64.9853 39.6708 65.3383 40.0684 66.0441 40.0684C66.1324 40.0684 66.2206 40.0242 66.353 39.9801C66.4853 39.9359 66.5736 39.8475 66.5736 39.8034M66.5294 40.466V40.2451C66.353 40.4218 66.0441 40.5102 65.6912 40.5102C65.2941 40.5102 64.9853 40.3777 64.7206 40.0684C64.5 39.8034 64.3677 39.4058 64.3677 38.964C64.3677 38.4781 64.5 38.0805 64.8089 37.7712C65.0736 37.4178 65.4265 37.2853 65.8236 37.2853C66.1324 37.2853 66.3971 37.3736 66.5736 37.5062V36.0483H67.1471V40.466H66.5294Z" fill="black"/>
<path d="M68.3824 37.3296V39.3175C68.3824 39.8035 68.603 40.0243 69 40.0243C69.1765 40.0243 69.353 39.9802 69.4853 39.8476C69.6618 39.7593 69.75 39.6268 69.7941 39.4942V37.2854H70.3677V40.4219H69.7941V39.9802C69.75 40.1127 69.6177 40.2011 69.3971 40.3336C69.2206 40.4219 69.0441 40.4661 68.8677 40.4661C68.5147 40.4661 68.25 40.3778 68.0735 40.1569C67.8971 39.9802 67.8088 39.6709 67.8088 39.3175V37.2412" fill="black"/>
<path d="M73.544 37.5946L73.2352 37.9922C73.1911 37.9481 73.0587 37.8597 72.9264 37.8155C72.794 37.7714 72.6617 37.7272 72.4852 37.7272C72.1764 37.7272 71.9558 37.8155 71.7793 38.0364C71.6029 38.2573 71.5146 38.5224 71.5146 38.92C71.5146 39.2734 71.6029 39.5826 71.7793 39.7593C71.9558 39.936 72.2205 40.0685 72.5293 40.0685C72.794 40.0685 73.0146 39.9802 73.2793 39.7593L73.4999 40.2453C73.1911 40.422 72.8382 40.5545 72.397 40.5545C71.9558 40.5545 71.6029 40.422 71.3381 40.1127C71.0734 39.8477 70.897 39.4501 70.897 38.9641C70.897 38.4782 71.0293 38.0806 71.3381 37.7714C71.647 37.4621 72.044 37.3296 72.5293 37.3296C72.7058 37.3296 72.8823 37.3738 73.0587 37.4179C73.3234 37.4179 73.4558 37.5063 73.544 37.5946Z" fill="black"/>
<path d="M75.8382 38.9197C75.6617 38.8755 75.5294 38.8755 75.4853 38.8755C75.2206 38.8755 74.9559 38.9639 74.7794 39.0964C74.6029 39.229 74.5147 39.4057 74.5147 39.6265C74.5147 39.9358 74.6912 40.1125 75.0882 40.1125C75.3529 40.1125 75.6176 39.98 75.8382 39.7149M75.8823 40.1125C75.6617 40.3776 75.3088 40.5543 74.8676 40.5543C74.647 40.5543 74.4265 40.4659 74.2059 40.2892C74.0294 40.1125 73.9412 39.8916 73.9412 39.6265C73.9412 39.3173 74.0735 39.0523 74.3382 38.8314C74.6029 38.6105 74.9559 38.5221 75.397 38.5221C75.5294 38.5221 75.6617 38.5663 75.7941 38.6105C75.7941 38.1245 75.5735 37.8595 75.1323 37.8595C74.7794 37.8595 74.5147 37.9478 74.3382 38.1245L74.1176 37.6828C74.2059 37.5944 74.3823 37.5061 74.5588 37.4619C74.7353 37.4177 74.9117 37.3735 75.0882 37.3735C75.5294 37.3735 75.8823 37.4619 76.1029 37.6828C76.3235 37.9037 76.4117 38.2129 76.4117 38.6547V39.7591C76.4117 40.0241 76.5 40.2008 76.6765 40.2892V40.5543C76.4559 40.5543 76.2794 40.5101 76.147 40.4659C76.0147 40.3776 75.9265 40.245 75.8823 40.1125Z" fill="black"/>
<path d="M79.6324 37.5946L79.3676 37.9922C79.3235 37.9481 79.1912 37.8597 79.0588 37.8155C78.9265 37.7714 78.7941 37.7272 78.6177 37.7272C78.3088 37.7272 78.0882 37.8155 77.9118 38.0364C77.7353 38.2573 77.6471 38.5224 77.6471 38.92C77.6471 39.2734 77.7353 39.5826 77.9118 39.7593C78.0882 39.936 78.3529 40.0685 78.6618 40.0685C78.9265 40.0685 79.1471 39.9802 79.4118 39.7593L79.6324 40.2453C79.3235 40.422 78.9706 40.5545 78.5294 40.5545C78.0882 40.5545 77.7353 40.422 77.4706 40.1127C77.2059 39.8477 77.0294 39.4501 77.0294 38.9641C77.0294 38.4782 77.1618 38.0806 77.4706 37.7714C77.7353 37.4621 78.1765 37.3296 78.6618 37.3296C78.8382 37.3296 79.0147 37.3738 79.1912 37.4179C79.4118 37.4179 79.5441 37.5063 79.6324 37.5946Z" fill="black"/>
<path d="M80.8235 36.1367C80.9117 36.1367 81 36.1809 81.0441 36.2251C81.1323 36.3134 81.1323 36.3576 81.1323 36.446C81.1323 36.5343 81.0882 36.6227 81.0441 36.711C81 36.7994 80.9117 36.7994 80.8235 36.7994C80.7352 36.7994 80.647 36.7552 80.6029 36.711C80.5147 36.6227 80.5147 36.5785 80.5147 36.446C80.5147 36.3576 80.5588 36.2692 80.6029 36.1809C80.647 36.1367 80.7352 36.1367 80.8235 36.1367ZM80.5147 40.466V37.7713H80.0735V37.2853H81.0441V40.4219H80.5147V40.466Z" fill="black"/>
<path d="M83.8235 35.6948L83.1618 36.6667H82.7647L83.25 35.6948M82.3235 38.8755C82.3235 39.6707 82.5882 40.0683 83.1618 40.0683C83.4265 40.0683 83.6029 39.98 83.7794 39.7591C83.9118 39.5382 84 39.2731 84 38.8755C84 38.0804 83.7353 37.6828 83.1618 37.6828C82.8971 37.6828 82.7206 37.7711 82.5441 37.992C82.4118 38.2571 82.3235 38.5221 82.3235 38.8755ZM81.75 38.8755C81.75 38.3896 81.8824 37.992 82.1471 37.6828C82.4118 37.3735 82.7647 37.241 83.1618 37.241C83.6029 37.241 83.9559 37.3735 84.2206 37.6828C84.4412 37.992 84.5735 38.3896 84.5735 38.8755C84.5735 39.3615 84.4412 39.7591 84.1765 40.0683C83.9118 40.3776 83.5588 40.5101 83.1176 40.5101C82.6765 40.5101 82.3235 40.3776 82.0588 40.0683C81.8824 39.8033 81.75 39.4057 81.75 38.8755Z" fill="black"/>
<path d="M87.0883 40.4661V38.6549C87.0883 38.3015 87.0442 38.0806 86.9118 37.9481C86.8236 37.8155 86.6471 37.7714 86.4265 37.7714C86.2942 37.7714 86.1618 37.8155 86.0294 37.9039C85.8971 37.9922 85.8089 38.0806 85.7206 38.1689V40.5103H85.1471V37.3738H85.5442L85.7206 37.7714C85.8971 37.4621 86.2059 37.3296 86.603 37.3296C87.2647 37.3296 87.6177 37.7272 87.6177 38.5665V40.5103" fill="black"/>
</svg>
