<?xml version="1.0" encoding="UTF-8"?>
<svg width="200px" height="54px" viewBox="0 0 200 54" version="1.1" xmlns="http://www.w3.org/2000/svg" xmlns:xlink="http://www.w3.org/1999/xlink">
    <title>Código Centro: 28077294</title>
    <defs>
        <polygon id="path-1" points="7.10542736e-15 0 199.7164 0 199.7164 13.39 7.10542736e-15 13.39"></polygon>
        <polygon id="path-3" points="0 70.57 200 70.57 200 0 0 0"></polygon>
    </defs>
    <g id="Código-Centro:-28077294" stroke="none" stroke-width="1" fill="none" fill-rule="evenodd">
        <g id="Group-44" transform="translate(0.000000, 0.000000)">
            <g id="Group-3" transform="translate(0.283600, 38.936900)">
                <mask id="mask-2" fill="white">
                    <use xlink:href="#path-1"></use>
                </mask>
                <g id="Clip-2"></g>
                <path d="M18.398,3.535 L18.398,5.999 C18.115,5.999 17.893,6.059 17.691,6.181 C17.489,6.322 17.307,6.504 17.186,6.746 C16.944,7.231 16.843,7.756 16.843,8.321 C16.863,10.018 17.388,10.866 18.398,10.846 L18.398,13.31 C16.984,13.31 15.813,12.906 14.904,12.077 C13.955,11.27 13.47,10.098 13.47,8.503 C13.49,6.888 13.935,5.656 14.843,4.787 C15.732,3.959 16.903,3.535 18.398,3.535 L18.398,3.535 Z M11.794,5.191 C11.471,1.778 9.492,0.041 5.877,0 C4.2,0.021 2.827,0.606 1.716,1.778 C0.585,2.949 0.02,4.585 7.10542736e-15,6.685 C0.06,11.068 2.14,13.309 6.24,13.39 C9.512,13.33 11.37,11.573 11.875,8.139 L8.199,8.139 C8.159,8.745 7.957,9.25 7.633,9.654 C7.331,10.058 6.866,10.28 6.24,10.28 C5.311,10.26 4.685,9.917 4.382,9.21 C4.22,8.867 4.099,8.503 4.039,8.099 C3.978,7.695 3.938,7.251 3.938,6.827 C3.958,4.363 4.685,3.131 6.099,3.111 C7.331,3.131 8.017,3.838 8.179,5.191 L11.794,5.191 Z M64.99,2.606 L68.363,2.606 L68.363,0.001 L64.99,0.001 L64.99,2.606 Z M64.969,13.067 L68.342,13.067 L68.342,3.797 L64.969,3.797 L64.969,13.067 Z M53.377,13.067 L56.75,13.067 L56.75,8.342 C56.75,7.736 56.851,7.271 57.053,6.928 C57.255,6.605 57.618,6.443 58.164,6.443 C58.669,6.463 59.012,6.625 59.194,6.948 C59.355,7.271 59.436,7.695 59.436,8.18 L59.436,13.088 L62.809,13.088 L62.809,7.534 C62.829,4.908 61.718,3.575 59.517,3.555 C58.265,3.575 57.275,4.141 56.548,5.272 L56.548,3.818 L53.377,3.818 L53.377,13.067 Z M51.419,3.797 L48.045,3.797 L48.045,8.261 C48.086,9.735 47.622,10.482 46.672,10.482 C46.248,10.502 45.925,10.361 45.703,10.118 C45.481,9.876 45.359,9.432 45.359,8.806 L45.359,3.797 L41.987,3.797 L41.987,9.432 C42.027,12.037 43.057,13.33 45.097,13.33 C45.804,13.33 46.39,13.209 46.874,12.987 C47.359,12.744 47.803,12.32 48.207,11.694 L48.207,13.067 L51.398,13.067 L51.398,3.797 L51.419,3.797 Z M24.84,13.067 L28.213,13.067 L28.213,8.483 C28.213,8.18 28.233,7.917 28.274,7.655 C28.314,7.412 28.375,7.19 28.456,7.029 C28.617,6.645 28.981,6.443 29.485,6.423 C29.97,6.423 30.294,6.564 30.475,6.847 C30.637,7.15 30.697,7.655 30.697,8.342 L30.697,13.067 L34.07,13.067 L34.07,8.483 C34.07,8.18 34.09,7.917 34.13,7.655 C34.171,7.412 34.231,7.19 34.313,7.029 C34.474,6.645 34.817,6.443 35.342,6.423 C35.827,6.423 36.15,6.564 36.352,6.847 C36.514,7.15 36.574,7.655 36.574,8.342 L36.574,13.067 L39.947,13.067 L39.947,7.594 C39.967,6.322 39.725,5.312 39.26,4.605 C38.796,3.919 37.927,3.555 36.695,3.535 C35.423,3.555 34.413,4.12 33.666,5.231 C33.484,4.726 33.161,4.323 32.697,3.999 C32.232,3.697 31.606,3.535 30.818,3.535 C30.192,3.555 29.647,3.737 29.122,4.08 C28.637,4.424 28.274,4.787 28.031,5.171 L28.031,3.797 L24.84,3.797 L24.84,13.067 Z M18.398,13.33 L18.398,10.866 C19.408,10.886 19.933,10.058 19.953,8.342 C19.953,7.635 19.812,7.069 19.549,6.625 C19.266,6.201 18.903,5.978 18.418,5.999 L18.378,5.999 L18.378,3.535 C21.589,3.616 23.245,5.231 23.306,8.342 C23.285,10.038 22.821,11.27 21.892,12.098 C21.003,12.906 19.812,13.33 18.398,13.33 L18.398,13.33 Z M75.189,3.676 L75.189,6.362 C74.603,6.383 74.199,6.605 73.977,7.069 C73.755,7.514 73.634,8.018 73.654,8.564 C73.654,8.806 73.674,9.048 73.714,9.291 C73.755,9.533 73.815,9.775 73.917,9.977 C74.018,10.18 74.179,10.341 74.361,10.462 C74.543,10.603 74.785,10.664 75.067,10.664 L75.189,10.664 L75.189,13.209 C74.906,13.289 74.603,13.33 74.26,13.33 C72.947,13.31 71.958,12.845 71.291,11.936 C70.625,11.048 70.301,9.937 70.301,8.604 C70.322,7.049 70.665,5.817 71.392,4.908 C72.079,3.999 72.947,3.535 74.018,3.535 C74.441,3.535 74.845,3.575 75.189,3.676 L75.189,3.676 Z M75.189,13.209 L75.189,10.684 C75.734,10.644 76.138,10.422 76.38,9.997 C76.603,9.574 76.724,9.089 76.724,8.523 C76.724,7.978 76.623,7.493 76.4,7.049 C76.178,6.605 75.754,6.383 75.189,6.383 L75.189,3.697 C75.27,3.717 75.371,3.757 75.451,3.797 C75.856,3.979 76.259,4.302 76.603,4.746 L76.603,0.364 L79.975,0.364 L79.975,13.088 L76.946,13.088 L76.946,11.856 C76.562,12.401 76.138,12.805 75.714,13.027 C75.573,13.088 75.391,13.148 75.189,13.209 L75.189,13.209 Z M86.418,7.311 L86.418,9.351 C86.276,9.391 86.115,9.432 85.974,9.472 C85.711,9.533 85.489,9.634 85.307,9.796 C85.125,9.957 85.024,10.18 85.024,10.482 C85.044,10.987 85.428,11.25 86.175,11.27 C86.256,11.27 86.337,11.27 86.398,11.25 L86.398,13.088 L86.377,13.088 C85.832,13.269 85.226,13.35 84.56,13.35 C83.752,13.35 83.045,13.128 82.46,12.663 C81.854,12.199 81.55,11.492 81.53,10.563 C81.53,10.038 81.631,9.594 81.813,9.25 C81.995,8.887 82.217,8.604 82.52,8.402 C82.823,8.18 83.166,7.998 83.53,7.897 C83.893,7.756 84.257,7.675 84.641,7.635 C85.044,7.574 85.448,7.514 85.812,7.473 C86.054,7.372 86.236,7.352 86.418,7.311 L86.418,7.311 Z M86.418,3.535 L86.418,5.756 C86.256,5.777 86.074,5.817 85.893,5.878 C85.65,5.978 85.489,6.241 85.428,6.625 L82.076,6.625 C82.055,5.635 82.439,4.868 83.166,4.323 C83.833,3.838 84.923,3.575 86.418,3.535 L86.418,3.535 Z M86.418,13.047 L86.418,11.209 C86.923,11.149 87.286,10.927 87.508,10.543 C87.751,10.118 87.852,9.574 87.791,8.927 C87.488,9.048 87.185,9.149 86.882,9.23 C86.721,9.25 86.559,9.291 86.418,9.331 L86.418,7.291 C86.559,7.271 86.701,7.251 86.842,7.21 C87.448,7.11 87.771,6.867 87.791,6.463 C87.771,6.14 87.65,5.918 87.367,5.837 C87.105,5.756 86.862,5.716 86.64,5.716 C86.559,5.716 86.479,5.716 86.398,5.736 L86.398,3.514 L86.781,3.514 C87.791,3.514 88.619,3.596 89.205,3.777 C89.791,3.979 90.214,4.242 90.497,4.585 C90.78,4.929 90.962,5.332 91.043,5.797 C91.103,6.261 91.124,6.786 91.124,7.352 L91.124,11.674 C91.124,11.936 91.144,12.139 91.204,12.32 C91.245,12.502 91.366,12.683 91.568,12.866 L91.568,13.047 L88.094,13.047 L87.933,12.057 C87.488,12.522 86.963,12.866 86.418,13.047 L86.418,13.047 Z M97.95,3.676 L97.95,6.362 C97.364,6.383 96.96,6.605 96.738,7.069 C96.516,7.514 96.395,8.018 96.415,8.564 C96.415,8.806 96.435,9.048 96.475,9.291 C96.516,9.533 96.576,9.775 96.677,9.977 C96.778,10.18 96.94,10.341 97.122,10.462 C97.303,10.603 97.546,10.664 97.829,10.664 L97.95,10.664 L97.95,13.209 C97.667,13.289 97.364,13.33 97.021,13.33 C95.708,13.31 94.718,12.845 94.052,11.936 C93.385,11.048 93.062,9.937 93.062,8.604 C93.083,7.049 93.426,5.817 94.153,4.908 C94.839,3.999 95.708,3.535 96.778,3.535 C97.182,3.535 97.586,3.575 97.95,3.676 L97.95,3.676 Z M97.95,13.209 L97.95,10.684 C98.495,10.644 98.899,10.422 99.141,9.997 C99.363,9.574 99.484,9.089 99.484,8.523 C99.484,7.978 99.383,7.493 99.161,7.049 C98.939,6.605 98.515,6.383 97.95,6.383 L97.95,3.697 C98.051,3.717 98.131,3.757 98.212,3.797 C98.616,3.979 99.02,4.302 99.363,4.746 L99.363,0.364 L102.736,0.364 L102.736,13.088 L99.707,13.088 L99.707,11.856 C99.323,12.401 98.899,12.805 98.475,13.027 C98.313,13.088 98.131,13.148 97.95,13.209 L97.95,13.209 Z M114.651,3.676 L114.651,6.362 C114.065,6.383 113.662,6.605 113.44,7.069 C113.218,7.514 113.097,8.018 113.117,8.564 C113.117,8.806 113.137,9.048 113.178,9.291 C113.218,9.533 113.278,9.775 113.379,9.977 C113.481,10.18 113.642,10.341 113.823,10.462 C114.005,10.603 114.248,10.664 114.53,10.664 L114.651,10.664 L114.651,13.209 C114.369,13.289 114.065,13.33 113.723,13.33 C112.41,13.31 111.42,12.845 110.754,11.936 C110.087,11.048 109.765,9.937 109.765,8.604 C109.784,7.049 110.128,5.817 110.855,4.908 C111.541,3.999 112.41,3.535 113.481,3.535 C113.904,3.535 114.309,3.575 114.651,3.676 L114.651,3.676 Z M114.651,13.209 L114.651,10.684 C115.197,10.644 115.601,10.422 115.843,9.997 C116.065,9.574 116.187,9.089 116.187,8.523 C116.187,7.978 116.086,7.493 115.863,7.049 C115.642,6.605 115.217,6.383 114.651,6.383 L114.651,3.697 C114.732,3.717 114.833,3.757 114.914,3.797 C115.318,3.979 115.722,4.302 116.065,4.746 L116.065,0.364 L119.439,0.364 L119.439,13.088 L116.408,13.088 L116.408,11.856 C116.025,12.401 115.601,12.805 115.177,13.027 C115.035,13.088 114.854,13.148 114.651,13.209 L114.651,13.209 Z M126.123,3.535 L126.123,5.777 C125.032,5.817 124.487,6.362 124.487,7.392 L126.123,7.392 L126.123,9.25 L124.467,9.25 C124.467,9.796 124.648,10.24 124.992,10.543 C125.295,10.866 125.679,11.048 126.103,11.068 L126.103,13.31 L126.042,13.31 C124.628,13.289 123.457,12.886 122.548,12.057 C121.599,11.229 121.114,10.038 121.094,8.483 C121.114,6.928 121.579,5.716 122.528,4.847 C123.437,3.959 124.588,3.514 126.022,3.494 L126.123,3.535 Z M141.714,13.067 L141.714,8.745 L141.634,6.766 L141.451,4.888 L141.492,4.888 L143.633,13.047 L146.299,13.047 L148.419,4.888 L148.46,4.888 L148.258,7.19 L148.217,9.169 L148.217,13.067 L151.65,13.067 L151.65,0.344 L147.046,0.344 L144.985,8.281 L142.926,0.344 L138.301,0.344 L138.301,13.067 L141.714,13.067 Z M126.123,9.27 L126.123,7.412 L127.759,7.412 C127.738,6.968 127.597,6.584 127.294,6.282 C126.991,5.978 126.628,5.817 126.163,5.797 L126.123,5.797 L126.123,3.555 C127.698,3.575 128.93,4.12 129.818,5.151 C130.707,6.201 131.151,7.574 131.111,9.291 L126.123,9.291 L126.123,9.27 Z M126.123,13.33 L126.123,11.088 L126.204,11.088 C126.507,11.088 126.77,11.007 126.991,10.866 C127.214,10.724 127.396,10.523 127.517,10.26 L130.849,10.26 C130.505,11.391 129.899,12.179 128.99,12.643 C128.103,13.088 127.133,13.31 126.123,13.33 L126.123,13.33 Z M158.598,7.311 L158.598,9.351 C158.456,9.391 158.295,9.432 158.153,9.472 C157.891,9.533 157.669,9.634 157.487,9.796 C157.306,9.957 157.204,10.18 157.204,10.482 C157.225,10.987 157.608,11.25 158.356,11.27 C158.437,11.27 158.517,11.27 158.578,11.25 L158.578,13.088 L158.558,13.088 C158.012,13.269 157.406,13.35 156.74,13.35 C155.932,13.35 155.226,13.128 154.64,12.663 C154.033,12.199 153.731,11.492 153.711,10.563 C153.711,10.038 153.812,9.594 153.993,9.25 C154.175,8.887 154.398,8.604 154.7,8.402 C155.003,8.18 155.347,7.998 155.71,7.897 C156.073,7.756 156.437,7.675 156.82,7.635 C157.225,7.574 157.629,7.514 157.992,7.473 C158.234,7.372 158.416,7.352 158.598,7.311 L158.598,7.311 Z M158.598,3.535 L158.598,5.756 C158.437,5.777 158.255,5.817 158.073,5.878 C157.83,5.978 157.669,6.241 157.608,6.625 L154.256,6.625 C154.235,5.635 154.619,4.868 155.347,4.323 C156.033,3.838 157.104,3.575 158.598,3.535 L158.598,3.535 Z M158.598,13.047 L158.598,11.209 C159.103,11.149 159.466,10.927 159.689,10.543 C159.931,10.118 160.032,9.574 159.972,8.927 C159.668,9.048 159.365,9.149 159.063,9.23 C158.9,9.25 158.739,9.291 158.598,9.331 L158.598,7.291 C158.739,7.271 158.881,7.251 159.023,7.21 C159.628,7.11 159.951,6.867 159.972,6.463 C159.951,6.14 159.83,5.918 159.547,5.837 C159.284,5.756 159.042,5.716 158.82,5.716 C158.739,5.716 158.658,5.716 158.578,5.736 L158.578,3.514 L158.961,3.514 C159.972,3.514 160.799,3.596 161.385,3.777 C161.971,3.979 162.395,4.242 162.678,4.585 C162.96,4.929 163.142,5.332 163.223,5.797 C163.283,6.261 163.304,6.786 163.304,7.352 L163.304,11.674 C163.304,11.936 163.324,12.139 163.385,12.32 C163.425,12.502 163.546,12.683 163.748,12.866 L163.748,13.047 L160.274,13.047 L160.112,12.057 C159.668,12.522 159.144,12.866 158.598,13.047 L158.598,13.047 Z M170.13,3.676 L170.13,6.362 C169.544,6.383 169.14,6.605 168.918,7.069 C168.696,7.514 168.574,8.018 168.595,8.564 C168.595,8.806 168.615,9.048 168.655,9.291 C168.696,9.533 168.757,9.775 168.857,9.977 C168.958,10.18 169.12,10.341 169.302,10.462 C169.483,10.603 169.726,10.664 170.009,10.664 L170.13,10.664 L170.13,13.209 C169.847,13.289 169.544,13.33 169.201,13.33 C167.888,13.31 166.898,12.845 166.231,11.936 C165.565,11.048 165.242,9.937 165.242,8.604 C165.263,7.049 165.606,5.817 166.333,4.908 C167.02,3.999 167.888,3.535 168.958,3.535 C169.383,3.535 169.767,3.575 170.13,3.676 L170.13,3.676 Z M184.711,2.606 L188.084,2.606 L188.084,0.001 L184.711,0.001 L184.711,2.606 Z M184.711,13.067 L188.084,13.067 L188.084,3.797 L184.711,3.797 L184.711,13.067 Z M176.916,13.067 L180.288,13.067 L180.288,9.856 C180.288,8.867 180.47,8.16 180.834,7.756 C181.177,7.352 181.702,7.15 182.368,7.15 C182.61,7.17 182.833,7.19 183.055,7.251 L183.055,3.575 C182.914,3.555 182.773,3.535 182.61,3.514 C181.339,3.514 180.47,4.222 180.006,5.656 L179.965,5.656 L179.965,3.797 L176.896,3.797 L176.896,13.067 L176.916,13.067 Z M170.13,13.209 L170.13,10.684 C170.675,10.644 171.079,10.422 171.321,9.997 C171.543,9.574 171.665,9.089 171.665,8.523 C171.665,7.978 171.564,7.493 171.342,7.049 C171.119,6.605 170.695,6.383 170.13,6.383 L170.13,3.697 C170.231,3.717 170.312,3.757 170.393,3.797 C170.796,3.979 171.2,4.302 171.543,4.746 L171.543,0.364 L174.916,0.364 L174.916,13.088 L171.887,13.088 L171.887,11.856 C171.503,12.401 171.079,12.805 170.655,13.027 C170.493,13.088 170.312,13.148 170.13,13.209 L170.13,13.209 Z M194.931,3.676 L194.931,6.362 C194.345,6.383 193.94,6.605 193.719,7.069 C193.496,7.514 193.375,8.018 193.396,8.564 C193.396,8.806 193.416,9.048 193.456,9.291 C193.496,9.533 193.557,9.775 193.658,9.977 C193.759,10.18 193.921,10.341 194.103,10.462 C194.284,10.603 194.526,10.664 194.81,10.664 L194.931,10.664 L194.931,13.209 C194.648,13.289 194.345,13.33 194.001,13.33 C192.689,13.31 191.699,12.845 191.032,11.936 C190.366,11.048 190.043,9.937 190.043,8.604 C190.064,7.049 190.406,5.817 191.134,4.908 C191.82,3.999 192.689,3.535 193.759,3.535 C194.183,3.535 194.566,3.575 194.931,3.676 L194.931,3.676 Z M194.931,13.209 L194.931,10.684 C195.476,10.644 195.88,10.422 196.122,9.997 C196.344,9.574 196.465,9.089 196.465,8.523 C196.465,7.978 196.364,7.493 196.142,7.049 C195.92,6.605 195.496,6.383 194.931,6.383 L194.931,3.697 C195.011,3.717 195.112,3.757 195.192,3.797 C195.597,3.979 196.001,4.302 196.344,4.746 L196.344,0.364 L199.717,0.364 L199.717,13.088 L196.688,13.088 L196.688,11.856 C196.304,12.401 195.88,12.805 195.455,13.027 C195.294,13.088 195.112,13.148 194.931,13.209 L194.931,13.209 Z" id="Fill-1" fill="#1E1B18" mask="url(#mask-2)"></path>
            </g>
            <mask id="mask-4" fill="white">
                <use xlink:href="#path-3"></use>
            </mask>
            <g id="Clip-5"></g>
            <polygon id="Fill-4" fill="#1E1B18" mask="url(#mask-4)" points="0 32.152 32.152 32.152 32.152 0 0 0"></polygon>
            <polygon id="Fill-6" fill="#FFFFFF" mask="url(#mask-4)" points="5.9985 10.8044 5.3925 12.8244 3.2115 12.9054 4.9885 14.1374 4.3625 16.0964 5.9985 14.8444 7.7155 16.0964 7.0895 14.0764 8.8055 12.8244 6.7055 12.8244"></polygon>
            <polygon id="Fill-7" fill="#FFFFFF" mask="url(#mask-4)" points="12.7842 10.8044 12.0772 12.8244 9.9772 12.9054 11.6942 14.1374 11.0682 16.0964 12.7842 14.8444 14.5012 16.0964 13.7942 14.0764 15.5112 12.8244 13.4102 12.8244"></polygon>
            <polygon id="Fill-8" fill="#FFFFFF" mask="url(#mask-4)" points="19.5498 10.8044 18.8428 12.8244 16.7428 12.9054 18.4598 14.1374 17.8338 16.0964 19.5498 14.8444 21.2668 16.0964 20.5598 14.0764 22.2768 12.8244 20.1758 12.8244"></polygon>
            <polygon id="Fill-9" fill="#FFFFFF" mask="url(#mask-4)" points="16.1167 15.4699 15.5107 17.4899 13.3297 17.4899 15.0467 18.7209 14.4207 20.7409 16.1167 19.5089 17.8337 20.7409 17.2077 18.7209 18.8437 17.4899 16.7427 17.4899"></polygon>
            <polygon id="Fill-10" fill="#FFFFFF" mask="url(#mask-4)" points="9.3511 15.4699 8.7251 17.4899 6.5441 17.4899 8.3411 18.7209 7.7151 20.7409 9.3511 19.5089 11.0681 20.7409 10.4421 18.7209 12.1581 17.4899 10.0581 17.4899"></polygon>
            <polygon id="Fill-11" fill="#FFFFFF" mask="url(#mask-4)" points="22.9023 15.4699 22.2763 17.4899 20.0953 17.4899 21.8123 18.7209 21.1863 20.7409 22.9023 19.5089 24.6193 20.7409 23.9123 18.7209 25.6293 17.4899 23.5283 17.4899"></polygon>
            <polygon id="Fill-12" fill="#FFFFFF" mask="url(#mask-4)" points="26.2549 10.8044 25.6289 12.8244 23.5289 12.9054 25.2249 14.1374 24.6189 16.0964 26.2549 14.8444 27.9519 16.0964 27.3459 14.0764 29.0419 12.8244 26.9419 12.8244"></polygon>
            <path d="M136.8677,32.4343 L136.8677,31.6663 C137.0907,31.6663 137.3117,31.6263 137.4737,31.5453 C137.6557,31.4653 137.7977,31.3643 137.9377,31.2433 C138.0597,31.1013 138.1807,30.9603 138.2617,30.7783 C138.3427,30.5963 138.4027,30.4143 138.4427,30.2123 C138.4837,30.0113 138.5037,29.8093 138.5037,29.6073 C138.5037,29.4053 138.4837,29.2033 138.4427,29.0013 C138.4027,28.7993 138.3427,28.6173 138.2617,28.4353 C138.1807,28.2533 138.0797,28.1123 137.9377,27.9713 C137.8167,27.8303 137.6557,27.7283 137.4737,27.6683 C137.2927,27.5873 137.0907,27.5473 136.8677,27.5473 L136.8677,26.7793 C137.1907,26.7793 137.4937,26.8203 137.7567,26.9213 C138.0187,27.0213 138.2617,27.1433 138.4637,27.3253 C138.6657,27.5063 138.8467,27.7083 138.9887,27.9313 C139.1307,28.1733 139.2517,28.4153 139.3117,28.6983 C139.3917,28.9803 139.4327,29.2843 139.4327,29.5863 C139.4327,29.8903 139.3917,30.1923 139.3117,30.4753 C139.2307,30.7583 139.1307,31.0203 138.9887,31.2433 C138.8467,31.4853 138.6657,31.6873 138.4637,31.8493 C138.2617,32.0303 138.0187,32.1513 137.7567,32.2523 C137.4937,32.3733 137.1907,32.4343 136.8677,32.4343" id="Fill-13" fill="#1E1B18" mask="url(#mask-4)"></path>
            <polygon id="Fill-14" fill="#1E1B18" mask="url(#mask-4)" points="136.8677 26.4968 136.8677 25.5878 136.9887 25.4058 137.9987 25.4058 136.9287 26.4968"></polygon>
            <polygon id="Fill-15" fill="#1E1B18" mask="url(#mask-4)" points="140.2808 32.3132 141.1698 32.3132 141.1698 28.3342 141.2108 28.3342 143.6538 32.3132 144.6428 32.3132 144.6428 26.9212 143.7548 26.9212 143.7548 30.8792 143.7348 30.8792 141.2708 26.9212 140.2808 26.9212"></polygon>
            <polygon id="Fill-16" fill="#1E1B18" mask="url(#mask-4)" points="136.8677 25.5881 136.8677 26.4971 136.3027 26.4971"></polygon>
            <path d="M136.8677,26.7795 L136.8677,27.5475 C136.6457,27.5475 136.4237,27.5875 136.2627,27.6685 C136.0807,27.7485 135.9387,27.8495 135.7977,27.9705 C135.6767,28.1125 135.5557,28.2535 135.4737,28.4355 C135.3937,28.6175 135.3337,28.7995 135.2927,29.0015 C135.2527,29.2025 135.2317,29.4045 135.2317,29.6075 C135.2317,29.8085 135.2527,30.0105 135.2927,30.2125 C135.3337,30.4145 135.3937,30.5965 135.4737,30.7785 C135.5557,30.9605 135.6567,31.1015 135.7977,31.2425 C135.9187,31.3835 136.0807,31.4855 136.2627,31.5455 C136.4437,31.6265 136.6457,31.6665 136.8677,31.6665 L136.8677,32.4345 C136.5447,32.4345 136.2417,32.3935 135.9787,32.2935 C135.7177,32.1925 135.4737,32.0715 135.2527,31.8885 C135.0507,31.7075 134.8687,31.5055 134.7267,31.2835 C134.5857,31.0405 134.4647,30.7985 134.4037,30.5155 C134.3237,30.2335 134.2827,29.9505 134.2827,29.6275 C134.2827,29.3245 134.3237,29.0215 134.4037,28.7385 C134.4847,28.4555 134.5857,28.1935 134.7267,27.9705 C134.8687,27.7285 135.0507,27.5265 135.2527,27.3655 C135.4547,27.1835 135.6967,27.0625 135.9787,26.9615 C136.2627,26.8405 136.5447,26.7795 136.8677,26.7795" id="Fill-17" fill="#1E1B18" mask="url(#mask-4)"></path>
            <polygon id="Fill-18" fill="#1E1B18" mask="url(#mask-4)" points="123.9224 30.8791 123.9224 30.1521 124.7504 30.1521 123.9434 27.8501 123.9224 27.8501 123.9224 26.9211 124.4474 26.9211 126.5274 32.3131 125.5184 32.3131 125.0134 30.8791"></polygon>
            <path d="M131.6167,28.6374 C131.5967,28.3544 131.5157,28.0924 131.3747,27.8704 C131.2537,27.6484 131.0927,27.4464 130.8697,27.2844 C130.6677,27.1224 130.4257,27.0014 130.1627,26.9214 C129.9007,26.8404 129.6177,26.7994 129.3147,26.7994 C128.9917,26.7994 128.6887,26.8404 128.4267,26.9414 C128.1637,27.0424 127.9217,27.1634 127.6987,27.3454 C127.4977,27.5264 127.3147,27.7284 127.1747,27.9504 C127.0327,28.1934 126.9117,28.4354 126.8507,28.7184 C126.7697,29.0014 126.7297,29.3044 126.7297,29.6074 C126.7297,29.9094 126.7697,30.2124 126.8507,30.4954 C126.9317,30.7784 127.0327,31.0404 127.1747,31.2624 C127.3147,31.5054 127.4977,31.7074 127.6987,31.8684 C127.9007,32.0504 128.1427,32.1714 128.4267,32.2724 C128.6887,32.3734 128.9917,32.4144 129.3147,32.4144 C129.6377,32.4144 129.9407,32.3534 130.2227,32.2524 C130.4857,32.1514 130.7277,31.9904 130.9297,31.8084 C131.1327,31.6064 131.2947,31.3844 131.4157,31.1214 C131.5367,30.8594 131.5967,30.5564 131.6167,30.2334 L130.6877,30.2334 C130.6677,30.4344 130.6277,30.6164 130.5667,30.7784 C130.5067,30.9394 130.4057,31.1014 130.2837,31.2224 C130.1627,31.3444 130.0217,31.4444 129.8597,31.5254 C129.6987,31.6064 129.5167,31.6264 129.2947,31.6264 C129.0727,31.6264 128.8497,31.5864 128.6887,31.5054 C128.5077,31.4244 128.3657,31.3234 128.2237,31.2024 C128.1027,31.0614 127.9817,30.9194 127.9007,30.7384 C127.8197,30.5564 127.7597,30.3744 127.7197,30.1724 C127.6787,29.9704 127.6587,29.7684 127.6587,29.5664 C127.6587,29.3644 127.6787,29.1624 127.7197,28.9604 C127.7597,28.7584 127.8197,28.5764 127.9007,28.3954 C127.9817,28.2134 128.0827,28.0724 128.2237,27.9304 C128.3457,27.7894 128.5077,27.6884 128.6887,27.6274 C128.8707,27.5474 129.0727,27.5064 129.2947,27.5064 C129.5567,27.5064 129.7787,27.5474 129.9617,27.6484 C130.1427,27.7484 130.2837,27.8704 130.4057,28.0314 C130.5067,28.1934 130.6067,28.3754 130.6477,28.5764 L131.6167,28.5764 L131.6167,28.6374 Z" id="Fill-19" fill="#1E1B18" mask="url(#mask-4)"></path>
            <polygon id="Fill-20" fill="#1E1B18" mask="url(#mask-4)" points="132.486 32.313 133.435 32.313 133.435 26.921 132.486 26.921"></polygon>
            <polygon id="Fill-21" fill="#1E1B18" mask="url(#mask-4)" points="123.9224 26.9211 123.9224 27.8501 123.1144 30.1521 123.9224 30.1521 123.9224 30.8791 122.8524 30.8791 122.3474 32.3131 121.3774 32.3131 123.4384 26.9211"></polygon>
            <path d="M107.9673,32.2931 L107.9673,31.5051 C108.0883,31.4851 108.1903,31.4651 108.2903,31.4441 C108.4923,31.3841 108.6743,31.2831 108.8163,31.1821 C108.9573,31.0611 109.0583,30.9191 109.1393,30.7581 C109.2203,30.5961 109.2603,30.4151 109.3003,30.2331 C109.3213,30.0311 109.3413,29.8291 109.3413,29.6271 C109.3413,29.4051 109.3213,29.2031 109.3003,29.0211 C109.2603,28.8191 109.2203,28.6581 109.1393,28.4961 C109.0583,28.3351 108.9573,28.1931 108.8163,28.0721 C108.6743,27.9511 108.5133,27.8701 108.2903,27.8091 C108.1903,27.7891 108.0883,27.7491 107.9673,27.7491 L107.9673,26.9611 C108.2713,26.9611 108.5323,27.0221 108.7763,27.1031 C109.0373,27.1831 109.2603,27.3251 109.4423,27.4861 C109.6233,27.6481 109.7853,27.8501 109.9063,28.0721 C110.0283,28.2941 110.1093,28.5361 110.1693,28.8191 C110.2303,29.0821 110.2493,29.3641 110.2493,29.6681 C110.2493,29.9701 110.2303,30.2531 110.1693,30.5161 C110.1093,30.7781 110.0283,31.0211 109.9063,31.2631 C109.7853,31.4851 109.6233,31.6871 109.4423,31.8491 C109.2603,32.0101 109.0373,32.1511 108.7763,32.2321 C108.5323,32.2521 108.2713,32.2931 107.9673,32.2931" id="Fill-22" fill="#1E1B18" mask="url(#mask-4)"></path>
            <path d="M111.0376,30.3742 C111.0376,30.7172 111.0986,31.0202 111.1986,31.2832 C111.3006,31.5452 111.4616,31.7482 111.6426,31.9292 C111.8456,32.1112 112.0676,32.2322 112.3496,32.3132 C112.6126,32.3942 112.9156,32.4342 113.2596,32.4342 C113.6016,32.4342 113.8856,32.3942 114.1676,32.3132 C114.4306,32.2322 114.6726,32.0912 114.8746,31.9292 C115.0766,31.7482 115.2186,31.5452 115.3186,31.2832 C115.4206,31.0202 115.4806,30.7172 115.4806,30.3742 L115.4806,26.9212 L114.5316,26.9212 L114.5316,30.0512 C114.5316,30.1922 114.5316,30.3542 114.5116,30.4952 C114.4906,30.6372 114.4716,30.7782 114.4306,30.9192 C114.3906,31.0612 114.3296,31.1822 114.2276,31.2832 C114.1476,31.3842 114.0066,31.4652 113.8446,31.5252 C113.6836,31.5862 113.4806,31.6262 113.2386,31.6262 C112.9966,31.6262 112.7946,31.5862 112.6336,31.5252 C112.4716,31.4652 112.3496,31.3842 112.2496,31.2832 C112.1686,31.1822 112.0876,31.0612 112.0476,30.9192 C112.0076,30.7782 111.9866,30.6372 111.9666,30.4952 C111.9666,30.3542 111.9456,30.1922 111.9456,30.0512 L111.9456,26.9212 L110.9966,26.9212 L110.9966,30.3742 L111.0376,30.3742 Z" id="Fill-23" fill="#1E1B18" mask="url(#mask-4)"></path>
            <path d="M121.1353,28.6374 C121.0953,28.3544 121.0343,28.0924 120.8933,27.8704 C120.7723,27.6484 120.6103,27.4464 120.3883,27.2844 C120.1863,27.1224 119.9443,27.0014 119.6813,26.9214 C119.4183,26.8404 119.1363,26.7994 118.8333,26.7994 C118.5103,26.7994 118.2063,26.8404 117.9453,26.9414 C117.6823,27.0424 117.4403,27.1634 117.2173,27.3454 C117.0153,27.5264 116.8333,27.7284 116.6923,27.9504 C116.5513,28.1934 116.4303,28.4354 116.3693,28.7184 C116.2883,29.0014 116.2473,29.3044 116.2473,29.6074 C116.2473,29.9094 116.2883,30.2124 116.3693,30.4954 C116.4493,30.7784 116.5513,31.0404 116.6923,31.2624 C116.8333,31.5054 117.0153,31.7074 117.2173,31.8684 C117.4193,32.0504 117.6613,32.1714 117.9453,32.2724 C118.2063,32.3734 118.5103,32.4144 118.8333,32.4144 C119.1563,32.4144 119.4593,32.3534 119.7413,32.2524 C120.0043,32.1514 120.2463,31.9904 120.4483,31.8084 C120.6513,31.6064 120.8123,31.3844 120.9333,31.1214 C121.0543,30.8594 121.1143,30.5564 121.1353,30.2334 L120.2063,30.2334 C120.1863,30.4344 120.1463,30.6164 120.0853,30.7784 C120.0253,30.9394 119.9233,31.1014 119.8023,31.2224 C119.6813,31.3444 119.5393,31.4444 119.3783,31.5254 C119.2173,31.6064 119.0343,31.6264 118.8133,31.6264 C118.5903,31.6264 118.3683,31.5864 118.2063,31.5054 C118.0253,31.4244 117.8843,31.3234 117.7423,31.2024 C117.6213,31.0614 117.5003,30.9194 117.4193,30.7384 C117.3383,30.5564 117.2783,30.3744 117.2383,30.1724 C117.1973,29.9704 117.1773,29.7684 117.1773,29.5664 C117.1773,29.3644 117.1973,29.1624 117.2383,28.9604 C117.2783,28.7584 117.3383,28.5764 117.4193,28.3954 C117.5003,28.2134 117.6013,28.0724 117.7423,27.9304 C117.8643,27.7894 118.0253,27.6884 118.2063,27.6274 C118.3893,27.5474 118.5903,27.5064 118.8133,27.5064 C119.0753,27.5064 119.2973,27.5474 119.4793,27.6484 C119.6603,27.7484 119.8023,27.8704 119.9233,28.0314 C120.0253,28.1934 120.1253,28.3754 120.1663,28.5764 L121.1353,28.5764 L121.1353,28.6374 Z" id="Fill-24" fill="#1E1B18" mask="url(#mask-4)"></path>
            <path d="M107.9673,26.9211 L107.9673,27.7091 C107.8263,27.6881 107.6853,27.6881 107.5433,27.6881 L106.6143,27.6881 L106.6143,31.5461 L107.5433,31.5461 C107.7053,31.5461 107.8463,31.5461 107.9673,31.5251 L107.9673,32.3131 L107.8873,32.3131 L105.6453,32.3131 L105.6453,26.9211 L107.8873,26.9211 L107.9673,26.9211 Z" id="Fill-25" fill="#1E1B18" mask="url(#mask-4)"></path>
            <polygon id="Fill-26" fill="#1E1B18" mask="url(#mask-4)" points="100.8989 32.3132 104.8369 32.3132 104.8369 31.4852 101.8479 31.4852 101.8479 29.9102 104.5539 29.9102 104.5539 29.1422 101.8479 29.1422 101.8479 27.7292 104.7769 27.7292 104.7769 26.9212 100.8989 26.9212"></polygon>
            <path d="M90.9023,32.2931 L90.9023,31.5051 C91.0233,31.4851 91.1243,31.4651 91.2253,31.4441 C91.4273,31.3841 91.6093,31.2831 91.7503,31.1821 C91.8913,31.0611 91.9923,30.9191 92.0733,30.7581 C92.1543,30.5961 92.1943,30.4151 92.2353,30.2331 C92.2553,30.0311 92.2753,29.8291 92.2753,29.6271 C92.2753,29.4051 92.2553,29.2031 92.2353,29.0211 C92.1943,28.8191 92.1543,28.6581 92.0733,28.4961 C91.9923,28.3351 91.8913,28.1931 91.7503,28.0721 C91.6093,27.9511 91.4473,27.8701 91.2253,27.8091 C91.1243,27.7891 91.0233,27.7491 90.9023,27.7491 L90.9023,26.9611 C91.2053,26.9611 91.4673,27.0221 91.7103,27.1031 C91.9723,27.1831 92.1943,27.3251 92.3763,27.4861 C92.5583,27.6481 92.7193,27.8501 92.8403,28.0721 C92.9623,28.2941 93.0433,28.5361 93.1033,28.8191 C93.1643,29.0821 93.1843,29.3641 93.1843,29.6681 C93.1843,29.9701 93.1643,30.2531 93.1033,30.5161 C93.0433,30.7781 92.9623,31.0211 92.8403,31.2631 C92.7193,31.4851 92.5583,31.6871 92.3763,31.8491 C92.1943,32.0101 91.9723,32.1511 91.7103,32.2321 C91.4673,32.2521 91.2053,32.2931 90.9023,32.2931" id="Fill-27" fill="#1E1B18" mask="url(#mask-4)"></path>
            <polygon id="Fill-28" fill="#1E1B18" mask="url(#mask-4)" points="94.0527 32.3132 97.9707 32.3132 97.9707 31.4852 94.9817 31.4852 94.9817 29.9102 97.7077 29.9102 97.7077 29.1422 94.9817 29.1422 94.9817 27.7292 97.9297 27.7292 97.9297 26.9212 94.0527 26.9212"></polygon>
            <path d="M90.9023,26.9211 L90.9023,27.7091 C90.7603,27.6881 90.6193,27.6881 90.4783,27.6881 L89.5483,27.6881 L89.5483,31.5461 L90.4783,31.5461 C90.6393,31.5461 90.7803,31.5461 90.9023,31.5251 L90.9023,32.3131 L90.8213,32.3131 L88.5993,32.3131 L88.5993,26.9211 L90.8213,26.9211 L90.9023,26.9211 Z" id="Fill-29" fill="#1E1B18" mask="url(#mask-4)"></path>
            <polygon id="Fill-30" fill="#1E1B18" mask="url(#mask-4)" points="83.3892 30.8791 83.3892 30.1521 84.2172 30.1521 83.4102 27.8501 83.3892 27.8501 83.3892 26.9211 83.9142 26.9211 85.9742 32.3131 84.9642 32.3131 84.4592 30.8791"></polygon>
            <polygon id="Fill-31" fill="#1E1B18" mask="url(#mask-4)" points="83.3892 26.9211 83.3892 27.8501 82.5612 30.1521 83.3892 30.1521 83.3892 30.8791 82.3192 30.8791 81.8142 32.3131 80.8452 32.3131 82.9052 26.9211"></polygon>
            <path d="M76.2197,30.0915 L76.2197,29.3645 L76.5227,29.3645 C76.8257,29.3645 77.0477,29.2835 77.2097,29.1425 C77.3707,29.0015 77.4517,28.7795 77.4517,28.4965 C77.4517,28.3345 77.4317,28.1935 77.3707,28.0715 C77.3307,27.9705 77.2497,27.8905 77.1687,27.8295 C77.0887,27.7695 76.9877,27.7285 76.8657,27.7085 C76.7447,27.6885 76.6437,27.6685 76.5227,27.6685 L76.2197,27.6685 L76.2197,26.9005 L76.6237,26.9005 C77.0077,26.9005 77.3507,26.9615 77.6137,27.0825 C77.8757,27.2035 78.0777,27.3645 78.2197,27.5875 C78.3607,27.8095 78.4207,28.0715 78.4207,28.3755 C78.4207,28.5765 78.4007,28.7585 78.3407,28.9005 C78.2997,29.0415 78.2197,29.1825 78.1587,29.2835 C78.0777,29.3845 77.9967,29.4655 77.9157,29.5265 C77.8357,29.5865 77.7547,29.6275 77.6937,29.6675 C77.6337,29.7075 77.5727,29.7285 77.5317,29.7285 L77.5317,29.7485 C77.6137,29.7485 77.6937,29.7885 77.7947,29.8295 C77.8957,29.8695 77.9767,29.9295 78.0577,30.0105 C78.1377,30.0915 78.1987,30.2125 78.2597,30.3545 C78.3207,30.4955 78.3407,30.6775 78.3407,30.8795 C78.3407,31.0815 78.3407,31.2835 78.3807,31.4855 C78.4007,31.6665 78.4417,31.8285 78.4817,31.9895 C78.5217,32.1315 78.5827,32.2325 78.6427,32.3135 L77.6337,32.3135 C77.5937,32.2325 77.5527,32.1515 77.5317,32.0705 C77.5117,31.9895 77.4917,31.8885 77.4917,31.8085 L77.4917,31.5455 C77.4917,31.3035 77.4717,31.0815 77.4517,30.8995 C77.4107,30.7175 77.3707,30.5765 77.2897,30.4555 C77.2097,30.3345 77.1087,30.2535 76.9667,30.1925 C76.8257,30.1325 76.6437,30.1125 76.4417,30.1125 L76.2197,30.1125 L76.2197,30.0915 Z" id="Fill-32" fill="#1E1B18" mask="url(#mask-4)"></path>
            <polygon id="Fill-33" fill="#1E1B18" mask="url(#mask-4)" points="79.37 32.313 80.299 32.313 80.299 26.921 79.37 26.921"></polygon>
            <polygon id="Fill-34" fill="#1E1B18" mask="url(#mask-4)" points="79.2695 26.4162 79.8955 26.4162 80.9655 25.3452 79.9565 25.3452"></polygon>
            <polygon id="Fill-35" fill="#1E1B18" mask="url(#mask-4)" points="76.2197 26.9211 76.2197 27.6881 74.9877 27.6881 74.9877 29.3641 76.2197 29.3641 76.2197 30.0911 74.9877 30.0911 74.9877 32.3131 74.0587 32.3131 74.0587 26.9211"></polygon>
            <path d="M46.7134,32.4343 L46.7134,31.6663 C46.9354,31.6663 47.1574,31.6263 47.3194,31.5453 C47.5014,31.4653 47.6424,31.3643 47.7834,31.2433 C47.9054,31.1013 48.0264,30.9603 48.1074,30.7783 C48.1884,30.5963 48.2484,30.4143 48.2884,30.2123 C48.3294,30.0113 48.3494,29.8093 48.3494,29.6073 C48.3494,29.4053 48.3294,29.2033 48.2884,29.0013 C48.2484,28.7993 48.1884,28.6173 48.1074,28.4353 C48.0264,28.2533 47.9254,28.1123 47.7834,27.9713 C47.6624,27.8303 47.5014,27.7283 47.3194,27.6683 C47.1374,27.5873 46.9354,27.5473 46.7134,27.5473 L46.7134,26.7793 C47.0364,26.7793 47.3394,26.8203 47.6024,26.9213 C47.8644,27.0213 48.1074,27.1433 48.3294,27.3253 C48.5314,27.5063 48.7134,27.7083 48.8544,27.9313 C48.9954,28.1733 49.1164,28.4153 49.1774,28.6983 C49.2584,28.9803 49.2984,29.2843 49.2984,29.5863 C49.2984,29.8903 49.2584,30.1923 49.1774,30.4753 C49.0964,30.7583 48.9954,31.0203 48.8544,31.2433 C48.7134,31.4853 48.5314,31.6873 48.3294,31.8493 C48.1274,32.0303 47.8844,32.1513 47.6024,32.2523 C47.3194,32.3733 47.0364,32.4343 46.7134,32.4343" id="Fill-36" fill="#1E1B18" mask="url(#mask-4)"></path>
            <polygon id="Fill-37" fill="#1E1B18" mask="url(#mask-4)" points="50.1064 32.3132 51.0154 32.3132 51.0154 28.3342 51.0354 28.3342 53.4794 32.3132 54.4684 32.3132 54.4684 26.9212 53.5804 26.9212 53.5804 30.8792 53.5604 30.8792 51.0964 26.9212 50.1064 26.9212"></polygon>
            <path d="M55.2764,30.5158 C55.2764,30.8588 55.3374,31.1418 55.4584,31.3838 C55.5794,31.6268 55.7414,31.8278 55.9434,31.9898 C56.1454,32.1518 56.3874,32.2728 56.6504,32.3328 C56.9124,32.4138 57.2154,32.4548 57.5184,32.4548 C57.7404,32.4548 57.9424,32.4338 58.1444,32.3938 C58.3464,32.3538 58.5484,32.2928 58.7304,32.2118 C58.9114,32.1318 59.0734,32.0108 59.2144,31.8888 C59.3564,31.7478 59.4574,31.6058 59.5384,31.4048 C59.6184,31.2228 59.6594,31.0008 59.6594,30.7578 C59.6594,30.6168 59.6384,30.4748 59.5984,30.3338 C59.5584,30.1928 59.4974,30.0718 59.3964,29.9298 C59.3164,29.8088 59.1944,29.6878 59.0734,29.6068 C58.9524,29.5058 58.7904,29.4458 58.6094,29.3848 C58.5684,29.3648 58.4874,29.3448 58.4064,29.3248 C58.3264,29.3038 58.2254,29.2638 58.1044,29.2438 C57.9834,29.2238 57.8814,29.1828 57.7604,29.1628 C57.6394,29.1218 57.5384,29.1018 57.4374,29.0818 C57.3364,29.0618 57.2554,29.0408 57.1744,29.0208 C57.1144,29.0008 57.0744,29.0008 57.0534,28.9808 C56.9324,28.9408 56.8114,28.8998 56.7104,28.8398 C56.6094,28.7788 56.5484,28.6978 56.4884,28.6178 C56.4274,28.5158 56.4074,28.4148 56.4074,28.2938 C56.4074,28.1528 56.4474,28.0518 56.5084,27.9508 C56.5694,27.8698 56.6504,27.7888 56.7514,27.7288 C56.8524,27.6678 56.9524,27.6278 57.0744,27.6078 C57.1954,27.5868 57.2964,27.5668 57.4174,27.5668 C57.6394,27.5668 57.8214,27.5868 58.0034,27.6678 C58.1644,27.7288 58.3064,27.8298 58.4064,27.9708 C58.5074,28.1128 58.5684,28.2938 58.5894,28.5368 L59.5384,28.5368 C59.5384,28.2538 59.4774,28.0118 59.3764,27.7888 C59.2754,27.5668 59.1134,27.4058 58.9324,27.2438 C58.7504,27.1028 58.5284,26.9818 58.2654,26.9208 C58.0234,26.8398 57.7604,26.8198 57.4784,26.8198 C57.2764,26.8198 57.0944,26.8398 56.8924,26.8808 C56.7104,26.9208 56.5284,26.9818 56.3474,27.0618 C56.1854,27.1428 56.0244,27.2438 55.9024,27.3858 C55.7814,27.5068 55.6804,27.6678 55.5994,27.8298 C55.5194,27.9918 55.4984,28.1928 55.4784,28.4148 C55.4784,28.5568 55.4984,28.6978 55.5394,28.8198 C55.5794,28.9608 55.6404,29.0818 55.7414,29.2028 C55.8214,29.3248 55.9634,29.4248 56.1044,29.5258 C56.2664,29.6268 56.4474,29.7078 56.6704,29.7678 C56.9124,29.8288 57.1344,29.8898 57.3364,29.9508 C57.5384,29.9908 57.7004,30.0518 57.8614,30.0918 C58.0234,30.1318 58.1644,30.1728 58.2854,30.2328 C58.3664,30.2528 58.4274,30.2938 58.5074,30.3538 C58.5684,30.4148 58.6294,30.4748 58.6694,30.5568 C58.7104,30.6368 58.7304,30.7578 58.7304,30.8998 C58.7304,31.0008 58.7104,31.1008 58.6694,31.2028 C58.6294,31.3038 58.5684,31.3838 58.4674,31.4648 C58.3864,31.5458 58.2654,31.6058 58.1044,31.6468 C57.9624,31.6868 57.7804,31.7068 57.5794,31.7278 C57.3974,31.7278 57.2154,31.7068 57.0534,31.6668 C56.8924,31.6268 56.7514,31.5658 56.6304,31.4648 C56.5084,31.3638 56.4074,31.2628 56.3264,31.1008 C56.2664,30.9598 56.2254,30.7788 56.2254,30.5768 L55.2764,30.5768 L55.2764,30.5158 Z" id="Fill-38" fill="#1E1B18" mask="url(#mask-4)"></path>
            <polygon id="Fill-39" fill="#1E1B18" mask="url(#mask-4)" points="60.4873 32.3132 64.4253 32.3132 64.4253 31.4852 61.4363 31.4852 61.4363 29.9102 64.1423 29.9102 64.1423 29.1422 61.4363 29.1422 61.4363 27.7292 64.3643 27.7292 64.3643 26.9212 60.4873 26.9212"></polygon>
            <path d="M68.1416,26.9211 L67.1926,26.9211 L67.1926,30.6371 C67.1926,30.8591 67.1716,31.0411 67.1316,31.2021 C67.0916,31.3641 67.0106,31.4651 66.9096,31.5461 C66.8086,31.6271 66.6466,31.6671 66.4446,31.6671 C66.2636,31.6671 66.1016,31.6271 66.0006,31.5461 C65.8996,31.4651 65.8186,31.3641 65.7786,31.2221 C65.7386,31.0811 65.7176,30.9001 65.7176,30.6971 L65.7176,30.4151 L64.7686,30.4151 L64.7686,30.6971 C64.7686,30.9401 64.7886,31.1621 64.8496,31.3841 C64.9106,31.5861 65.0116,31.7681 65.1326,31.9291 C65.2536,32.0911 65.4346,32.2121 65.6376,32.2931 C65.8386,32.3741 66.0816,32.4141 66.3646,32.4341 C66.6666,32.4341 66.9296,32.3941 67.1516,32.3331 C67.3536,32.2731 67.5356,32.1711 67.6566,32.0501 C67.7776,31.9291 67.8786,31.7881 67.9596,31.6271 C68.0196,31.4651 68.0806,31.3031 68.1006,31.1221 C68.1206,30.9401 68.1416,30.7581 68.1416,30.5761 L68.1416,26.9211 Z" id="Fill-40" fill="#1E1B18" mask="url(#mask-4)"></path>
            <polygon id="Fill-41" fill="#1E1B18" mask="url(#mask-4)" points="69.2925 32.3132 73.2305 32.3132 73.2305 31.4852 70.2415 31.4852 70.2415 29.9102 72.9475 29.9102 72.9475 29.1422 70.2415 29.1422 70.2415 27.7292 73.1695 27.7292 73.1695 26.9212 69.2925 26.9212"></polygon>
            <path d="M43.543,28.6374 C43.522,28.3544 43.442,28.0924 43.3,27.8704 C43.179,27.6484 43.018,27.4464 42.795,27.2844 C42.594,27.1224 42.351,27.0014 42.089,26.9214 C41.826,26.8404 41.543,26.7994 41.24,26.7994 C40.918,26.7994 40.614,26.8404 40.352,26.9414 C40.089,27.0424 39.847,27.1634 39.625,27.3454 C39.423,27.5264 39.241,27.7284 39.1,27.9504 C38.959,28.1934 38.837,28.4354 38.776,28.7184 C38.696,29.0014 38.655,29.3044 38.655,29.6074 C38.655,29.9094 38.696,30.2124 38.776,30.4954 C38.857,30.7784 38.959,31.0404 39.1,31.2624 C39.241,31.5054 39.423,31.7074 39.625,31.8684 C39.827,32.0504 40.069,32.1714 40.352,32.2724 C40.614,32.3734 40.918,32.4144 41.24,32.4144 C41.564,32.4144 41.867,32.3534 42.149,32.2524 C42.412,32.1514 42.654,31.9904 42.856,31.8084 C43.058,31.6064 43.22,31.3844 43.341,31.1214 C43.462,30.8594 43.522,30.5564 43.543,30.2334 L42.614,30.2334 C42.594,30.4344 42.553,30.6164 42.493,30.7784 C42.432,30.9394 42.331,31.1014 42.21,31.2224 C42.089,31.3444 41.947,31.4444 41.786,31.5254 C41.624,31.6064 41.442,31.6264 41.22,31.6264 C40.998,31.6264 40.776,31.5864 40.614,31.5054 C40.433,31.4244 40.291,31.3234 40.15,31.2024 C40.029,31.0614 39.908,30.9194 39.827,30.7384 C39.746,30.5564 39.686,30.3744 39.645,30.1724 C39.605,29.9704 39.585,29.7684 39.585,29.5664 C39.585,29.3644 39.605,29.1624 39.645,28.9604 C39.686,28.7584 39.746,28.5764 39.827,28.3954 C39.908,28.2134 40.008,28.0724 40.15,27.9304 C40.271,27.7894 40.433,27.6884 40.614,27.6274 C40.796,27.5474 40.998,27.5064 41.22,27.5064 C41.483,27.5064 41.705,27.5474 41.887,27.6484 C42.068,27.7484 42.21,27.8704 42.331,28.0314 C42.432,28.1934 42.533,28.3754 42.573,28.5764 L43.543,28.5764 L43.543,28.6374 Z" id="Fill-42" fill="#1E1B18" mask="url(#mask-4)"></path>
            <path d="M46.7134,26.7795 L46.7134,27.5475 C46.4914,27.5475 46.2694,27.5875 46.1074,27.6685 C45.9254,27.7485 45.7844,27.8495 45.6434,27.9705 C45.5224,28.1125 45.4014,28.2535 45.3194,28.4355 C45.2394,28.6175 45.1784,28.7995 45.1384,29.0015 C45.0974,29.2025 45.0774,29.4045 45.0774,29.6075 C45.0774,29.8085 45.0974,30.0105 45.1384,30.2125 C45.1784,30.4145 45.2394,30.5965 45.3194,30.7785 C45.4014,30.9605 45.5024,31.1015 45.6434,31.2425 C45.7644,31.3835 45.9254,31.4855 46.1074,31.5455 C46.2894,31.6265 46.4914,31.6665 46.7134,31.6665 L46.7134,32.4345 C46.3904,32.4345 46.0874,32.3935 45.8244,32.2935 C45.5624,32.1925 45.3194,32.0715 45.0974,31.8885 C44.8964,31.7075 44.7144,31.5055 44.5724,31.2835 C44.4314,31.0405 44.3104,30.7985 44.2494,30.5155 C44.1694,30.2335 44.1284,29.9505 44.1284,29.6275 C44.1284,29.3245 44.1694,29.0215 44.2494,28.7385 C44.3304,28.4555 44.4314,28.1935 44.5724,27.9705 C44.7144,27.7285 44.8964,27.5265 45.0974,27.3655 C45.2994,27.1835 45.5424,27.0625 45.8244,26.9615 C46.0874,26.8405 46.3904,26.7795 46.7134,26.7795" id="Fill-43" fill="#1E1B18" mask="url(#mask-4)"></path>
        </g>
    </g>
</svg>