<?xml version="1.0" encoding="UTF-8"?>
<svg width="200px" height="29px" viewBox="0 0 200 29" version="1.1" xmlns="http://www.w3.org/2000/svg" xmlns:xlink="http://www.w3.org/1999/xlink">
    <title>Código Centro: 28077294</title>
    <defs>
        <polygon id="path-1" points="0.25 0.25 0.75 0.25 0.75 0.75 0.25 0.75"></polygon>
        <polygon id="path-3" points="0.25 0.25 0.75 0.25 0.75 0.75 0.25 0.75"></polygon>
        <polygon id="path-5" points="0 0 6.7 0 6.7 7.9259 0 7.9259"></polygon>
        <polygon id="path-7" points="-2.84217094e-14 -3.55271368e-15 4.1006 -3.55271368e-15 4.1006 8.3 -2.84217094e-14 8.3"></polygon>
        <polygon id="path-9" points="0.25 25.926 196.85 25.926 196.85 0 0.25 0"></polygon>
    </defs>
    <g id="Código-Centro:-28077294" stroke="none" stroke-width="1" fill="none" fill-rule="evenodd">
        <g id="Group-96" transform="translate(2.000000, 3.000000)">
            <path d="M15.3502,3.3259 C14.7502,2.9259 14.1502,2.5259 13.5502,2.2259 L13.5502,1.7259 C14.1502,1.9259 14.7502,2.2259 15.3502,2.7259 L15.3502,3.3259 Z M15.3502,20.0259 C14.7502,20.5259 14.1502,20.9259 13.5502,21.2259 L13.5502,2.5259 C14.1502,2.8259 14.8502,3.2259 15.3502,3.7259 L15.3502,20.0259 Z M15.3502,21.0259 C14.7502,21.5259 14.1502,21.8259 13.5502,22.1259 L13.5502,21.6259 C14.1502,21.3259 14.8502,20.9259 15.3502,20.5259 L15.3502,21.0259 Z M11.3502,1.6259 C11.0502,1.6259 10.7502,1.5259 10.4502,1.5259 C10.1502,1.5259 9.8502,1.5259 9.5502,1.6259 L9.5502,1.1259 C9.8502,1.0259 10.1502,1.0259 10.4502,1.0259 C10.7502,1.0259 11.0502,1.0259 11.3502,1.1259 L11.3502,1.6259 Z M11.3502,21.8259 C11.0502,21.8259 10.7502,21.9259 10.4502,21.9259 C10.1502,21.9259 9.8502,21.9259 9.5502,21.8259 L9.5502,1.9259 C9.8502,1.9259 10.1502,1.8259 10.4502,1.8259 C10.7502,1.8259 11.0502,1.8259 11.3502,1.9259 L11.3502,21.8259 Z M11.3502,22.6259 C11.0502,22.7259 10.7502,22.7259 10.4502,22.7259 C10.1502,22.7259 9.8502,22.7259 9.5502,22.6259 L9.5502,22.1259 C9.8502,22.1259 10.1502,22.2259 10.4502,22.2259 C10.7502,22.2259 11.0502,22.2259 11.3502,22.1259 L11.3502,22.6259 Z M7.4502,2.1259 C6.8502,2.4259 6.1502,2.8259 5.6502,3.2259 L5.6502,2.6259 C6.2502,2.2259 6.8502,1.9259 7.4502,1.6259 L7.4502,2.1259 Z M7.4502,21.2259 C6.8502,20.9259 6.1502,20.5259 5.6502,20.0259 L5.6502,3.7259 C6.2502,3.2259 6.8502,2.8259 7.4502,2.5259 L7.4502,21.2259 Z M7.4502,22.0259 C6.8502,21.8259 6.2502,21.5259 5.6502,21.0259 L5.6502,20.4259 C6.2502,20.8259 6.8502,21.2259 7.4502,21.5259 L7.4502,22.0259 Z M3.5502,5.7259 C2.4502,7.4259 1.7502,9.6259 1.7502,11.9259 C1.7502,14.2259 2.4502,16.4259 3.5502,18.1259 L3.5502,18.9259 C2.1502,17.0259 1.3502,14.5259 1.3502,11.9259 C1.3502,9.2259 2.1502,6.8259 3.5502,4.9259 L3.5502,5.7259 Z M3.5502,17.4259 C2.6502,15.8259 2.1502,13.9259 2.1502,11.8259 C2.1502,9.7259 2.6502,7.8259 3.5502,6.2259 L3.5502,17.4259 Z M17.4502,18.1259 C18.5502,16.4259 19.2502,14.2259 19.2502,11.9259 C19.2502,9.6259 18.5502,7.4259 17.4502,5.7259 L17.4502,4.9259 C18.8502,6.8259 19.6502,9.2259 19.6502,11.9259 C19.6502,14.6259 18.8502,17.0259 17.4502,18.9259 L17.4502,18.1259 Z M17.4502,6.3259 C18.3502,7.9259 18.8502,9.8259 18.8502,11.9259 C18.8502,14.0259 18.3502,15.9259 17.4502,17.5259 L17.4502,6.3259 Z M20.4502,11.9259 C20.4502,5.4259 16.0502,0.2259 10.4502,0.2259 C4.9502,0.2259 0.4502,5.4259 0.4502,11.9259 C0.4502,18.3259 4.9502,23.6259 10.4502,23.6259 C15.9502,23.6259 20.4502,18.4259 20.4502,11.9259 L20.4502,11.9259 Z" id="Fill-1" fill="#050505"></path>
            <path d="M20.4498,21.6262 C20.3498,21.7262 19.5498,21.9262 19.5498,21.9262 L19.5498,21.7262 C19.8498,21.5262 19.9498,21.3262 19.9498,21.3262 C19.9498,21.3262 20.2498,21.5262 20.4498,21.6262 L20.4498,21.6262 Z M20.3498,23.3262 C20.0498,23.4262 19.6498,23.2262 19.3498,22.9262 C19.2498,22.7262 19.2498,22.7262 19.1498,22.4262 C19.2498,22.4262 19.3498,22.3262 19.3498,22.2262 L20.3498,23.3262 Z M18.7498,22.2262 C18.6498,22.1262 18.6498,21.9262 18.7498,21.7262 C18.8498,21.6262 19.0498,21.6262 19.2498,21.7262 C19.3498,21.8262 19.3498,22.0262 19.2498,22.2262 C19.0498,22.3262 18.8498,22.3262 18.7498,22.2262 L18.7498,22.2262 Z M18.5498,23.4262 C18.5498,23.3262 18.4498,23.1262 18.3498,22.9262 C18.5498,22.7262 18.5498,22.6262 18.6498,22.5262 C18.7498,22.5262 18.7498,22.6262 18.8498,22.6262 L18.5498,23.4262 Z M14.1498,23.4262 L14.9498,23.1262 C16.2498,22.6262 16.7498,21.6262 17.7498,21.7262 C17.9498,21.7262 18.1498,21.8262 18.3498,21.9262 L18.3498,22.1262 C17.5498,22.6262 15.7498,23.2262 14.1498,23.4262 L14.1498,23.4262 Z M17.9498,21.0262 L18.6498,21.5262 L18.5498,21.5262 L18.4498,21.6262 C18.1498,21.4262 17.9498,21.4262 17.9498,21.4262 C18.0498,21.2262 17.9498,21.0262 17.9498,21.0262 L17.9498,21.0262 Z M20.6498,15.8262 L20.6498,15.8262 C20.5498,15.9262 20.4498,16.0262 20.4498,16.1262 L20.4498,16.3262 L20.4498,16.6262 C20.2498,18.4262 19.6498,20.0262 19.1498,21.3262 L18.9498,21.3262 C18.8498,21.2262 18.7498,21.0262 18.7498,21.0262 C18.5498,19.9262 19.5498,19.3262 19.9498,18.1262 C20.3498,17.2262 20.4498,16.8262 20.4498,16.6262 L20.4498,16.3262 L20.4498,16.1262 C20.1498,17.1262 19.6498,18.2262 19.1498,19.0262 C18.9498,19.3262 18.9498,19.3262 18.8498,19.5262 C18.7498,19.7262 18.4498,20.1262 18.4498,20.7262 L17.7498,20.7262 C17.7498,21.0262 17.8498,21.0262 17.7498,21.5262 C16.6498,21.5262 16.4498,22.2262 15.3498,22.8262 C14.8498,23.1262 14.5498,23.2262 13.9498,23.4262 L13.9498,23.5262 C16.1498,23.4262 17.0498,23.8262 18.2498,23.0262 C18.3498,23.2262 18.4498,23.4262 18.5498,23.7262 C18.7498,23.6262 19.0498,23.3262 19.3498,23.3262 C19.6498,23.6262 20.1498,23.8262 20.6498,23.7262 C20.7498,23.2262 20.5498,22.6262 20.2498,22.3262 C20.3498,22.0262 20.5498,21.7262 20.7498,21.5262 C20.5498,21.4262 20.2498,21.3262 20.1498,21.1262 C20.5498,20.5262 20.6498,20.2262 20.7498,19.5262 L20.6498,15.8262 Z" id="Fill-3" fill="#050505"></path>
            <g id="Group-7" transform="translate(0.000000, 25.176000)">
                <mask id="mask-2" fill="white">
                    <use xlink:href="#path-1"></use>
                </mask>
                <g id="Clip-6"></g>
                <path d="" id="Fill-5" fill="#050505" mask="url(#mask-2)"></path>
            </g>
            <path d="M19.9498,2.5261 C19.9498,2.5261 19.8498,2.3261 19.5498,2.1261 L19.5498,1.9261 C19.5498,1.9261 20.3498,2.1261 20.4498,2.2261 C20.2498,2.2261 19.9498,2.4261 19.9498,2.5261 L19.9498,2.5261 Z M19.1498,1.3261 C19.2498,1.0261 19.2498,1.0261 19.3498,0.8261 C19.6498,0.5261 20.0498,0.3261 20.3498,0.4261 L19.3498,1.5261 C19.3498,1.4261 19.2498,1.3261 19.1498,1.3261 L19.1498,1.3261 Z M19.2498,2.1261 C19.0498,2.2261 18.8498,2.2261 18.7498,2.1261 C18.6498,1.9261 18.6498,1.7261 18.7498,1.6261 C18.8498,1.4261 19.0498,1.4261 19.2498,1.6261 C19.3498,1.8261 19.3498,2.0261 19.2498,2.1261 L19.2498,2.1261 Z M18.3498,0.9261 C18.4498,0.7261 18.5498,0.5261 18.5498,0.4261 L18.8498,1.2261 C18.7498,1.2261 18.7498,1.3261 18.6498,1.3261 C18.5498,1.2261 18.5498,1.1261 18.3498,0.9261 L18.3498,0.9261 Z M17.9498,2.8261 C17.9498,2.8261 18.0498,2.6261 17.9498,2.4261 C17.9498,2.4261 18.1498,2.4261 18.4498,2.2261 L18.5498,2.3261 L18.6498,2.3261 L17.9498,2.8261 Z M17.7498,2.0261 C16.7498,2.1261 16.2498,1.1261 14.9498,0.6261 L14.1498,0.3261 C15.7498,0.5261 17.5498,1.1261 18.3498,1.6261 L18.3498,1.8261 C18.1498,1.9261 17.9498,2.0261 17.7498,2.0261 L17.7498,2.0261 Z M20.7498,2.2261 C20.5498,2.0261 20.3498,1.7261 20.2498,1.4261 C20.5498,1.1261 20.7498,0.5261 20.6498,0.0261 C20.1498,-0.0739 19.6498,0.1261 19.3498,0.4261 C19.0498,0.4261 18.7498,0.1261 18.5498,0.0261 C18.4498,0.3261 18.3498,0.5261 18.2498,0.7261 C17.0498,-0.0739 16.1498,0.3261 13.9498,0.2261 L13.9498,0.3261 C14.5498,0.5261 14.8498,0.6261 15.3498,0.9261 C16.4498,1.5261 16.6498,2.2261 17.7498,2.2261 C17.8498,2.7261 17.7498,2.7261 17.7498,3.0261 L18.4498,3.0261 C18.4498,3.6261 18.7498,4.0261 18.8498,4.2261 C18.9498,4.4261 18.9498,4.4261 19.1498,4.7261 C19.6498,5.5261 20.1498,6.6261 20.4498,7.6261 L20.4498,7.4261 L20.4498,7.1261 C20.3498,6.8261 20.2498,6.5261 19.9498,5.6261 C19.5498,4.5261 18.5498,3.8261 18.7498,2.7261 C18.7498,2.7261 18.8498,2.5261 18.9498,2.4261 L19.1498,2.4261 C19.6498,3.8261 20.2498,5.3261 20.4498,7.1261 L20.4498,7.4261 L20.4498,7.6261 C20.4498,7.7261 20.5498,7.8261 20.5498,7.9261 L20.6498,7.9261 L20.7498,4.2261 C20.6498,3.5261 20.5498,3.2261 20.1498,2.6261 C20.2498,2.4261 20.5498,2.3261 20.7498,2.2261 L20.7498,2.2261 Z" id="Fill-8" fill="#050505"></path>
            <g id="Group-12" transform="translate(0.000000, 25.176000)">
                <mask id="mask-4" fill="white">
                    <use xlink:href="#path-3"></use>
                </mask>
                <g id="Clip-11"></g>
                <path d="" id="Fill-10" fill="#050505" mask="url(#mask-4)"></path>
            </g>
            <path d="M6.7501,23.426 C5.2501,23.226 3.3501,22.626 2.5501,22.126 L2.5501,21.926 C2.7501,21.826 2.9501,21.726 3.1501,21.726 C4.1501,21.626 4.6501,22.626 5.9501,23.126 L6.7501,23.426 Z M2.3501,23.426 L2.0501,22.626 C2.1501,22.626 2.1501,22.526 2.2501,22.526 C2.3501,22.626 2.3501,22.726 2.5501,22.926 C2.4501,23.126 2.3501,23.326 2.3501,23.426 L2.3501,23.426 Z M1.7501,22.226 C1.6501,22.026 1.6501,21.826 1.7501,21.726 C1.9501,21.626 2.1501,21.626 2.2501,21.726 C2.3501,21.926 2.3501,22.126 2.2501,22.226 C2.1501,22.326 1.8501,22.326 1.7501,22.226 L1.7501,22.226 Z M1.6501,22.926 C1.3501,23.226 0.9501,23.426 0.6501,23.326 L1.6501,22.226 C1.6501,22.326 1.7501,22.426 1.8501,22.426 C1.7501,22.726 1.7501,22.726 1.6501,22.926 L1.6501,22.926 Z M0.5501,21.626 C0.7501,21.526 1.0501,21.326 1.0501,21.326 C1.0501,21.326 1.1501,21.526 1.4501,21.726 L1.4501,21.926 C1.4501,21.926 0.6501,21.726 0.5501,21.626 L0.5501,21.626 Z M0.4501,16.126 L0.4501,16.326 L0.4501,16.626 C0.5501,16.926 0.6501,17.226 0.9501,18.126 C1.4501,19.326 2.3501,19.926 2.0501,20.926 C2.0501,20.926 2.0501,21.126 1.9501,21.326 L1.7501,21.326 C1.2501,19.926 0.6501,18.426 0.4501,16.626 L0.4501,16.326 L0.4501,16.126 Z M3.0501,20.926 C3.0501,20.926 2.9501,21.226 3.0501,21.326 C3.0501,21.326 2.8501,21.326 2.5501,21.526 L2.4501,21.426 L2.3501,21.426 L3.0501,20.926 Z M3.2501,21.526 C3.1501,21.026 3.2501,21.026 3.2501,20.726 L2.5501,20.726 C2.5501,20.126 2.2501,19.726 2.1501,19.526 C2.0501,19.326 2.0501,19.326 1.8501,19.026 C1.2501,18.126 0.7501,16.926 0.4501,15.826 L0.3501,15.826 L0.2501,19.526 C0.3501,20.226 0.4501,20.526 0.8501,21.126 C0.7501,21.326 0.4501,21.426 0.2501,21.526 C0.4501,21.726 0.6501,22.026 0.7501,22.326 C0.3501,22.626 0.2501,23.226 0.3501,23.726 C0.8501,23.826 1.3501,23.626 1.6501,23.326 C1.9501,23.326 2.2501,23.626 2.4501,23.726 C2.5501,23.426 2.6501,23.226 2.7501,23.026 C3.9501,23.826 4.8501,23.426 7.0501,23.526 L7.0501,23.426 C6.4501,23.226 6.1501,23.126 5.6501,22.826 C4.5501,22.226 4.3501,21.526 3.2501,21.526 L3.2501,21.526 Z" id="Fill-13" fill="#050505"></path>
            <g id="Group-17" transform="translate(0.250200, 0.000000)">
                <mask id="mask-6" fill="white">
                    <use xlink:href="#path-5"></use>
                </mask>
                <g id="Clip-16"></g>
                <path d="M1.6,2.3259 L1.8,2.3259 C1.9,2.4259 2,2.6259 2,2.6259 C2.2,3.7259 1.3,4.3259 0.8,5.5259 C0.4,6.4259 0.3,6.8259 0.3,7.0259 L0.3,7.3259 L0.3,7.5259 L0.3,7.3259 L0.3,7.0259 C0.5,5.2259 1.1,3.7259 1.6,2.3259 L1.6,2.3259 Z M0.3,2.1259 C0.4,2.0259 1.2,1.8259 1.2,1.8259 L1.2,2.0259 C0.9,2.2259 0.8,2.4259 0.8,2.4259 C0.8,2.4259 0.5,2.2259 0.3,2.1259 L0.3,2.1259 Z M0.3,0.4259 C0.7,0.3259 1.1,0.5259 1.4,0.8259 C1.5,1.0259 1.5,1.0259 1.5,1.3259 C1.4,1.3259 1.3,1.4259 1.3,1.5259 L0.3,0.4259 Z M2,1.5259 C2.1,1.6259 2.1,1.8259 2,2.0259 C1.9,2.1259 1.7,2.1259 1.5,2.0259 C1.4,1.9259 1.4,1.7259 1.5,1.5259 C1.6,1.4259 1.9,1.4259 2,1.5259 L2,1.5259 Z M2.1,0.3259 C2.1,0.4259 2.2,0.6259 2.3,0.8259 C2.1,1.0259 2.1,1.1259 2,1.2259 C1.9,1.2259 1.9,1.1259 1.8,1.1259 L2.1,0.3259 Z M6.5,0.3259 L5.7,0.6259 C4.4,1.0259 3.9,2.0259 2.9,2.0259 C2.7,2.0259 2.5,1.9259 2.3,1.8259 L2.3,1.6259 C3.1,1.1259 5,0.5259 6.5,0.3259 L6.5,0.3259 Z M2.8,2.8259 L2.1,2.3259 L2.2,2.3259 L2.3,2.2259 C2.6,2.4259 2.8,2.4259 2.8,2.4259 C2.7,2.6259 2.8,2.8259 2.8,2.8259 L2.8,2.8259 Z M0.1,7.9259 L0.1,7.9259 C0.5,6.8259 1,5.6259 1.6,4.7259 C1.8,4.4259 1.8,4.4259 1.9,4.2259 C2,4.0259 2.2,3.6259 2.2,3.0259 L2.9,3.0259 C2.9,2.7259 2.8,2.7259 2.9,2.2259 C4,2.2259 4.2,1.5259 5.3,0.9259 C5.8,0.6259 6.1,0.5259 6.7,0.3259 L6.7,0.2259 C4.5,0.3259 3.6,-0.0741 2.4,0.7259 C2.3,0.5259 2.2,0.3259 2.1,0.0259 C1.9,0.1259 1.6,0.4259 1.3,0.4259 C1,0.1259 0.5,-0.0741 0,0.0259 C0,0.5259 0.1,1.1259 0.5,1.4259 C0.4,1.7259 0.2,2.0259 0,2.2259 C0.2,2.3259 0.5,2.4259 0.6,2.6259 C0.2,3.2259 0.1,3.5259 0,4.2259 L0.1,7.9259 Z" id="Fill-15" fill="#050505" mask="url(#mask-6)"></path>
            </g>
            <path d="M29.65,16.426 L31.05,16.426 C31.95,16.426 32.65,16.726 33.05,17.226 C33.45,17.726 33.65,18.426 33.55,19.326 C33.55,19.926 33.45,20.526 33.25,20.826 C33.05,21.226 32.75,21.526 32.45,21.626 C32.15,21.826 31.75,21.926 31.35,21.926 L29.65,21.926 L29.65,16.426 Z M27.75,23.626 L31.55,23.626 C32.45,23.626 33.15,23.426 33.75,23.026 C34.35,22.626 34.75,22.126 35.05,21.426 C35.35,20.726 35.45,20.026 35.45,19.126 C35.45,18.126 35.25,17.326 34.95,16.726 C34.65,16.126 34.15,15.626 33.55,15.326 C32.95,15.026 32.25,14.826 31.55,14.826 L27.75,14.826 L27.75,23.626 Z" id="Fill-18" fill="#050505"></path>
            <path d="M38.0499,19.7258 C38.0499,19.5258 38.1499,19.3258 38.1499,19.1258 C38.2499,18.9258 38.3499,18.7258 38.5499,18.6258 C38.7499,18.4258 39.0499,18.4258 39.4499,18.4258 C39.8499,18.4258 40.1499,18.5258 40.4499,18.7258 C40.6499,18.9258 40.8499,19.3258 40.8499,19.7258 L38.0499,19.7258 Z M42.6499,20.8258 C42.6499,20.1258 42.6499,19.5258 42.3499,19.0258 C42.1499,18.4258 41.7499,18.0258 41.3499,17.6258 C40.8499,17.2258 40.2499,17.1258 39.5499,17.1258 C38.9499,17.1258 38.3499,17.3258 37.8499,17.5258 C37.3499,17.8258 36.9499,18.2258 36.7499,18.7258 C36.4499,19.2258 36.3499,19.8258 36.3499,20.4258 C36.3499,21.4258 36.6499,22.2258 37.2499,22.8258 C37.8499,23.4258 38.6499,23.7258 39.6499,23.7258 C40.3499,23.7258 40.9499,23.5258 41.4499,23.2258 C41.9499,22.9258 42.3499,22.3258 42.5499,21.6258 L41.0499,21.6258 C40.9499,21.8258 40.8499,22.0258 40.5499,22.2258 C40.3499,22.4258 39.9499,22.5258 39.6499,22.5258 C39.1499,22.5258 38.7499,22.4258 38.5499,22.1258 C38.2499,21.8258 38.1499,21.4258 38.1499,20.9258 L42.6499,20.9258 L42.6499,20.8258 Z" id="Fill-20" fill="#050505"></path>
            <path d="M46.8502,22.426 C46.2502,22.426 45.8502,22.226 45.6502,21.826 C45.4502,21.426 45.3502,20.926 45.3502,20.426 C45.3502,20.126 45.3502,19.726 45.4502,19.426 C45.5502,19.126 45.7502,18.826 45.9502,18.626 C46.1502,18.426 46.4502,18.326 46.8502,18.326 C47.2502,18.326 47.5502,18.426 47.7502,18.626 C47.9502,18.826 48.1502,19.126 48.2502,19.426 C48.3502,19.726 48.3502,20.026 48.3502,20.426 C48.3502,20.926 48.2502,21.426 48.0502,21.826 C47.8502,22.226 47.4502,22.426 46.8502,22.426 L46.8502,22.426 Z M43.6502,25.826 L45.3502,25.826 L45.3502,22.826 C45.5502,23.126 45.8502,23.426 46.1502,23.526 C46.4502,23.726 46.8502,23.726 47.2502,23.726 C47.8502,23.726 48.3502,23.526 48.7502,23.226 C49.1502,22.926 49.4502,22.526 49.6502,22.026 C49.8502,21.526 49.9502,21.026 49.9502,20.426 C49.9502,19.826 49.8502,19.226 49.6502,18.726 C49.4502,18.226 49.1502,17.826 48.7502,17.526 C48.3502,17.226 47.7502,17.026 47.1502,17.026 C46.7502,17.026 46.3502,17.126 46.0502,17.226 C45.7502,17.426 45.4502,17.626 45.2502,17.926 L45.2502,17.126 L43.6502,17.126 L43.6502,25.826 Z" id="Fill-22" fill="#050505"></path>
            <path d="M52.8502,19.2258 C52.8502,18.9258 53.0502,18.6258 53.2502,18.5258 C53.4502,18.3258 53.7502,18.3258 54.0502,18.3258 C54.3502,18.3258 54.6502,18.3258 54.8502,18.4258 C55.0502,18.5258 55.1502,18.7258 55.1502,19.1258 C55.1502,19.4258 54.9502,19.6258 54.5502,19.7258 C54.1502,19.8258 53.6502,19.8258 53.1502,19.9258 C52.7502,19.9258 52.4502,20.0258 52.1502,20.1258 C51.8502,20.2258 51.5502,20.4258 51.3502,20.7258 C51.1502,21.0258 51.0502,21.3258 51.0502,21.8258 C51.0502,22.4258 51.2502,22.9258 51.6502,23.2258 C52.0502,23.5258 52.5502,23.7258 53.1502,23.7258 C53.5502,23.7258 53.9502,23.6258 54.3502,23.5258 C54.7502,23.4258 55.0502,23.2258 55.3502,22.9258 L55.3502,23.2258 C55.3502,23.3258 55.3502,23.4258 55.4502,23.5258 L57.2502,23.5258 C57.1502,23.4258 57.1502,23.2258 57.0502,22.9258 C57.0502,22.6258 56.9502,22.4258 56.9502,22.1258 L56.9502,18.8258 C56.9502,18.3258 56.7502,17.9258 56.5502,17.7258 C56.2502,17.4258 55.9502,17.3258 55.4502,17.2258 C55.0502,17.1258 54.5502,17.1258 54.1502,17.1258 C53.6502,17.1258 53.2502,17.2258 52.7502,17.3258 C52.3502,17.4258 51.9502,17.6258 51.6502,18.0258 C51.3502,18.3258 51.1502,18.7258 51.1502,19.3258 L52.8502,19.3258 L52.8502,19.2258 Z M55.1502,21.1258 C55.1502,21.2258 55.1502,21.4258 55.0502,21.6258 C55.0502,21.8258 54.8502,22.0258 54.6502,22.2258 C54.4502,22.4258 54.1502,22.5258 53.6502,22.5258 C53.3502,22.5258 53.1502,22.5258 52.9502,22.3258 C52.7502,22.2258 52.6502,22.0258 52.6502,21.7258 C52.6502,21.4258 52.7502,21.2258 52.9502,21.0258 C53.1502,20.9258 53.3502,20.8258 53.6502,20.7258 C53.9502,20.7258 54.2502,20.6258 54.4502,20.6258 C54.7502,20.6258 54.9502,20.5258 55.0502,20.4258 L55.0502,21.1258 L55.1502,21.1258 Z" id="Fill-24" fill="#050505"></path>
            <path d="M58.2501,23.6262 L59.9501,23.6262 L59.9501,20.7262 C59.9501,20.1262 60.0501,19.6262 60.3501,19.3262 C60.6501,18.9262 61.0501,18.7262 61.6501,18.7262 L61.9501,18.7262 L62.2501,18.7262 L62.2501,17.1262 L62.0501,17.1262 L61.8501,17.1262 C61.4501,17.1262 61.0501,17.2262 60.6501,17.5262 C60.2501,17.7262 60.0501,18.1262 59.8501,18.5262 L59.8501,17.3262 L58.1501,17.3262 L58.2501,23.6262 Z" id="Fill-26" fill="#050505"></path>
            <path d="M65.2501,15.3259 L63.5501,15.3259 L63.5501,17.2259 L62.4501,17.2259 L62.4501,18.4259 L63.5501,18.4259 L63.5501,22.1259 C63.5501,22.7259 63.7501,23.1259 64.1501,23.3259 C64.5501,23.5259 64.9501,23.6259 65.5501,23.6259 L66.0501,23.6259 L66.5501,23.6259 L66.5501,22.2259 L66.2501,22.2259 L65.9501,22.2259 C65.6501,22.2259 65.4501,22.2259 65.3501,22.1259 C65.2501,22.0259 65.1501,21.8259 65.2501,21.5259 L65.2501,18.4259 L66.5501,18.4259 L66.5501,17.2259 L65.2501,17.2259 L65.2501,15.3259 Z" id="Fill-28" fill="#050505"></path>
            <path d="M68.9498,19.2258 C68.9498,18.9258 69.1498,18.6258 69.3498,18.5258 C69.5498,18.3258 69.8498,18.3258 70.1498,18.3258 C70.4498,18.3258 70.7498,18.3258 70.9498,18.4258 C71.1498,18.5258 71.2498,18.7258 71.2498,19.1258 C71.2498,19.4258 71.0498,19.6258 70.6498,19.7258 C70.2498,19.8258 69.7498,19.8258 69.2498,19.9258 C68.8498,19.9258 68.5498,20.0258 68.2498,20.1258 C67.9498,20.2258 67.6498,20.4258 67.4498,20.7258 C67.2498,21.0258 67.1498,21.3258 67.1498,21.8258 C67.1498,22.4258 67.3498,22.9258 67.7498,23.2258 C68.1498,23.5258 68.6498,23.7258 69.2498,23.7258 C69.6498,23.7258 70.0498,23.6258 70.4498,23.5258 C70.8498,23.4258 71.1498,23.2258 71.4498,22.9258 L71.4498,23.2258 C71.4498,23.3258 71.4498,23.4258 71.5498,23.5258 L73.3498,23.5258 C73.2498,23.4258 73.2498,23.2258 73.1498,22.9258 C73.1498,22.6258 73.0498,22.4258 73.0498,22.1258 L73.0498,18.8258 C73.0498,18.3258 72.8498,17.9258 72.6498,17.7258 C72.3498,17.4258 72.0498,17.3258 71.5498,17.2258 C71.0498,17.1258 70.6498,17.0258 70.2498,17.0258 C69.7498,17.0258 69.3498,17.1258 68.8498,17.2258 C68.4498,17.3258 68.0498,17.5258 67.7498,17.9258 C67.4498,18.2258 67.2498,18.6258 67.2498,19.2258 L68.9498,19.2258 Z M71.2498,21.1258 C71.2498,21.2258 71.2498,21.4258 71.1498,21.6258 C71.1498,21.8258 70.9498,22.0258 70.7498,22.2258 C70.5498,22.4258 70.2498,22.5258 69.7498,22.5258 C69.4498,22.5258 69.2498,22.5258 69.0498,22.3258 C68.8498,22.2258 68.7498,22.0258 68.7498,21.7258 C68.7498,21.4258 68.8498,21.2258 69.0498,21.0258 C69.2498,20.9258 69.4498,20.8258 69.7498,20.7258 C70.0498,20.7258 70.3498,20.6258 70.5498,20.6258 C70.8498,20.6258 71.0498,20.5258 71.1498,20.4258 L71.2498,21.1258 Z" id="Fill-30" fill="#050505"></path>
            <path d="M74.4498,23.6262 L76.1498,23.6262 L76.1498,19.9262 C76.1498,19.5262 76.2498,19.2262 76.3498,19.0262 C76.4498,18.8262 76.6498,18.6262 76.8498,18.6262 C77.0498,18.5262 77.1498,18.5262 77.3498,18.5262 C77.7498,18.5262 77.9498,18.6262 78.1498,18.7262 C78.2498,18.9262 78.3498,19.1262 78.4498,19.3262 L78.4498,20.0262 L78.4498,23.6262 L80.1498,23.6262 L80.1498,20.0262 C80.1498,19.6262 80.2498,19.2262 80.3498,18.9262 C80.5498,18.6262 80.8498,18.4262 81.3498,18.4262 C81.8498,18.4262 82.1498,18.6262 82.2498,18.9262 C82.3498,19.2262 82.4498,19.6262 82.4498,20.0262 L82.4498,23.6262 L84.1498,23.6262 L84.1498,19.4262 C84.1498,18.6262 83.9498,18.0262 83.4498,17.6262 C83.0498,17.2262 82.4498,17.1262 81.7498,17.1262 C81.3498,17.1262 80.9498,17.2262 80.5498,17.4262 C80.2498,17.6262 79.9498,17.8262 79.7498,18.1262 C79.5498,17.7262 79.3498,17.5262 78.9498,17.3262 C78.6498,17.1262 78.2498,17.1262 77.8498,17.1262 C77.4498,17.1262 77.0498,17.2262 76.7498,17.4262 C76.4498,17.6262 76.1498,17.8262 75.9498,18.2262 L75.9498,17.3262 L74.3498,17.3262 L74.3498,23.6262 L74.4498,23.6262 Z" id="Fill-32" fill="#050505"></path>
            <path d="M86.9498,19.7258 C86.9498,19.5258 87.0498,19.3258 87.0498,19.1258 C87.1498,18.9258 87.2498,18.7258 87.4498,18.6258 C87.6498,18.4258 87.9498,18.4258 88.3498,18.4258 C88.7498,18.4258 89.0498,18.5258 89.3498,18.7258 C89.5498,18.9258 89.7498,19.3258 89.7498,19.7258 L86.9498,19.7258 Z M91.4498,20.8258 C91.4498,20.1258 91.4498,19.5258 91.1498,19.0258 C90.9498,18.4258 90.5498,18.0258 90.1498,17.6258 C89.6498,17.2258 89.0498,17.1258 88.3498,17.1258 C87.7498,17.1258 87.1498,17.3258 86.6498,17.5258 C86.1498,17.8258 85.7498,18.2258 85.5498,18.7258 C85.2498,19.2258 85.1498,19.8258 85.1498,20.4258 C85.1498,21.4258 85.4498,22.2258 86.0498,22.8258 C86.6498,23.4258 87.4498,23.7258 88.4498,23.7258 C89.1498,23.7258 89.7498,23.5258 90.2498,23.2258 C90.7498,22.9258 91.1498,22.3258 91.3498,21.6258 L89.8498,21.6258 C89.7498,21.8258 89.6498,22.0258 89.3498,22.2258 C89.1498,22.4258 88.7498,22.5258 88.4498,22.5258 C87.9498,22.5258 87.5498,22.4258 87.3498,22.1258 C87.0498,21.8258 86.9498,21.4258 86.9498,20.9258 L91.4498,20.9258 L91.4498,20.8258 Z" id="Fill-34" fill="#050505"></path>
            <path d="M92.5499,23.6262 L94.2499,23.6262 L94.2499,20.3262 C94.2499,19.7262 94.3499,19.2262 94.5499,18.9262 C94.7499,18.6262 95.1499,18.5262 95.5499,18.5262 C95.9499,18.5262 96.2499,18.6262 96.4499,18.9262 C96.6499,19.2262 96.7499,19.5262 96.7499,20.1262 L96.7499,23.7262 L98.4499,23.7262 L98.4499,19.8262 C98.4499,19.0262 98.3499,18.4262 97.9499,17.9262 C97.6499,17.4262 97.0499,17.2262 96.0499,17.2262 C95.6499,17.2262 95.3499,17.3262 94.9499,17.5262 C94.6499,17.7262 94.3499,17.9262 94.0499,18.3262 L94.0499,17.4262 L92.3499,17.4262 L92.3499,23.6262 L92.5499,23.6262 Z" id="Fill-36" fill="#050505"></path>
            <path d="M101.9498,15.3259 L100.2498,15.3259 L100.2498,17.2259 L99.1498,17.2259 L99.1498,18.4259 L100.2498,18.4259 L100.2498,22.1259 C100.2498,22.7259 100.4498,23.1259 100.8498,23.3259 C101.2498,23.5259 101.6498,23.6259 102.2498,23.6259 L102.7498,23.6259 L103.2498,23.6259 L103.2498,22.2259 L102.9498,22.2259 L102.6498,22.2259 C102.3498,22.2259 102.1498,22.2259 102.0508,22.1259 C101.9498,22.0259 101.8498,21.8259 101.9498,21.5259 L101.9498,18.4259 L103.2498,18.4259 L103.2498,17.2259 L101.9498,17.2259 L101.9498,15.3259 Z" id="Fill-38" fill="#050505"></path>
            <path d="M112.0504,20.426 C112.0504,20.926 111.9494,21.426 111.7494,21.826 C111.5504,22.226 111.1504,22.426 110.5504,22.426 C110.1504,22.426 109.8504,22.326 109.6504,22.126 C109.4494,21.926 109.2494,21.626 109.1504,21.326 C109.0504,21.026 108.9494,20.726 108.9494,20.326 C108.9494,19.826 109.0504,19.326 109.2494,18.926 C109.4494,18.526 109.8504,18.326 110.4494,18.326 C111.0504,18.326 111.3504,18.526 111.6504,18.926 C111.9494,19.426 112.0504,19.826 112.0504,20.426 L112.0504,20.426 Z M112.0504,23.626 L113.7494,23.626 L113.7494,14.826 L112.0504,14.826 L112.0504,18.026 C111.8504,17.726 111.5504,17.526 111.2494,17.326 C110.9494,17.126 110.5504,17.126 110.1504,17.126 C109.5504,17.126 109.0504,17.326 108.5504,17.626 C108.1504,17.926 107.8504,18.326 107.6504,18.826 C107.4494,19.326 107.3504,19.826 107.3504,20.426 C107.3504,21.026 107.4494,21.526 107.6504,22.126 C107.8504,22.626 108.1504,23.026 108.5504,23.326 C108.9494,23.626 109.5504,23.826 110.1504,23.826 C110.5504,23.826 110.9494,23.726 111.2494,23.626 C111.5504,23.426 111.8504,23.226 112.0504,22.926 L112.0504,23.626 Z" id="Fill-40" fill="#050505"></path>
            <path d="M115.15,16.7258 L115.95,16.7258 C115.95,17.0258 115.85,17.3258 115.75,17.5258 C115.65,17.7258 115.45,17.9258 115.15,18.0258 L115.15,18.8258 C115.65,18.7258 116.05,18.5258 116.45,18.1258 C116.75,17.7258 116.95,17.3258 116.95,16.7258 L116.95,14.8258 L115.25,14.8258 L115.25,16.7258 L115.15,16.7258 Z" id="Fill-42" fill="#050505"></path>
            <polygon id="Fill-44" fill="#050505" points="118.5504 23.6262 125.2494 23.6262 125.2494 21.9262 120.5504 21.9262 120.5504 19.8262 124.7494 19.8262 124.7494 18.3262 120.5504 18.3262 120.5504 16.4262 125.1504 16.4262 125.1504 14.8262 118.5504 14.8262"></polygon>
            <path d="M126.3502,23.6262 L128.0502,23.6262 L128.0502,20.3262 C128.0502,19.7262 128.1502,19.2262 128.3502,18.9262 C128.5502,18.6262 128.9502,18.5262 129.3502,18.5262 C129.7492,18.5262 130.0502,18.6262 130.2492,18.9262 C130.4502,19.2262 130.5502,19.5262 130.5502,20.1262 L130.5502,23.7262 L132.2492,23.7262 L132.2492,19.8262 C132.2492,19.0262 132.1502,18.4262 131.7492,17.9262 C131.4502,17.4262 130.8502,17.2262 129.8502,17.2262 C129.4502,17.2262 129.1502,17.3262 128.7492,17.5262 C128.4502,17.7262 128.1502,17.9262 127.8502,18.3262 L127.8502,17.4262 L126.1502,17.4262 L126.1502,23.6262 L126.3502,23.6262 Z" id="Fill-46" fill="#050505"></path>
            <path d="M133.3502,21.5261 C133.3502,22.1261 133.5502,22.5261 133.8502,22.8261 C134.1502,23.1261 134.5502,23.4261 134.9502,23.5261 C135.3502,23.6261 135.8502,23.7261 136.3502,23.7261 C136.8502,23.7261 137.3502,23.6261 137.7492,23.5261 C138.1502,23.4261 138.5502,23.1261 138.8502,22.8261 C139.1502,22.5261 139.2492,22.0261 139.2492,21.5261 C139.2492,20.9261 139.0502,20.5261 138.6502,20.3261 C138.2492,20.0261 137.7492,19.9261 137.2492,19.8261 C136.7492,19.7261 136.2492,19.6261 135.8502,19.5261 C135.4502,19.4261 135.2492,19.2261 135.2492,18.9261 C135.2492,18.6261 135.3502,18.5261 135.5502,18.4261 C135.7492,18.3261 135.9502,18.3261 136.1502,18.3261 C136.4502,18.3261 136.7492,18.4261 136.9502,18.5261 C137.1502,18.6261 137.2492,18.9261 137.3502,19.2261 L139.0502,19.2261 C138.9502,18.7261 138.8502,18.3261 138.5502,18.0261 C138.2492,17.7261 137.9502,17.5261 137.5502,17.4261 C137.1502,17.3261 136.7492,17.2261 136.2492,17.2261 C135.7492,17.2261 135.3502,17.3261 134.9502,17.4261 C134.5502,17.5261 134.1502,17.7261 133.9502,18.0261 C133.6502,18.3261 133.5502,18.7261 133.5502,19.2261 C133.5502,19.6261 133.6502,19.9261 133.8502,20.1261 C134.0502,20.3261 134.2492,20.5261 134.5502,20.6261 C134.8502,20.7261 135.1502,20.8261 135.5502,20.9261 C136.1502,21.0261 136.6502,21.2261 137.0502,21.3261 C137.3502,21.4261 137.5502,21.6261 137.5502,21.9261 C137.5502,22.2261 137.4502,22.4261 137.1502,22.5261 C136.9502,22.6261 136.6502,22.7261 136.3502,22.7261 C135.9502,22.7261 135.6502,22.6261 135.4502,22.5261 C135.1502,22.3261 135.0502,22.1261 135.0502,21.7261 L133.3502,21.7261 L133.3502,21.5261 Z" id="Fill-48" fill="#050505"></path>
            <path d="M141.65,19.7258 C141.65,19.5258 141.75,19.3258 141.75,19.1258 C141.85,18.9258 141.95,18.7258 142.15,18.6258 C142.35,18.4258 142.65,18.4258 143.05,18.4258 C143.45,18.4258 143.75,18.5258 144.05,18.7258 C144.25,18.9258 144.45,19.3258 144.45,19.7258 L141.65,19.7258 Z M146.25,20.8258 C146.25,20.1258 146.25,19.5258 145.95,19.0258 C145.75,18.4258 145.35,18.0258 144.95,17.6258 C144.45,17.2258 143.85,17.1258 143.15,17.1258 C142.55,17.1258 141.95,17.3258 141.45,17.5258 C140.95,17.8258 140.55,18.2258 140.35,18.7258 C140.05,19.2258 139.95,19.8258 139.95,20.4258 C139.95,21.4258 140.25,22.2258 140.85,22.8258 C141.45,23.4258 142.25,23.7258 143.25,23.7258 C143.95,23.7258 144.55,23.5258 145.05,23.2258 C145.55,22.9258 145.95,22.3258 146.15,21.6258 L144.65,21.6258 C144.55,21.8258 144.45,22.0258 144.15,22.2258 C143.95,22.4258 143.55,22.5258 143.25,22.5258 C142.75,22.5258 142.35,22.4258 142.15,22.1258 C141.85,21.8258 141.75,21.4258 141.75,20.9258 L146.25,20.9258 L146.25,20.8258 Z" id="Fill-50" fill="#050505"></path>
            <path d="M147.2496,23.6262 L148.9496,23.6262 L148.9496,20.3262 C148.9496,19.7262 149.0506,19.2262 149.2496,18.9262 C149.4496,18.6262 149.8506,18.5262 150.2496,18.5262 C150.6496,18.5262 150.9496,18.6262 151.1496,18.9262 C151.3506,19.2262 151.4496,19.5262 151.4496,20.1262 L151.4496,23.7262 L153.1496,23.7262 L153.1496,19.8262 C153.1496,19.0262 153.0506,18.4262 152.6496,17.9262 C152.3506,17.4262 151.7496,17.2262 150.7496,17.2262 C150.3506,17.2262 150.0506,17.3262 149.6496,17.5262 C149.3506,17.7262 149.0506,17.9262 148.7496,18.3262 L148.7496,17.4262 L147.0506,17.4262 L147.0506,23.6262 L147.2496,23.6262 Z" id="Fill-52" fill="#050505"></path>
            <path d="M160.2496,17.2258 L158.4496,17.2258 L157.0506,21.5258 L155.6496,17.2258 L153.7496,17.2258 L155.9496,23.2258 C156.0506,23.5258 156.0506,23.7258 155.9496,24.0258 C155.8506,24.2258 155.6496,24.4258 155.3506,24.4258 L154.8506,24.4258 L154.3506,24.4258 L154.3506,25.8258 C154.7496,25.8258 155.0506,25.9258 155.4496,25.9258 C156.0506,25.9258 156.5506,25.8258 156.8506,25.6258 C157.1496,25.4258 157.4496,25.0258 157.6496,24.5258 L160.2496,17.2258 Z" id="Fill-54" fill="#050505"></path>
            <path d="M162.5504,19.2258 C162.5504,18.9258 162.7494,18.6258 162.9494,18.5258 C163.1504,18.3258 163.4494,18.3258 163.7494,18.3258 C164.0504,18.3258 164.3504,18.3258 164.5504,18.4258 C164.7494,18.5258 164.8504,18.7258 164.8504,19.1258 C164.8504,19.4258 164.6504,19.6258 164.2494,19.7258 C163.8504,19.8258 163.3504,19.8258 162.8504,19.9258 C162.4494,19.9258 162.1504,20.0258 161.8504,20.1258 C161.5504,20.2258 161.2494,20.4258 161.0504,20.7258 C160.8504,21.0258 160.7494,21.3258 160.7494,21.8258 C160.7494,22.4258 160.9494,22.9258 161.3504,23.2258 C161.7494,23.5258 162.2494,23.7258 162.8504,23.7258 C163.2494,23.7258 163.6504,23.6258 164.0504,23.5258 C164.4494,23.4258 164.7494,23.2258 165.0504,22.9258 L165.0504,23.2258 C165.0504,23.3258 165.0504,23.4258 165.1504,23.5258 L166.9494,23.5258 C166.8504,23.4258 166.8504,23.2258 166.7494,22.9258 C166.7494,22.6258 166.6504,22.4258 166.6504,22.1258 L166.6504,18.8258 C166.6504,18.3258 166.4494,17.9258 166.2494,17.7258 C165.9494,17.4258 165.6504,17.3258 165.1504,17.2258 C164.7494,17.1258 164.2494,17.1258 163.8504,17.1258 C163.3504,17.1258 162.9494,17.2258 162.4494,17.3258 C162.0504,17.4258 161.6504,17.6258 161.3504,18.0258 C161.0504,18.3258 160.8504,18.7258 160.8504,19.3258 L162.5504,19.3258 L162.5504,19.2258 Z M164.8504,21.1258 C164.8504,21.2258 164.8504,21.4258 164.7494,21.6258 C164.6504,21.8258 164.5504,22.0258 164.3504,22.2258 C164.1504,22.4258 163.8504,22.5258 163.3504,22.5258 C163.0504,22.5258 162.8504,22.5258 162.6504,22.3258 C162.4494,22.2258 162.3504,22.0258 162.3504,21.7258 C162.3504,21.4258 162.4494,21.2258 162.6504,21.0258 C162.8504,20.9258 163.0504,20.8258 163.3504,20.7258 C163.6504,20.7258 163.9494,20.6258 164.1504,20.6258 C164.4494,20.6258 164.6504,20.5258 164.7494,20.4258 L164.8504,21.1258 Z" id="Fill-56" fill="#050505"></path>
            <path d="M167.9498,23.6262 L169.6498,23.6262 L169.6498,19.9262 C169.6498,19.5262 169.7498,19.2262 169.8498,19.0262 C169.9498,18.8262 170.1498,18.6262 170.3498,18.6262 C170.5508,18.5262 170.6498,18.5262 170.8498,18.5262 C171.2498,18.5262 171.4498,18.6262 171.6498,18.7262 C171.7498,18.9262 171.8498,19.1262 171.9498,19.3262 L171.9498,20.0262 L171.9498,23.6262 L173.6498,23.6262 L173.6498,20.0262 C173.6498,19.6262 173.7498,19.2262 173.8498,18.9262 C174.0508,18.6262 174.3498,18.4262 174.8498,18.4262 C175.3498,18.4262 175.6498,18.6262 175.7498,18.9262 C175.8498,19.2262 175.9498,19.6262 175.9498,20.0262 L175.9498,23.6262 L177.6498,23.6262 L177.6498,19.4262 C177.6498,18.6262 177.4498,18.0262 176.9498,17.6262 C176.5508,17.2262 175.9498,17.1262 175.2498,17.1262 C174.8498,17.1262 174.4498,17.2262 174.0508,17.4262 C173.7498,17.6262 173.4498,17.8262 173.2498,18.1262 C173.0508,17.7262 172.8498,17.5262 172.4498,17.3262 C172.1498,17.1262 171.7498,17.1262 171.3498,17.1262 C170.9498,17.1262 170.5508,17.2262 170.2498,17.4262 C169.9498,17.6262 169.6498,17.8262 169.4498,18.2262 L169.4498,17.3262 L167.8498,17.3262 L167.8498,23.6262 L167.9498,23.6262 Z" id="Fill-58" fill="#050505"></path>
            <path d="M180.4498,19.7258 C180.4498,19.5258 180.5508,19.3258 180.5508,19.1258 C180.6498,18.9258 180.7498,18.7258 180.9498,18.6258 C181.1498,18.4258 181.4498,18.4258 181.8498,18.4258 C182.2498,18.4258 182.5508,18.5258 182.8498,18.7258 C183.0508,18.9258 183.2498,19.3258 183.2498,19.7258 L180.4498,19.7258 Z M185.0508,20.8258 C185.0508,20.1258 185.0508,19.5258 184.7498,19.0258 C184.5508,18.4258 184.1498,18.0258 183.7498,17.6258 C183.2498,17.2258 182.6498,17.1258 181.9498,17.1258 C181.3498,17.1258 180.7498,17.3258 180.2498,17.5258 C179.7498,17.8258 179.3498,18.2258 179.1498,18.7258 C178.8498,19.2258 178.7498,19.8258 178.7498,20.4258 C178.7498,21.4258 179.0508,22.2258 179.6498,22.8258 C180.2498,23.4258 181.0508,23.7258 182.0508,23.7258 C182.7498,23.7258 183.3498,23.5258 183.8498,23.2258 C184.3498,22.9258 184.7498,22.3258 184.9498,21.6258 L183.4498,21.6258 C183.3498,21.8258 183.2498,22.0258 182.9498,22.2258 C182.7498,22.4258 182.3498,22.5258 182.0508,22.5258 C181.5508,22.5258 181.1498,22.4258 180.9498,22.1258 C180.6498,21.8258 180.5508,21.4258 180.5508,20.9258 L185.0508,20.9258 L185.0508,20.8258 Z" id="Fill-60" fill="#050505"></path>
            <path d="M186.0504,23.6262 L187.7494,23.6262 L187.7494,20.3262 C187.7494,19.7262 187.8504,19.2262 188.0504,18.9262 C188.2494,18.6262 188.6504,18.5262 189.0504,18.5262 C189.4494,18.5262 189.7494,18.6262 189.9494,18.9262 C190.1504,19.2262 190.2494,19.5262 190.2494,20.1262 L190.2494,23.7262 L191.9494,23.7262 L191.9494,19.8262 C191.9494,19.0262 191.8504,18.4262 191.4494,17.9262 C191.1504,17.4262 190.5504,17.2262 189.5504,17.2262 C189.1504,17.2262 188.8504,17.3262 188.4494,17.5262 C188.1504,17.7262 187.8504,17.9262 187.5504,18.3262 L187.5504,17.4262 L185.8504,17.4262 L185.8504,23.6262 L186.0504,23.6262 Z" id="Fill-62" fill="#050505"></path>
            <g id="Group-66" transform="translate(192.749400, 15.325900)">
                <mask id="mask-8" fill="white">
                    <use xlink:href="#path-7"></use>
                </mask>
                <g id="Clip-65"></g>
                <path d="M2.801,-3.55271368e-15 L1.101,-3.55271368e-15 L1.101,1.9 L-2.84217094e-14,1.9 L-2.84217094e-14,3.1 L1.101,3.1 L1.101,6.8 C1.101,7.4 1.301,7.8 1.7,8 C2.101,8.2 2.5,8.3 3.101,8.3 L3.601,8.3 L4.101,8.3 L4.101,6.9 L3.801,6.9 L3.5,6.9 C3.2,6.9 3,6.9 2.901,6.8 C2.801,6.7 2.7,6.5 2.801,6.2 L2.801,3.1 L4.101,3.1 L4.101,1.9 L2.801,1.9 L2.801,-3.55271368e-15 Z" id="Fill-64" fill="#050505" mask="url(#mask-8)"></path>
            </g>
            <path d="M35.2501,6.8259 L31.5501,6.8259 L31.5501,7.5259 L34.5501,7.5259 C34.5501,8.4259 34.3501,9.2259 33.7501,9.8259 C33.2501,10.4259 32.4501,10.7259 31.4501,10.7259 C30.6501,10.7259 30.0501,10.5259 29.5501,10.1259 C29.0501,9.7259 28.7501,9.3259 28.4501,8.7259 C28.2501,8.1259 28.1501,7.5259 28.1501,6.9259 C28.1501,6.2259 28.2501,5.6259 28.4501,5.0259 C28.6501,4.4259 29.0501,3.9259 29.5501,3.6259 C30.0501,3.2259 30.6501,3.0259 31.4501,3.0259 C32.0501,3.0259 32.4501,3.1259 32.8501,3.3259 C33.2501,3.5259 33.5501,3.8259 33.8501,4.1259 C34.0501,4.4259 34.2501,4.8259 34.2501,5.1259 L35.0501,5.1259 C34.8501,4.1259 34.4501,3.4259 33.7501,2.9259 C33.0501,2.4259 32.2501,2.2259 31.3501,2.2259 C30.4501,2.2259 29.6501,2.4259 29.0501,2.9259 C28.4501,3.3259 27.9501,3.9259 27.6501,4.6259 C27.3501,5.3259 27.1501,6.0259 27.1501,6.8259 C27.1501,7.6259 27.3501,8.4259 27.6501,9.0259 C27.9501,9.7259 28.4501,10.2259 29.0501,10.7259 C29.6501,11.1259 30.4501,11.3259 31.3501,11.4259 C31.9501,11.4259 32.5501,11.3259 33.1501,11.0259 C33.6501,10.7259 34.1501,10.3259 34.4501,9.6259 L34.5501,11.2259 L35.1501,11.2259 L35.1501,6.8259 L35.2501,6.8259 Z" id="Fill-67" fill="#050505"></path>
            <path d="M37.15,7.7258 C37.15,7.3258 37.25,6.9258 37.45,6.6258 C37.65,6.3258 37.85,6.0258 38.15,5.8258 C38.45,5.6258 38.85,5.5258 39.25,5.5258 C39.65,5.5258 40.05,5.6258 40.35,5.8258 C40.65,6.0258 40.85,6.3258 41.05,6.6258 C41.25,6.9258 41.25,7.3258 41.35,7.7258 L37.15,7.7258 Z M42.05,8.3258 C42.05,7.7258 41.95,7.1258 41.85,6.6258 C41.65,6.1258 41.35,5.6258 40.95,5.3258 C40.55,5.0258 39.95,4.8258 39.35,4.8258 C38.65,4.8258 38.15,5.0258 37.75,5.3258 C37.35,5.6258 37.05,6.0258 36.85,6.5258 C36.65,7.0258 36.55,7.5258 36.55,8.1258 C36.55,8.7258 36.65,9.3258 36.85,9.8258 C37.05,10.3258 37.35,10.7258 37.75,11.0258 C38.15,11.3258 38.75,11.5258 39.35,11.5258 C40.15,11.5258 40.75,11.3258 41.25,10.9258 C41.65,10.5258 41.95,9.9258 42.15,9.2258 L41.35,9.2258 C41.25,9.7258 41.05,10.1258 40.65,10.4258 C40.35,10.7258 39.85,10.8258 39.35,10.9258 C38.85,10.9258 38.45,10.8258 38.15,10.5258 C37.85,10.2258 37.65,9.9258 37.45,9.6258 C37.35,9.2258 37.25,8.8258 37.25,8.5258 L42.05,8.5258 L42.05,8.3258 Z" id="Fill-69" fill="#050505"></path>
            <path d="M43.0499,11.3259 L43.8499,11.3259 L43.8499,7.6259 C43.8499,7.0259 44.0499,6.4259 44.3499,6.0259 C44.6499,5.6259 45.1499,5.4259 45.7499,5.4259 C46.3499,5.4259 46.7499,5.6259 47.0499,5.9259 C47.2499,6.3259 47.3499,6.7259 47.3499,7.3259 L47.3499,11.3259 L48.1499,11.3259 L48.1499,7.2259 C48.1499,6.4259 48.0499,5.8259 47.6499,5.4259 C47.3499,5.0259 46.6499,4.8259 45.8499,4.7259 C45.3499,4.7259 44.9499,4.8259 44.6499,5.1259 C44.2499,5.3259 44.0499,5.6259 43.8499,6.0259 L43.8499,5.0259 L43.0499,5.0259 L43.0499,11.3259 Z" id="Fill-71" fill="#050505"></path>
            <path d="M50.15,7.7258 C50.15,7.3258 50.25,6.9258 50.45,6.6258 C50.65,6.3258 50.85,6.0258 51.15,5.8258 C51.45,5.6258 51.85,5.5258 52.25,5.5258 C52.65,5.5258 53.05,5.6258 53.35,5.8258 C53.65,6.0258 53.85,6.3258 54.05,6.6258 C54.25,6.9258 54.25,7.3258 54.35,7.7258 L50.15,7.7258 Z M55.05,8.3258 C55.05,7.7258 54.95,7.1258 54.85,6.6258 C54.65,6.1258 54.35,5.6258 53.95,5.3258 C53.55,5.0258 52.95,4.8258 52.35,4.8258 C51.65,4.8258 51.15,5.0258 50.75,5.3258 C50.35,5.6258 50.05,6.0258 49.85,6.5258 C49.65,7.0258 49.55,7.5258 49.55,8.1258 C49.55,8.7258 49.65,9.3258 49.85,9.8258 C50.05,10.3258 50.35,10.7258 50.75,11.0258 C51.15,11.3258 51.75,11.5258 52.35,11.5258 C53.15,11.5258 53.75,11.3258 54.25,10.9258 C54.65,10.5258 54.95,9.9258 55.15,9.2258 L54.35,9.2258 C54.25,9.7258 54.05,10.1258 53.65,10.4258 C53.35,10.7258 52.85,10.8258 52.35,10.9258 C51.85,10.9258 51.45,10.8258 51.15,10.5258 C50.85,10.2258 50.65,9.9258 50.45,9.6258 C50.35,9.2258 50.25,8.8258 50.25,8.5258 L55.05,8.5258 L55.05,8.3258 Z" id="Fill-73" fill="#050505"></path>
            <path d="M56.0499,11.3259 L56.8499,11.3259 L56.8499,7.9259 C56.8499,7.2259 57.0499,6.7259 57.5499,6.2259 C57.9499,5.8259 58.5499,5.6259 59.2499,5.6259 L59.2499,4.8259 C58.6499,4.8259 58.1499,4.9259 57.7499,5.2259 C57.3499,5.5259 57.0499,5.9259 56.8499,6.4259 L56.8499,5.0259 L56.1499,5.0259 L56.0499,11.3259 Z" id="Fill-75" fill="#050505"></path>
            <path d="M60.65,6.926 C60.65,6.426 60.85,6.026 61.15,5.826 C61.45,5.626 61.85,5.426 62.35,5.526 C62.85,5.526 63.25,5.626 63.55,5.826 C63.85,6.026 64.05,6.326 64.05,6.826 C64.05,7.126 63.95,7.426 63.75,7.526 C63.55,7.626 63.35,7.726 63.05,7.726 C62.45,7.826 61.95,7.826 61.45,7.926 C60.95,8.026 60.55,8.226 60.15,8.426 C59.85,8.726 59.65,9.126 59.65,9.726 C59.65,10.326 59.85,10.826 60.25,11.126 C60.65,11.426 61.15,11.626 61.75,11.526 C62.35,11.526 62.85,11.426 63.15,11.226 C63.45,11.026 63.75,10.726 64.05,10.226 C64.05,10.526 64.05,10.826 64.25,11.026 C64.35,11.226 64.65,11.326 64.95,11.326 L65.25,11.326 L65.45,11.326 L65.45,10.726 L65.35,10.726 L65.25,10.726 C65.05,10.726 64.95,10.726 64.95,10.626 C64.85,10.526 64.85,10.426 64.85,10.326 L64.85,6.926 C64.85,6.326 64.75,5.926 64.45,5.626 C64.25,5.326 63.95,5.126 63.55,5.026 C63.15,4.926 62.85,4.826 62.45,4.826 C61.75,4.826 61.15,5.026 60.65,5.326 C60.15,5.626 59.95,6.226 59.85,6.926 L60.65,6.926 Z M63.95,8.826 C63.95,9.426 63.75,9.926 63.25,10.326 C62.85,10.626 62.35,10.826 61.65,10.826 C61.25,10.826 60.95,10.726 60.65,10.526 C60.35,10.326 60.25,10.026 60.25,9.626 C60.25,9.226 60.45,8.926 60.75,8.726 C61.05,8.526 61.45,8.426 61.85,8.326 C62.25,8.226 62.75,8.226 63.15,8.126 C63.25,8.126 63.35,8.126 63.55,8.026 C63.65,8.026 63.75,7.926 63.85,7.826 L63.95,8.826 Z" id="Fill-77" fill="#050505"></path>
            <mask id="mask-10" fill="white">
                <use xlink:href="#path-9"></use>
            </mask>
            <g id="Clip-80"></g>
            <polygon id="Fill-79" fill="#050505" mask="url(#mask-10)" points="66.25 11.326 67.05 11.326 67.05 2.526 66.25 2.526"></polygon>
            <path d="M68.55,3.826 L69.35,3.826 L69.35,2.626 L68.55,2.626 L68.55,3.826 Z M68.55,11.326 L69.35,11.326 L69.35,5.026 L68.55,5.026 L68.55,11.326 Z" id="Fill-81" fill="#050505" mask="url(#mask-10)"></path>
            <path d="M72.0499,3.1262 L71.2499,3.1262 L71.2499,5.0262 L70.1499,5.0262 L70.1499,5.6262 L71.2499,5.6262 L71.2499,9.9262 C71.2499,10.4262 71.3499,10.8262 71.5499,11.0262 C71.7499,11.2262 72.1499,11.3262 72.6499,11.3262 L72.9499,11.3262 L73.2499,11.3262 L73.2499,10.6262 L72.5499,10.6262 C72.2499,10.6262 72.1499,10.5262 72.0499,10.4262 C71.9499,10.3262 71.9499,10.1262 71.9499,9.8262 L71.9499,5.5262 L73.2499,5.5262 L73.2499,5.0262 L71.9499,5.0262 L72.0499,3.1262 Z" id="Fill-82" fill="#050505" mask="url(#mask-10)"></path>
            <path d="M75.15,6.926 C75.15,6.426 75.35,6.026 75.65,5.826 C75.95,5.626 76.35,5.426 76.85,5.526 C77.35,5.526 77.75,5.626 78.05,5.826 C78.35,6.026 78.55,6.326 78.55,6.826 C78.55,7.126 78.45,7.426 78.25,7.526 C78.05,7.626 77.85,7.726 77.55,7.726 C76.95,7.826 76.45,7.826 75.95,7.926 C75.45,8.026 75.05,8.226 74.65,8.426 C74.35,8.726 74.15,9.126 74.15,9.726 C74.15,10.326 74.35,10.826 74.75,11.126 C75.15,11.426 75.65,11.626 76.25,11.526 C76.85,11.526 77.35,11.426 77.65,11.226 C77.95,11.026 78.25,10.726 78.55,10.226 C78.55,10.526 78.55,10.826 78.75,11.026 C78.85,11.226 79.15,11.326 79.45,11.326 L79.75,11.326 L79.95,11.326 L79.95,10.726 L79.85,10.726 L79.75,10.726 C79.55,10.726 79.45,10.726 79.45,10.626 C79.35,10.526 79.35,10.426 79.35,10.326 L79.35,6.926 C79.35,6.326 79.25,5.926 78.95,5.626 C78.75,5.326 78.45,5.126 78.05,5.026 C77.65,4.926 77.35,4.826 76.95,4.826 C76.25,4.826 75.65,5.026 75.15,5.326 C74.65,5.626 74.45,6.226 74.35,6.926 L75.15,6.926 Z M78.45,8.826 C78.45,9.426 78.25,9.926 77.75,10.326 C77.35,10.626 76.85,10.826 76.15,10.826 C75.75,10.826 75.45,10.726 75.15,10.526 C74.85,10.326 74.75,10.026 74.75,9.626 C74.75,9.226 74.95,8.926 75.25,8.726 C75.55,8.526 75.95,8.426 76.35,8.326 C76.75,8.226 77.25,8.226 77.65,8.126 C77.75,8.126 77.85,8.126 78.05,8.026 C78.15,8.026 78.25,7.926 78.35,7.826 L78.45,8.826 Z" id="Fill-83" fill="#050505" mask="url(#mask-10)"></path>
            <path d="M82.0499,3.1262 L81.2499,3.1262 L81.2499,5.0262 L80.1499,5.0262 L80.1499,5.6262 L81.2499,5.6262 L81.2499,9.9262 C81.2499,10.4262 81.3499,10.8262 81.5499,11.0262 C81.7499,11.2262 82.1499,11.3262 82.6499,11.3262 L82.9499,11.3262 L83.2499,11.3262 L83.2499,10.6262 L82.5499,10.6262 C82.2499,10.6262 82.1499,10.5262 82.0499,10.4262 C81.9499,10.3262 81.9499,10.1262 81.9499,9.8262 L81.9499,5.5262 L83.2499,5.5262 L83.2499,5.0262 L81.9499,5.0262 L82.0499,3.1262 Z" id="Fill-84" fill="#050505" mask="url(#mask-10)"></path>
            <path d="M93.4498,2.5261 L92.6498,2.5261 L92.6498,6.1261 C92.4498,5.6261 92.1498,5.3261 91.7498,5.1261 C91.3498,4.9261 90.9498,4.7261 90.4498,4.7261 C89.8498,4.7261 89.2498,4.9261 88.8498,5.2261 C88.4498,5.5261 88.1498,5.9261 87.9498,6.4261 C87.7498,6.9261 87.6498,7.5261 87.6498,8.1261 C87.6498,8.7261 87.7498,9.3261 87.9498,9.8261 C88.1498,10.3261 88.4498,10.7261 88.8498,11.0261 C89.2498,11.3261 89.8498,11.5261 90.4498,11.5261 C90.9498,11.5261 91.3498,11.4261 91.8498,11.1261 C92.2498,10.8261 92.5498,10.5261 92.7498,10.1261 L92.7498,11.3261 L93.4498,11.3261 L93.4498,2.5261 Z M88.3498,8.1261 C88.3498,7.7261 88.4498,7.2261 88.5498,6.8261 C88.6498,6.4261 88.9498,6.1261 89.2498,5.8261 C89.5498,5.5261 89.9498,5.4261 90.4498,5.4261 C90.9498,5.4261 91.4498,5.5261 91.7498,5.8261 C92.0498,6.1261 92.3498,6.4261 92.4498,6.8261 C92.5498,7.2261 92.6498,7.6261 92.6498,8.1261 C92.6498,8.5261 92.5498,9.0261 92.4498,9.4261 C92.3498,9.8261 92.0498,10.1261 91.7498,10.4261 C91.4498,10.7261 90.9498,10.8261 90.4498,10.8261 C89.9498,10.8261 89.5498,10.7261 89.2498,10.4261 C88.9498,10.1261 88.7498,9.8261 88.5498,9.4261 C88.4498,9.0261 88.3498,8.6261 88.3498,8.1261 L88.3498,8.1261 Z" id="Fill-85" fill="#050505" mask="url(#mask-10)"></path>
            <path d="M95.3502,7.7258 C95.3502,7.3258 95.4502,6.9258 95.6502,6.6258 C95.8502,6.3258 96.0502,6.0258 96.3502,5.8258 C96.6502,5.6258 97.0502,5.5258 97.4502,5.5258 C97.8502,5.5258 98.2502,5.6258 98.5502,5.8258 C98.8502,6.0258 99.0502,6.3258 99.2502,6.6258 C99.4502,6.9258 99.4502,7.3258 99.5502,7.7258 L95.3502,7.7258 Z M100.1502,8.3258 C100.1502,7.7258 100.0502,7.1258 99.9502,6.6258 C99.7492,6.1258 99.4502,5.6258 99.0502,5.3258 C98.6502,5.0258 98.0502,4.8258 97.4502,4.8258 C96.7502,4.8258 96.2502,5.0258 95.8502,5.3258 C95.4502,5.6258 95.1502,6.0258 94.9502,6.5258 C94.7502,7.0258 94.6502,7.5258 94.6502,8.1258 C94.6502,8.7258 94.7502,9.3258 94.9502,9.8258 C95.1502,10.3258 95.4502,10.7258 95.8502,11.0258 C96.2502,11.3258 96.8502,11.5258 97.4502,11.5258 C98.2502,11.5258 98.8502,11.3258 99.3502,10.9258 C99.7492,10.5258 100.0502,9.9258 100.2492,9.2258 L99.4502,9.2258 C99.3502,9.7258 99.1502,10.1258 98.7502,10.4258 C98.4502,10.7258 97.9502,10.8258 97.4502,10.9258 C96.9502,10.9258 96.5502,10.8258 96.2502,10.5258 C95.9502,10.2258 95.7502,9.9258 95.5502,9.6258 C95.4502,9.2258 95.3502,8.8258 95.3502,8.5258 L100.1502,8.5258 L100.1502,8.3258 Z" id="Fill-86" fill="#050505" mask="url(#mask-10)"></path>
            <path d="M112.0504,5.2258 C111.9494,4.6258 111.7494,4.1258 111.4494,3.6258 C111.1504,3.2258 110.6504,2.9258 110.1504,2.6258 C109.6504,2.4258 109.1504,2.3258 108.5504,2.3258 C107.6504,2.3258 106.8504,2.5258 106.2494,3.0258 C105.6504,3.4258 105.1504,4.0258 104.8504,4.7258 C104.5504,5.4258 104.3504,6.1258 104.3504,6.9258 C104.3504,7.7258 104.5504,8.5258 104.8504,9.1258 C105.1504,9.8258 105.6504,10.3258 106.2494,10.8258 C106.8504,11.2258 107.6504,11.4258 108.5504,11.5258 C109.5504,11.5258 110.4494,11.2258 111.0504,10.5258 C111.6504,9.9258 112.0504,9.0258 112.1504,7.9258 L111.3504,7.9258 C111.2494,8.7258 110.9494,9.4258 110.4494,9.9258 C109.9494,10.4258 109.3504,10.7258 108.4494,10.7258 C107.6504,10.7258 107.0504,10.5258 106.5504,10.1258 C106.0504,9.7258 105.7494,9.3258 105.4494,8.7258 C105.2494,8.1258 105.1504,7.5258 105.1504,6.9258 C105.1504,6.2258 105.2494,5.6258 105.4494,5.0258 C105.6504,4.4258 106.0504,3.9258 106.5504,3.6258 C107.0504,3.2258 107.6504,3.0258 108.4494,3.0258 C109.1504,3.0258 109.6504,3.2258 110.1504,3.6258 C110.6504,4.0258 110.9494,4.5258 111.1504,5.2258 L112.0504,5.2258 Z" id="Fill-87" fill="#050505" mask="url(#mask-10)"></path>
            <path d="M114.0504,6.926 C114.0504,6.426 114.2494,6.026 114.5504,5.826 C114.8504,5.626 115.2494,5.426 115.7494,5.526 C116.2494,5.526 116.6504,5.626 116.9494,5.826 C117.2494,6.026 117.4494,6.326 117.4494,6.826 C117.4494,7.126 117.3504,7.426 117.1504,7.526 C116.9494,7.626 116.7494,7.726 116.4494,7.726 C115.8504,7.826 115.3504,7.826 114.8504,7.926 C114.3504,8.026 113.9494,8.226 113.5504,8.426 C113.2494,8.726 113.0504,9.126 113.0504,9.726 C113.0504,10.326 113.2494,10.826 113.6504,11.126 C114.0504,11.426 114.5504,11.626 115.1504,11.526 C115.7494,11.526 116.2494,11.426 116.5504,11.226 C116.8504,11.026 117.1504,10.726 117.4494,10.226 C117.4494,10.526 117.4494,10.826 117.6504,11.026 C117.7494,11.226 118.0504,11.326 118.3504,11.326 L118.6504,11.326 L118.8504,11.326 L118.8504,10.726 L118.7494,10.726 L118.6504,10.726 C118.4494,10.726 118.3504,10.726 118.3504,10.626 C118.2494,10.526 118.2494,10.426 118.2494,10.326 L118.2494,6.926 C118.2494,6.326 118.1504,5.926 117.8504,5.626 C117.6504,5.326 117.3504,5.126 116.9494,5.026 C116.5504,4.926 116.2494,4.826 115.8504,4.826 C115.1504,4.826 114.5504,5.026 114.0504,5.326 C113.5504,5.626 113.3504,6.226 113.2494,6.926 L114.0504,6.926 Z M117.3504,8.826 C117.3504,9.426 117.1504,9.926 116.6504,10.326 C116.2494,10.626 115.7494,10.826 115.0504,10.826 C114.6504,10.826 114.3504,10.726 114.0504,10.526 C113.7494,10.326 113.6504,10.026 113.6504,9.626 C113.6504,9.226 113.8504,8.926 114.1504,8.726 C114.4494,8.526 114.8504,8.426 115.2494,8.326 C115.6504,8.226 116.1504,8.226 116.5504,8.126 C116.6504,8.126 116.7494,8.126 116.9494,8.026 C117.0504,8.026 117.1504,7.926 117.2494,7.826 L117.3504,8.826 Z" id="Fill-88" fill="#050505" mask="url(#mask-10)"></path>
            <path d="M120.8502,3.1262 L120.0502,3.1262 L120.0502,5.0262 L118.9502,5.0262 L118.9502,5.6262 L120.0502,5.6262 L120.0502,9.9262 C120.0502,10.4262 120.1502,10.8262 120.3502,11.0262 C120.5502,11.2262 120.9502,11.3262 121.4502,11.3262 L121.7492,11.3262 L122.0502,11.3262 L122.0502,10.6262 L121.3502,10.6262 C121.0502,10.6262 120.9502,10.5262 120.8502,10.4262 C120.7492,10.3262 120.7492,10.1262 120.7492,9.8262 L120.7492,5.5262 L122.0502,5.5262 L122.0502,5.0262 L120.7492,5.0262 L120.8502,3.1262 Z" id="Fill-89" fill="#050505" mask="url(#mask-10)"></path>
            <path d="M123.9498,6.926 C123.9498,6.426 124.1498,6.026 124.4498,5.826 C124.7498,5.626 125.1498,5.426 125.6498,5.526 C126.1498,5.526 126.5508,5.626 126.8498,5.826 C127.1498,6.026 127.3498,6.326 127.3498,6.826 C127.3498,7.126 127.2498,7.426 127.0508,7.526 C126.8498,7.626 126.6498,7.726 126.3498,7.726 C125.7498,7.826 125.2498,7.826 124.7498,7.926 C124.2498,8.026 123.8498,8.226 123.4498,8.426 C123.1498,8.726 122.9498,9.126 122.9498,9.726 C122.9498,10.326 123.1498,10.826 123.5508,11.126 C123.9498,11.426 124.4498,11.626 125.0508,11.526 C125.6498,11.526 126.1498,11.426 126.4498,11.226 C126.7498,11.026 127.0508,10.726 127.3498,10.226 C127.3498,10.526 127.3498,10.826 127.5508,11.026 C127.6498,11.226 127.9498,11.326 128.2498,11.326 L128.5508,11.326 L128.7498,11.326 L128.7498,10.726 L128.6498,10.726 L128.5508,10.726 C128.3498,10.726 128.2498,10.726 128.2498,10.626 C128.1498,10.526 128.1498,10.426 128.1498,10.326 L128.1498,6.926 C128.1498,6.326 128.0508,5.926 127.7498,5.626 C127.5508,5.326 127.2498,5.126 126.8498,5.026 C126.4498,4.926 126.1498,4.826 125.7498,4.826 C125.0508,4.826 124.4498,5.026 123.9498,5.326 C123.4498,5.626 123.2498,6.226 123.1498,6.926 L123.9498,6.926 Z M127.3498,8.826 C127.3498,9.426 127.1498,9.926 126.6498,10.326 C126.2498,10.626 125.7498,10.826 125.0508,10.826 C124.6498,10.826 124.3498,10.726 124.0508,10.526 C123.7498,10.326 123.6498,10.026 123.6498,9.626 C123.6498,9.226 123.8498,8.926 124.1498,8.726 C124.4498,8.526 124.8498,8.426 125.2498,8.326 C125.6498,8.226 126.1498,8.226 126.5508,8.126 C126.6498,8.126 126.7498,8.126 126.9498,8.026 C127.0508,8.026 127.1498,7.926 127.2498,7.826 L127.3498,8.826 Z" id="Fill-90" fill="#050505" mask="url(#mask-10)"></path>
            <polygon id="Fill-91" fill="#050505" mask="url(#mask-10)" points="129.65 11.326 130.45 11.326 130.45 2.526 129.65 2.526"></polygon>
            <path d="M137.0504,5.0261 L136.2494,5.0261 L136.2494,8.3261 C136.2494,8.7261 136.1504,9.1261 136.0504,9.5261 C135.9494,9.9261 135.7494,10.2261 135.4494,10.4261 C135.1504,10.6261 134.8504,10.8261 134.3504,10.8261 C133.7494,10.8261 133.3504,10.7261 133.0504,10.4261 C132.7494,10.1261 132.6504,9.7261 132.6504,9.1261 L132.6504,5.0261 L131.8504,5.0261 L131.8504,9.1261 C131.8504,9.8261 132.0504,10.4261 132.3504,10.9261 C132.6504,11.3261 133.2494,11.5261 134.0504,11.5261 C134.5504,11.5261 134.9494,11.4261 135.3504,11.2261 C135.7494,11.0261 136.0504,10.6261 136.2494,10.2261 L136.2494,11.3261 L136.9494,11.3261 L136.9494,5.0261 L137.0504,5.0261 Z" id="Fill-92" fill="#050505" mask="url(#mask-10)"></path>
            <path d="M138.4498,11.3259 L139.2498,11.3259 L139.2498,7.6259 C139.2498,7.0259 139.4498,6.4259 139.7498,6.0259 C140.0508,5.6259 140.5508,5.4259 141.1498,5.4259 C141.7498,5.4259 142.1498,5.6259 142.4498,5.9259 C142.6498,6.3259 142.7498,6.7259 142.7498,7.3259 L142.7498,11.3259 L143.5508,11.3259 L143.5508,7.2259 C143.5508,6.4259 143.4498,5.8259 143.0508,5.4259 C142.7498,5.0259 142.0508,4.8259 141.2498,4.7259 C140.7498,4.7259 140.3498,4.8259 140.0508,5.1259 C139.6498,5.3259 139.4498,5.6259 139.2498,6.0259 L139.2498,5.0259 L138.4498,5.0259 L138.4498,11.3259 Z" id="Fill-93" fill="#050505" mask="url(#mask-10)"></path>
            <path d="M146.9498,11.3259 L146.6498,12.0259 C146.5508,12.3259 146.4498,12.5259 146.2498,12.7259 C146.1498,12.9259 145.8498,13.0259 145.5508,13.0259 C145.3498,13.0259 145.2498,13.0259 145.0508,12.9259 L145.0508,13.5259 L145.2498,13.5259 L145.6498,13.5259 C146.1498,13.5259 146.4498,13.4259 146.6498,13.2259 C146.8498,13.0259 147.0508,12.6259 147.2498,12.1259 L149.9498,4.8259 L149.1498,4.8259 L147.1498,10.2259 L145.0508,4.8259 L144.2498,4.8259 L146.9498,11.3259 Z" id="Fill-94" fill="#050505" mask="url(#mask-10)"></path>
            <path d="M151.4498,6.926 C151.4498,6.426 151.6498,6.026 151.9498,5.826 C152.2498,5.626 152.6498,5.426 153.1498,5.526 C153.6498,5.526 154.0508,5.626 154.3498,5.826 C154.6498,6.026 154.8498,6.326 154.8498,6.826 C154.8498,7.126 154.7498,7.426 154.5508,7.526 C154.3498,7.626 154.1498,7.726 153.8498,7.726 C153.2498,7.826 152.7498,7.826 152.2498,7.926 C151.7498,8.026 151.3498,8.226 150.9498,8.426 C150.6498,8.726 150.4498,9.126 150.4498,9.726 C150.4498,10.326 150.6498,10.826 151.0508,11.126 C151.4498,11.426 151.9498,11.626 152.5508,11.526 C153.1498,11.526 153.6498,11.426 153.9498,11.226 C154.2498,11.026 154.5508,10.726 154.8498,10.226 C154.8498,10.526 154.8498,10.826 155.0508,11.026 C155.1498,11.226 155.4498,11.326 155.7498,11.326 L156.0508,11.326 L156.2498,11.326 L156.2498,10.726 L156.1498,10.726 L156.0508,10.726 C155.8498,10.726 155.7498,10.726 155.7498,10.626 C155.6498,10.526 155.6498,10.426 155.6498,10.326 L155.6498,6.926 C155.6498,6.326 155.5508,5.926 155.2498,5.626 C155.0508,5.326 154.7498,5.126 154.3498,5.026 C153.9498,4.926 153.6498,4.826 153.2498,4.826 C152.5508,4.826 151.9498,5.026 151.4498,5.326 C150.9498,5.626 150.7498,6.226 150.6498,6.926 L151.4498,6.926 Z M154.8498,8.826 C154.8498,9.426 154.6498,9.926 154.1498,10.326 C153.7498,10.626 153.2498,10.826 152.5508,10.826 C152.1498,10.826 151.8498,10.726 151.5508,10.526 C151.2498,10.326 151.1498,10.026 151.1498,9.626 C151.1498,9.226 151.3498,8.926 151.6498,8.726 C151.9498,8.526 152.3498,8.426 152.7498,8.326 C153.1498,8.226 153.6498,8.226 154.0508,8.126 C154.1498,8.126 154.2498,8.126 154.4498,8.026 C154.5508,8.026 154.6498,7.926 154.7498,7.826 L154.8498,8.826 Z" id="Fill-95" fill="#050505" mask="url(#mask-10)"></path>
        </g>
    </g>
</svg>